<svg width="210mm" height="297mm" viewBox="0 0 210 297" xmlns="http://www.w3.org/2000/svg"><g style="display:inline" fill="none"><path style="fill:#2a122d;fill-opacity:0;stroke:#000;stroke-opacity:1" d="M664.591 788.244c-1.303 5.411-6.28 10.258-12.55 14.49-6.271 4.232-19.636 9.634-25.154 13.247-5.519 3.613-15.895 14.739-19.122 20.284-3.226 5.546-5.653 11.312-6.6 20.098-.947 8.787.408 11.305 3.86 26.022 3.453 14.718 19.377 25.946 19.377 25.946s-12.164-32.772-6.34-57.185" transform="matrix(.26458 0 0 .26458 -147.583 -5.762)"/><path style="fill:#2a122d;fill-opacity:0;stroke:#000;stroke-opacity:1" d="M649.636 803.962s5.8-8.153 7.698-16.041c1.899-7.89 1.338-11.04-.621-16.169-1.959-5.13-9.683-18.86-15.755-25.833-6.071-6.974-14.458-17.67-21.395-22.962-6.937-5.291-23.55-16.793-29.991-25.965-6.441-9.173-11.391-16.216-11.953-35.667-.562-19.45-1.062-24.679 4.407-38.842 5.47-14.162 10.409-20.384 18.015-27.896 7.605-7.513 21.068-16.601 31.345-20.704 10.276-4.102 21.894-7.658 36.664-10.192 14.77-2.535 26.273-2.22 36.694-2.346 10.421-.124 28.187.54 42.045-4.608 13.858-5.149 18.589-12.679 24.764-22.47 6.175-9.791 8.02-21.69 7.558-29.566-.462-7.876-4.337-16.256-8.2-21.253-3.864-4.997-19.788-20.121-23.952-33.774-4.165-13.653-6.496-15.969-5.032-35.95 1.465-19.982 4.741-29.097 11.357-41.405 6.615-12.308 11.337-15.112 22.876-23.59 11.539-8.478 35.334-18.459 44.513-21.905" transform="matrix(.26458 0 0 .26458 -147.583 -5.762)"/><path style="fill:#2a122d;fill-opacity:0;stroke:#000;stroke-opacity:1" d="M822.744 332.47s-1.438-10.788-4.222-16.92c-2.783-6.133-5.965-11.235-10.168-15.011-4.202-3.777-8.835-6.893-15.376-6.602-6.541.29-12.298.599-16.805 2.132 0 0 1.879-5.372 4.438-6.925 2.56-1.553 4.976-2.492 10.195-3.003 5.218-.51 11.725-.178 14.132.57 2.408.747 10.056 2.665 12.88 5.32 2.824 2.654 6.622 5.508 8.599 9.613 1.976 4.105 3.816 7.952 4.463 12.166.647 4.215.839 8.393 1.043 11.634" transform="matrix(.26458 0 0 .26458 -147.583 -5.762)"/><path style="fill:#2a122d;fill-opacity:0;stroke:#000;stroke-opacity:1" d="M826.748 334.92s7.876-10.587 10.294-16.852c2.418-6.264 3.804-14.75 3.727-21.338-.078-6.589-3.941-14.544-7.73-19.113-3.788-4.569-9.219-10.815-14.326-14.983-5.107-4.169-10.109-6.817-15.285-8.507-5.176-1.69-9.33-2.66-16.531-2.674-7.202-.013-6.07-.294-10.198.387 0 0 8.153-4.082 15.653-4.85 7.5-.767 13.624-1.264 21.328.386 7.704 1.65 20.236 7.01 24.458 9.937 4.221 2.927 9.31 7.552 13.997 13.557 4.687 6.005 5.614 12.17 5.934 15.48.32 3.308-.272 14.265-1.64 18.896-1.368 4.63-4.676 10.678-8.121 15.444-3.445 4.766-9.547 10.618-12.687 13.178M851.572 317.309s11.195-1.242 17.066-1.334c5.872-.092 10.633-.103 17.183 1.186 6.55 1.288 15.934 5.551 15.934 5.551s3.6-3.994 6.89-6.755c3.29-2.762 7.147-5.188 10.34-6.283 3.194-1.095 12.776-5.15 20.89-5.217 8.114-.068 15.711 3.255 19.942 6.224 4.23 2.968 9.212 8.662 11.54 11.474 2.33 2.813 5.61 8.994 5.61 8.994s-6.532-.781-10.58-1.183c-4.047-.402-6.213-1.187-10.679-1.456-4.466-.27-10.334.184-10.334.184" transform="matrix(.26458 0 0 .26458 -147.583 -5.762)"/><path style="fill:#2a122d;fill-opacity:0;stroke:#000;stroke-opacity:1" d="M922.449 326.646s3.462-.723 9.917-.95c6.454-.228 9.616 1.716 12.078 3.205 2.462 1.49 6.051 5.172 8.405 8.14 2.353 2.969 7.974 11.323 10.89 17.443 2.915 6.12 5.158 9.386 6.934 16.425 1.776 7.04.333 15.524.333 15.524s-3.933-4.092-8.577-7.982c-4.645-3.889-8.933-5.645-13.592-7.75-4.658-2.106-12.87-6.348-17.13-6.717 0 0 10.729 3.544 13.769 10.296 3.04 6.751 2.45 8.776.915 11.992-1.536 3.216-4.222 3.648-4.222 3.648M921.75 367.06s5.161 4.079 9.817 10.728c4.655 6.649 12.949 21.104 13.88 23.175.932 2.071 6.017 11.33 7.01 14.176.993 2.846 2.2 2.48 3.491 3.468s3.168 3.076 7.362 6.664c4.195 3.589 8.166 8.627 9.433 12.642 1.267 4.014 1.019 9.406.337 14.073-.682 4.667-4.121 11.995-5.83 15.391-1.708 3.396-6.279 15.277-13.868 23.356-7.589 8.078-23.507 9.318-33.363 10.355-9.856 1.037-28.609.434-32.743-.794 0 0 10.803 3.769 16.264 6.866 5.461 3.098 7.06 4.249 9.305 5.478 2.244 1.23 2.414.69 3.98.501 1.566-.19 5.23-1.215 11.757-1.19 6.526.024 10.283 1.597 11.63 2.94 1.348 1.343 4.671 6.934 5.169 10.504.498 3.57.169 10.873-.199 14.816-.368 3.943-.761 6.544-3.281 8.989-2.52 2.444-11.871 6.332-20.887 6.9-9.015.567-15.066.37-20.651-.505-5.586-.876-12.88-2.493-12.88-2.493" transform="matrix(.26458 0 0 .26458 -147.583 -5.762)"/><path style="fill:#2a122d;fill-opacity:0;stroke:#000;stroke-opacity:1" d="M872.692 331.85s7.457-3.9 11.661-5.17c4.204-1.268 9.237-2.099 12.266-1.122 3.028.976 8.48 7.447 9.414 9.595.935 2.148 8.737 13.092 9.95 21.077 1.212 7.986 1.958 23.288 1.339 30.312-.619 7.023-7.455 40.906-10.405 51.903 0 0-1.635-25.59-3.363-36.583-1.728-10.992-4.424-19.008-7.69-25.794-3.268-6.786-6.519-15.382-11.919-21.92 0 0 4.874 14.656 3.75 26.48-1.123 11.825-6.254 22.124-7.982 28.497-1.729 6.372-3.906 11.853-5.956 17.507-2.051 5.654-4.34 9.904-4.34 9.904s-2.029-4.72-2.356-11.908c-.328-7.188 1.603-15.956 2.083-22.424.479-6.468 2.05-10.265 2.14-16.578.092-6.313-.669-11.656-1.4-14.697 0 0-2.034 12.583-5.85 20.587-3.817 8.004-14.714 19.102-16.288 23.223-1.575 4.12-2.546 9.653-2.566 15.142-.02 5.49 1.913 17.887 1.913 17.887s-6.328-1.342-10.914-3.815c-4.586-2.473-8.564-6.07-13.011-11.69-4.447-5.62-5.417-12.004-5.929-17.618-.512-5.614 2.12-13.11 4.144-16.377 2.025-3.267 4.147-6.975 4.147-6.975M817.31 424.502s-3.048 1.877-4.44 4.832c-1.392 2.956.321 14.54.321 14.54s-6.917-1.172-10.596-4.546c-3.679-3.374-5.53-8.875-6.011-12.734-.48-3.86.065-7.214.065-7.214" transform="matrix(.26458 0 0 .26458 -147.583 -5.762)"/><path style="fill:#2a122d;fill-opacity:0;stroke:#000;stroke-opacity:1" d="M796.548 432.796c-.507-.179-4.575 2.751-6.153 6.263-1.577 3.512-.685 10.178-.685 10.178s-8.33-2.178-14.445-8.005c-6.116-5.827-8.268-10.561-9.364-17.338-1.096-6.777-.87-10.792.412-16.65 1.281-5.857 4.969-11.222 8.114-14.701 3.146-3.48 8.666-7.009 12.624-8.59 3.958-1.58 5.827-2.43 11.061-2.183M818.763 455.518s9.244 9.201 11.465 12.357c2.22 3.156 3.881 7.228 5.52 10.356 1.64 3.127 5.495 10.73 7.113 15.005 1.618 4.275 4.124 15.421 5.08 21.78.956 6.36 1.816 17.281.883 25.354s-4.335 20.033-7.155 25.822c-2.82 5.79-13.642 19.789-13.642 19.789" transform="matrix(.26458 0 0 .26458 -147.583 -5.762)"/><path style="fill:#2a122d;fill-opacity:0;stroke:#000;stroke-opacity:1" d="M822.053 461.056s-6.54-.677-10.353 1.761c-3.814 2.438-5.235 6.596-5.7 10.95-.466 4.356-.113 9.326 1.617 12.432s5.237 8.549 10.363 10.392c5.125 1.843 9.346 1.377 13.455.69 4.109-.685 9.668-3.764 9.668-3.764" transform="matrix(.26458 0 0 .26458 -147.583 -5.762)"/><path style="fill:#2a122d;fill-opacity:0;stroke:#000;stroke-opacity:1" d="M819.513 478.559s-.392-2.653.892-4.084c1.284-1.43 3.771-.695 5.653.528 1.883 1.223 4.186 2.679 5.31 4.664 1.123 1.985 1.618 4.003.45 5.174-1.17 1.172-3.816.298-3.816.298M866.774 408.073c-3.899 2.07-8.485 6.554-11.34 10.02-2.856 3.468-3.144 4.04-4.443 7.51-1.299 3.471.578 5.974.578 5.974s1.707-.97 3.454-2.022c1.747-1.052 4.432-3.299 5.927-4.224 1.495-.926 4.791-3.294 4.791-3.294M883.293 404.15s3.878 1.846 5.325 3.98c0 0-1.017 1.276-3.316 2.448-2.3 1.172-5.367 3.265-5.367 3.265M919.822 388.81c7.591 1.598 13.454 4.005 13.454 4.005s-4.602 1.587-8.564 2.643c-3.963 1.056-5.992 1.199-5.992 1.199M878.503 448.15s7.356-.95 11.643-2.57c4.286-1.62 5.935-3.121 7.775-4.637 1.84-1.516 3.55-3.68 3.55-3.68s-1.918-.99-3.253-2.175c-1.334-1.184-2.773-3.055-2.773-3.055M922.841 448.018s4.733.627 7.611.071c2.878-.555 4.256-1.768 4.94-3.088.685-1.32.887-3.785.866-5.036-.021-1.251-.286-2.74-1.05-3.881-.766-1.142-2.18-.486-3.184-.52-1.002-.033-3.556.057-5.51-.082-1.956-.139-.104-.159-.771-.48-.667-.321-1.47-1.5-1.47-1.5M927.654 425.825s5.597-.39 7.09-.755c1.493-.365 5.062-1.79 6.239-2.807 1.176-1.017 3.621-2.938 4.397-4.293 0 0-1.942-.785-2.704-1.191-.762-.406-3.52-2.299-3.52-2.299M918.954 466.893s4.003.602 6.876.6c2.874-.002 6.885.186 9.91-.855 3.024-1.041 5.193-2.661 6.85-4.626 1.658-1.964 3.935-5.312 3.935-5.312M934.35 501.634s-1.594 2.616-2.066 4.801c-.472 2.186-.375 4.35-.375 4.35M951.33 496.28s5.027 4.794 6.274 7.4c1.247 2.608 1.99 7.353 1.869 11.286-.122 3.933-.345 9.468-1.586 13.055-1.241 3.586-4.462 10.913-4.462 10.913l-2.12 3.246M953.723 375.27s4.513 7.151 5.44 11.555c.927 4.404.279 7.971 1.08 11.577.8 3.606 2.617 8.395 5.898 12.754 3.28 4.36 9.765 7.744 15.164 9.403 5.399 1.658 12.155-.073 15.707-1.835 3.552-1.762 11.997-7.48 14.049-11.117 2.05-3.637 3.298-9.146 2.877-13.214-.42-4.068-2.201-8.397-4.011-10.883-1.81-2.486-8.082-7.416-8.082-7.416s5.367.77 8.964 2.439c3.598 1.668 7.4 7.422 8.559 9.778 1.16 2.356 2.918 7.27 2.97 12.235.053 4.967-1.832 11.587-3.087 14.644-1.254 3.056-4.681 8.61-6.493 10.326-1.811 1.715-2.94 2.862-2.94 2.862" transform="matrix(.26458 0 0 .26458 -147.583 -5.762)"/><path style="fill:#2a122d;fill-opacity:0;stroke:#000;stroke-opacity:1" d="M985.558 430.11s10.227 1.113 15.836 1.08c5.609-.032 10.704-.453 17.395-2.523 6.69-2.07 12.926-5.482 16.42-8.956 3.494-3.475 4.64-8.265 4.883-12.977.243-4.712-2.655-15.2-3.566-19.607-.91-4.408-2.386-12.043-1.056-18.043s3.15-9.937 6.443-15.107c3.292-5.17 9.831-12.74 12.278-15.147 2.446-2.408 8.312-7.293 12.777-10.452 4.465-3.158 18.56-11.546 23.231-13.31 4.671-1.764 10.997-3.621 17.287-3.974 6.291-.352 11.019 1.815 13.418 5.28 2.4 3.465 1.737 9.618-.629 11.788 0 0 .282-3.712-2.293-5.274-2.576-1.562-7.058-1.957-11.188-1.826-4.131.13-10.708 1.554-18.308 5.198s-10.904 5.21-12.999 7.61c-2.094 2.402-5.156 9.125-6.031 14.273-.876 5.148.302 11.53 2.335 16.25 2.034 4.72 8.396 16.828 11.207 20.156" transform="matrix(.26458 0 0 .26458 -147.583 -5.762)"/><path style="fill:#2a122d;fill-opacity:0;stroke:#000;stroke-opacity:1" d="M1127.672 400.98c1.992-2.691 7.375-7.408 11.988-10.117 4.612-2.709 9.683-5.153 15.55-5.127 5.868.025 12.433 1.529 17.68 4.628 5.245 3.1 10.067 10.387 12.186 13.952 2.119 3.565 4.314 11.848 4.314 11.848s1.37-7.357.913-12.858c-.457-5.5-1.072-9.285-4.974-18.155-3.9-8.87-10.359-13.766-16.46-16.791-6.103-3.026-13.796-5.819-23.27-7.094-9.472-1.274-17.328-1.785-24.767-.517-7.438 1.268-14.396 4.715-20.777 9.094s-15.551 16.12-18.132 20.163c-2.582 4.042-5.562 14.48-6.724 19.507-1.165 5.025-.343 11.17-.01 12.764.333 1.594 2.011 16.581.84 22.058-1.17 5.476-5.236 12.992-9.488 18.013-4.252 5.02-16.97 12.22-21.448 13.996-4.477 1.776-14.732 5.226-25.214 5.133-10.48-.093-19.015-5.145-19.015-5.145s-7.386-3.553-12.574-8.336" transform="matrix(.26458 0 0 .26458 -147.583 -5.762)"/><path style="fill:#2a122d;fill-opacity:0;stroke:#000;stroke-opacity:1" d="M1152.317 371.86c-10.404.637-16.023 7.161-18.264 9.86-2.241 2.698-7.549 8.105-7.952 14.099-.404 5.993-.47 14.136 2.13 21.691 2.601 7.555 8.672 16.7 11.557 20.538 2.884 3.838 6.952 8.443 10.174 13.87 3.223 5.425 4.32 14.8 4.32 14.8M1113.461 499.176s5.416-8.59 14.42-15.78c9.003-7.19 16.984-12.13 26.822-13.55 9.84-1.42 16.04-1.023 26.312 1.518 10.272 2.541 24.14 9.876 31.655 14.701 7.513 4.825 13.454 10.632 20.347 17.251 6.894 6.62 11.22 12.626 14.243 16.036 3.023 3.41 6.145 7.818 10.776 10.28 4.632 2.46 7.24 3.76 12.499 3.88 5.26.12 10.977-1.67 10.977-1.67" transform="matrix(.26458 0 0 .26458 -147.583 -5.762)"/><path style="fill:#2a122d;fill-opacity:0;stroke:#000;stroke-opacity:1" d="M1250.686 520.22s6.227 3.832 12.112 4.678c5.884.846 13.168-.19 18.497-1.6 5.33-1.41 16.246-7.381 21.246-11.005 5-3.624 10.136-11.605 12.632-17.373 2.495-5.768 3.798-14.68 3.185-19.6-.612-4.92-3.215-9.427-5.577-12.147-2.36-2.719-2.847-2.754-2.847-2.754" transform="matrix(.26458 0 0 .26458 -147.583 -5.762)"/><path style="fill:#2a122d;fill-opacity:0;stroke:#000;stroke-opacity:1" d="M1316.36 461.06s-2.776-2.245-6.478-1.963c-3.7.282-5.948-.15-10.144 2.092-4.197 2.242-8.902 5.485-11.613 8.502 0 0-1.306-3.392-.96-6.213.347-2.822 1.516-5.227 4.912-8.634 3.396-3.408 10.343-4.434 14.61-4.293 4.266.14 10.668 1.411 13.396 3.18 2.727 1.768 7.01 5.452 8.861 9.607 1.85 4.155 2.41 12.267 2.143 17.11-.266 4.845-3.905 19.223-6.117 24.852-2.21 5.63-7.882 13.245-12.547 17.743-4.666 4.498-17.875 13.091-25.094 16.048-7.218 2.958-12.36 5.515-19.55 5.229-7.19-.286-14.421-3.749-19.343-6.346-4.923-2.597-15.473-10.912-20.29-16.436-4.815-5.525-9.205-8.257-14.051-11.955-4.846-3.699-18.784-10.36-26.302-11.812-7.519-1.453-13.469-.53-20.577 2.398-7.108 2.927-18.442 12.182-24.099 20.614s-7.03 16.168-10.457 24.552c-3.427 8.385-5.271 12.421-5.271 12.421M962.5 509.843s6.157-2.33 12.688-.74c6.532 1.59 8.153 4.291 9.578 6.017 1.425 1.726 4.211 6.154 4.211 6.154M963.546 578.362s-3.627-5.158-5.515-10.567c-1.888-5.41-3.026-10.616-1.421-16.31 1.605-5.692 6.5-12.563 11.164-16.914 4.664-4.352 12.08-7.987 18.574-9.23 6.493-1.241 11.14-1.366 16.808-.947 5.669.418 14.157 2.427 14.157 2.427" transform="matrix(.26458 0 0 .26458 -147.583 -5.762)"/><path style="fill:#2a122d;fill-opacity:0;stroke:#000;stroke-opacity:1" d="M1009.16 523.44s.339-3.512 3.073-8.212c2.735-4.7 8.397-7.947 13.63-10.36 5.234-2.411 10.493-3.007 15.564-2.236 5.071.771 9.387 2.739 13.23 6.114 3.842 3.375 7.397 7.457 10.4 11.883 3.002 4.425 6.333 10.245 8.088 14.46 1.755 4.216 4.468 11.423 5.203 16.583.736 5.16 1.093 20.728.916 27.228-.178 6.5-1.552 24.035-6.727 37.559 0 0-9.161 4.379-17.745 4.818-8.583.438-20.13.57-26.786-.397-6.656-.968-16.966-4.15-16.966-4.15M1059.829 509.099s-.182-1.864 3.102-2.176c3.284-.312 3.203-.264 5.431 1.18 2.229 1.444 3.137 4.569 3.137 4.569M1067.252 519.039s.178-2.466 2.52-3.944c2.342-1.478 3.276-1.141 5.196-.26 1.92.88 3.03 3.862 3.309 4.77.278.907.576 5.005.576 5.005M1074.197 530.397s.675-3.207 3.304-4.298c2.63-1.09 4.06.753 4.867 1.862.806 1.109 1.603 4.301 1.832 5.981.229 1.68.01 5.042.01 5.042M1079.691 544.092s.787-2.646 3.294-3.153c2.507-.507 3.402-.51 4.348.977.946 1.486 1.312 3.517.785 5.89-.528 2.375-1.802 6.2-2.984 8.02-1.183 1.821-3.499 4.219-3.499 4.219M908.11 570.185s1.557 4.604 1.748 7.782c.19 3.178.88 6.282.43 9.049 0 0 8.018 4.335 13.649 10.699 5.63 6.363 6.5 15.747 5.435 20.532 0 0-9.258-.989-15.212.202M929.43 602.749s1.68-3.06 3.339-3.83c1.658-.771 5.195-1.756 6.725-1.636 1.53.12 5.923-.297 7.086-.882 1.163-.586 4.316-3.069 4.652-3.943.336-.874 1.05-3.838 2.151-5.267 1.1-1.43 2.674-4.001 6.412-4.938 3.738-.936 8.463-1.22 11.603-1.036 3.14.186 8.802 1.7 12.81 3.447 4.01 1.747 9.644 5.083 13.66 8.651 4.016 3.568 7.358 8.955 8.297 14.189.939 5.234.367 12.447-.818 16.508-1.184 4.06-6.064 10.374-9.142 12.832-3.079 2.457-10.252 6.567-10.252 6.567" transform="matrix(.26458 0 0 .26458 -147.583 -5.762)"/><path style="fill:#2a122d;fill-opacity:0;stroke:#000;stroke-opacity:1" d="M968.659 610.733s6.572 5.432 9.335 10.318c2.762 4.886 4.04 13.207 4.669 17.847.628 4.64 1.598 11.178.558 14.842-1.04 3.664-4.407 6.74-7.63 8.969-3.223 2.23-11.012 7.025-14.989 8.584-3.977 1.56-9.408 3.537-11.82 4.021 0 0-2.218 3.105-5.139 5.12-2.92 2.016-8.06 6.026-11.697 6.704-3.637.677-9.765.175-12.718-.296-2.952-.47-10.703-2.913-14.87-4.884-4.165-1.971-10.646-5.082-14.106-8.006-3.46-2.924-8.407-9.193-9.293-11.673l-.17-1.32" transform="matrix(.26458 0 0 .26458 -147.583 -5.762)"/><path style="fill:#2a122d;fill-opacity:0;stroke:#000;stroke-opacity:1" d="M887.883 662.672s-8.378-3.91-14.14-8.095c-5.761-4.185-6.786-5.974-8.419-8.573-1.632-2.599-3.212-8.375-3.64-10.386-.426-2.011.14-.838-1.448-1.76-1.59-.924-3.573-5.033-3.795-6.96M947.423 674.406s1.548-8.534 1.912-12.602c.365-4.067.407-9.93.1-12.885-.306-2.956-2.46-7.338-2.46-7.338M973.3 579.632s-1.2-7.916-1.226-11.871c-.025-3.956 1.356-7.991 2.77-10.88 1.413-2.89 2.843-6.643 5.492-7.315 2.648-.672 4.385-.507 5.237.45.85.957 1.932 3.567 1.863 5.953-.069 2.387-1.197 3.146-1.271 4.871-.074 1.726-.072 3.434.617 3.584.689.15 3.38-3.76 3.75-4.474.37-.714 3.896-5.146 6.357-7.198 2.461-2.05 7.335-5.981 10.455-7.435 3.12-1.454 8.484-4.369 12.24-3.648 3.757.721 4.523 2.121 4.766 4.195.244 2.073-2.164 5.172-4.574 6.683-2.411 1.511-4.72 2.367-6.936 4.55-2.216 2.181-4.16 4.306-5.42 6.712-1.26 2.406-2.827 3.242-1.86 4.485.966 1.244 4.073.17 6.436-2.204 2.362-2.374 6.953-5.13 8.622-5.997 1.668-.868 13.161-6.71 16.087-3.886s.932 6.352-1.475 8.608c-2.407 2.255-5.524 5.12-8.664 7.171-3.14 2.052-8.406 5.997-8.406 5.997M1037.755 564.453s2.366-.695 3.27 2.909c.905 3.604-1.741 7.093-4.055 8.933-2.313 1.84-3.647 4.55-12.75 10.16M1009.247 611.761s6.121-5.452 8.097-7.515c1.975-2.064 3.39-3.298 6.087-3.518 2.697-.22 5.652.372 8.03-1.17 2.38-1.541 5.04-2.54 7.084-5.219 2.043-2.678 6.207-7.559 4.822-10.62-1.385-3.06-4.426-2.276-7.085-1.112-2.66 1.164-3.925 2.904-6.319 3.376-2.393.472-1.866-.04-1.866-.04" transform="matrix(.26458 0 0 .26458 -147.583 -5.762)"/><path style="fill:#2a122d;fill-opacity:0;stroke:#000;stroke-opacity:1" d="M897.633 681.586s.231 7.123 5.365 11.05c5.134 3.925 8.243 6.999 14.339 7.816 0 0 1.023 8.92 8.352 15.193 7.329 6.273 9.344 10.852 22.055 16.31 12.711 5.456 23.85 5.797 30.304 5.482 6.453-.315 15.894-.965 20.846-3.061 4.951-2.097 6.774-3.006 5.825-5.573-.948-2.566-5.362-7.008-8.669-12.484-3.307-5.477-9.654-16.234-10.814-22.334-1.161-6.1-.415-17.478 8.77-30.34 9.184-12.864 18.056-21.662 20.341-23.86 2.285-2.2 11.411-12.34 16.764-16.421M1006.764 727.4s63.545-14.248 79.367-22.434M1082.744 696.69s2.322 6.636 12.318 9.832M1086.824 671.844s-.755 13.636 5.555 25.298c6.31 11.662 13.822 18.614 23.18 24.953 9.357 6.34 32.342 16.294 37.653 18.43 5.312 2.137 8.069 8.215 9.43 11.21" transform="matrix(.26458 0 0 .26458 -147.583 -5.762)"/><path style="fill:#2a122d;fill-opacity:0;stroke:#000;stroke-opacity:1" d="M1165.388 741.867s-2.364 10.81-.04 17.126c2.325 6.317 6.11 8.334 8.058 8.978 1.948.644 5.35 2.854 7.202 1.22 1.852-1.634 1.344-4.197 1.742-9.376.399-5.18-1.24-17.256 2.269-29.012 0 0 .383-2.777 7.44-5.1 7.06-2.324 15.726-3.651 17.501-4.32 1.775-.668 5.005-1.886 4.97-3.809-.035-1.923.922-2.826-2.586-4.686-3.507-1.86-12.363-4.008-14.968-6.795-2.606-2.786-.346-5.742-3.372-9.223-3.025-3.482-6.458-2.443-7.777-2.948-1.319-.504-13.257-19.786-16.432-24.119-3.176-4.333-22.243-29.508-22.76-30.707-.517-1.199-3.646-5.598-8.9-9.295-5.253-3.697-9.472-6.066-13.613-6.557-4.14-.492-27.42-.092-37.833.364-10.413.457-40.038 4.133-49.234 8.873M992.057 701.422s31.969-5.795 45.013-8.6c13.044-2.803 21.493-4.53 25.429-6.048 3.936-1.519 7.842-2.83 8.917-4.168 0 0 .995 1.587 2.682 1.286 0 0-4.224 3.417-.818 5.956 3.405 2.54 6.19-2.722 7.052-4.095.863-1.373 1.88-3.553 1.696-5.14M1184.304 766.885s18.928 14.098 22.265 17.761c3.337 3.664 10.025 8.617 12.63 11.55 2.604 2.932 5.108 7.073 9.245 10.08 4.137 3.008 28.86 8.353 33.326 7.656 4.466-.696 19.33-10.477 20.995-15.86 1.664-5.382.312-17.735-1.675-23.298-1.987-5.564-6.977-11.222-9.721-13.43-2.744-2.21-17.45-10.032-22.854-12.294-5.404-2.261-5.603-5.252-8.951-8.712-3.348-3.46-12.305-9.362-15.01-11.302-2.704-1.94-9.597-8.139-9.597-8.139M1267.232 756.376s2.944 1.036 4.388-1.638c1.445-2.675 2.254-3.619 1.739-7.18-.515-3.562-4.782-5.145-7.823-6.722-3.04-1.577-6.766-2.352-9.2-4.27-2.433-1.918-7.207-7.69-9.146-11.09-1.939-3.4-8.853-10.117-10.913-11.852-2.06-1.735-8.773-6.948-10.351-8.418-1.578-1.47-4.471-3.97-4.471-3.97" transform="matrix(.26458 0 0 .26458 -147.583 -5.762)"/><path style="fill:#2a122d;fill-opacity:0;stroke:#000;stroke-opacity:1" d="M1203.024 707.192s.01-1.698.63-2.666c.622-.968 7.693-3.006 9.487-3.476 1.793-.469 5.035-1.585 6.489-3.46 1.453-1.874.794-3.227.269-5.514-.525-2.286-5.043-4.024-6.568-4.639-1.526-.614-3.95-2.212-4.318-4.118-.369-1.905 4.719-4.844 4.62-6.704-.1-1.86-.902-5.336-4.483-7.87 0 0-1.276-1.99-1.974-4.33-.697-2.341-17.215-58.903-20.997-70.624-3.782-11.722-8.608-21.352-12.224-26.97-3.616-5.616-5.395-6.307-12.686-8.833-7.291-2.527-13.92-2.158-21.493-.607-7.572 1.551-39.16 11.17-57.075 23.5" transform="matrix(.26458 0 0 .26458 -147.583 -5.762)"/><path style="fill:#2a122d;fill-opacity:0;stroke:#000;stroke-opacity:1" d="M1132.333 578.998s-6.565 7.575-6.117 22.663c.45 15.087 1.243 19.77 1.243 19.77M1095.837 681.46s7.766 10.684 14.274 14.94c6.51 4.257 17.992 9.517 23.05 11.197 5.06 1.68 19.24 8.187 21.98 9.179 2.74.992 9.31 4.053 8.99 9.134M886.422 674.717s-9.514 7.485-8.528 20.572c.986 13.087 10.29 23.176 10.29 23.176" transform="matrix(.26458 0 0 .26458 -147.583 -5.762)"/><path style="fill:#2a122d;fill-opacity:0;stroke:#000;stroke-opacity:1" d="M855.825 691.26s3.829 12.597 24.349 25.818c20.52 13.222 31.849 15.38 43.061 20.328 11.213 4.948 30.722 17.21 44.792 29.577 14.07 12.368 21.615 20.742 27.981 37.613 6.366 16.87 5.937 43.933-1.01 59.58-6.945 15.648-26.432 39.606-43.319 48.284-16.887 8.677-37.05 8.11-37.05 8.11s18.896-8.045 29.188-22.079c10.293-14.033 13.694-38.605 7.577-57.04-6.117-18.435-22.846-41.748-22.846-41.748" transform="matrix(.26458 0 0 .26458 -147.583 -5.762)"/><path style="fill:#2a122d;fill-opacity:0;stroke:#000;stroke-opacity:1" d="M961.858 830.034s-7.799-13.944-27.55-29.234c-19.752-15.29-14.959-9.205-31.073-20.236-16.114-11.032-31.85-23.27-46.8-42.095-14.952-18.825-21.648-35.083-24.603-54.989-2.955-19.905-.267-27.92-.267-27.92M847.906 436.202s18.563 12.152 23.463 18.343c4.9 6.19 10.291 13.351 11.82 28.505 1.53 15.154 1.698 22.778-2.153 24.913" transform="matrix(.26458 0 0 .26458 -147.583 -5.762)"/><path style="fill:#2a122d;fill-opacity:0;stroke:#000;stroke-opacity:1" d="M850.688 465.339s21.973 26.751 27.384 43.967c5.411 17.215 8.716 45.362 4.421 67.451-4.295 22.09-10.523 30.701-16.145 37.578-5.622 6.877-16.782 14.723-26.703 24.283-9.922 9.56-19.333 22.495-24.405 47.67-5.072 25.176.774 50.58 8.727 60.177 7.954 9.596 19.095 12.161 26.873 25.472 7.778 13.31 4.904 36.574-8.635 43.866 0 0 3.737-9.62 1.88-20.019-1.858-10.398-13.707-18.238-20.632-21.025-6.925-2.787-20.575-6.055-34.598-20.338-14.024-14.283-25.389-34.076-26.433-66.226-1.044-32.15 6.897-46.742 17.239-64.128 10.341-17.386 14.445-22.94 35.67-31.097 21.224-8.155 32.407-7.853 41.15-24.747M754.635 611.624s-5.78 22.858 11.057 34.02" transform="matrix(.26458 0 0 .26458 -147.583 -5.762)"/><path style="fill:#2a122d;fill-opacity:0;stroke:#000;stroke-opacity:1" d="M805.758 520.971s-1.978 30.7-16.212 51.763c-14.234 21.064-26.553 31.675-45.505 39.56-18.952 7.886-43.785 8.257-80.55 6.747-36.763-1.51-47.294 36.724-47.462 47.415-.17 10.692 3.882 33.425 18.472 44.752 14.589 11.327 34.299 20.118 42.403 32.703 8.103 12.585 13.497 31.637 7.291 48.723-6.205 17.085-30.196 36.17-52.143 43.743-21.946 7.573-20.678 36.371-20.678 36.371" transform="matrix(.26458 0 0 .26458 -147.583 -5.762)"/><path style="fill:#2a122d;fill-opacity:0;stroke:#000;stroke-opacity:1" d="M647.8 624.374s6.783 7.397 24.692 7.884c17.91.487 31.385 3.187 38.65 14.078 7.265 10.89 5.149 21.044 1.36 27.892-3.79 6.847-18.234 10.777-18.2 26.384.033 15.608 11.307 25.057 23.925 25.608 0 0-4.946-5.78-4.96-16.58-.013-10.8 14.932-16.313 20.607-22.224 5.676-5.91 12.586-20.297 6.353-40.22-6.233-19.925-16.745-20.49-21.262-20.72-4.517-.23-9.016-.573-13.57-4.998M610.545 582.26s-9.49-12.163-8.943-31.601c.547-19.438 19.24-39.962 35.704-52.38 16.464-12.417 29.31-13.592 43.607-12.28 14.297 1.313 27.093 6.153 39.329 14.491 12.236 8.339 14.455 12.294 26.725 12.895 12.27.601 17.202-2.626 21.023-5.272 3.82-2.646 7.698-11.215 7.698-11.215M689.146 558.459s.13-10.675 9.95-15.07c9.822-4.396 13.843-3.19 17.658-1.981 3.816 1.208 9.004 8.61 11.28 10.267 2.276 1.658 6.952 4.813 9.621 5.449M818.033 681.482s3.17 5.765 12.04 3.128M949.817 710.093s-3.732-17.63 3.755-28.323M917.5 644.973s-4.665-7.313-1.502-14.962c3.163-7.65 11.252-6.469 11.252-6.469M1208.628 783.332s23.411 9.851 26.38 11.8c0 0 4.932-5.88 11.947-12.48 7.014-6.602 11.412-10.122 12.142-13.211.73-3.09 1.591-2.587 1.291-4.147-.3-1.56-3.614-6.057-5.67-7.642-2.054-1.585-4.422-5.696-4.422-5.696" transform="matrix(.26458 0 0 .26458 -147.583 -5.762)"/><path style="fill:#2a122d;fill-opacity:0;stroke:#000;stroke-opacity:1" d="M1220.429 776.022s-.18-3.065 1.366-6.331c1.544-3.267 8.707-14.239 13.097-15.74 0 0 3.05-.975 6.048 5.636 2.998 6.612-12.193 19.551-15.472 19.678-3.278.126-5.04-3.243-5.04-3.243zM1204.085 762.128s.262-4.826 6.54-12.37c6.28-7.544 7.264-9.927 8.946-9.731 1.682.196 7.146 4.28 7.261 5.66.116 1.38-11.683 20.195-17.446 21.531-5.762 1.336-5.3-5.09-5.3-5.09zM1240.943 738.567s3.412-5.254 8.685-6.559M1239.862 720.276s-6.214 6.61-7.689 6.63c-1.475.02-6.81-3.41-7.44-4.797-.629-1.387 5.684-8.886 7.69-10.012M1224.654 706.397c-2.19.505-3.157 2.685-3.903 3.613-.746.927-3.031 3.502-3.611 3.699-.58.196-1.611.283-1.611.283" transform="matrix(.26458 0 0 .26458 -147.583 -5.762)"/></g></svg>