<svg width="297mm" height="210mm" viewBox="0 0 297 210" xmlns="http://www.w3.org/2000/svg"><path style="fill:#000;stroke-width:.264583" d="M62.9 178.3c-4-.4-8-1-8.8-1.5-.5-.2-1.3-1-2-1.5L51 174l.4-.7c.5-.9 1.5-1.6 5-3.4a67.4 67.4 0 0 0 15.7-10.7 90.7 90.7 0 0 1-20.1 5.2c-3.2.5-14.9.7-15.6.2l-2.5-1.2c-2.5-1-3.8-2.1-4-3.6-.1-1.2 0-1.5 1.7-2 1-.3 1-.3.4-.5-.5 0 0-.3 2-1.3 3.7-1.7 7.9-3.9 10-5.2l1.8-1.1-4.5.1c-4.3.2-4.6.1-9-.8a34.7 34.7 0 0 1-15.6-6.5c-.7 0-.3-.6 1.6-2.4 2.9-3 7.8-6 13.1-8.3l1.7-.7-3.4-1.7c-8-4-11.3-6.2-15.3-10.3-2.4-2.5-3-3.3-3-3.9 0-.4-.2-.8-.3-.9-.4-.2-.4-1 0-1.8.3-.6.4-.6 3.8-.8l3.8-.2c1.8.2 10.2.5 10.4.4.2-.1 0-.3-.5-.6-1.7-.8-5.3-3.2-5.9-3.9-.6-.7-.6-.7.5.1 3.4 2.3 6.2 3.6 7.8 3.9.5 0-.5-.5-2.7-1.6-2-1-4.3-2.2-5-2.8-1.8-1.1-2.2-1.3-1.6-.6.3.5.3.5-.1.1-.3-.1-.4-.4-.3-.5a57.2 57.2 0 0 1-6-5.7l-.6-.7.6.2c.6.1.6.1.3-.3-.3-.2-.7-.5-1-.5-.4 0-1-.5-1.4-1-.9-1-1-1.5-.3-1 .4.4.4.3 0 0-.1-.3-.4-.5-.5-.4l-.4-.1v-.3c.2 0 0-.8-.6-1.8-.6-1.3-.8-1.9-.6-2.2.2-.3.3-.8.3-1.1 0-.4.3-1 .6-1.4l.6-.7 2.1.5c1.2.3 3.8 1 5.9 1.8a47 47 0 0 0 11.1 2.1c2.5.2 2.5.2-2.6-2.8A94 94 0 0 1 16 81.5a19.4 19.4 0 0 1-4.3-5.5 6 6 0 0 0-.4-1.2c-.3-.8-.3-1 0-1.6l.3-.6.1.6c0 .4.3.6.7.6a378.2 378.2 0 0 1 13.4.3c-.5-.1-.8-.2-.5-.3.3 0 .3 0-.1-.3-.3-.1-3.3-.4-6.7-.6-3.4-.1-6.1-.3-6-.4.4-.4 4.3-.8 7.3-.8a115.6 115.6 0 0 1 28.8 4.5c3.4.7 8.6 2.4 14.5 4.6 2.6 1 5.6 2.2 13.7 5.8l4.7 2c0-.1-1-.7-2.4-1.3l-2.4-1.2c0-.1.5 0 1 .3l1.2.3-1.7-.8-1.6-.9 5.5 2 6.7 2.7c1.4.6 5.6 1.3 7.5 1.3 1 0 1 0 1-.4-.2-.4 0-.4.6.1l1.2.5c.2-.1.2-.2 0-.2s-.3-.1-.3-.2c0-.2.7 0 1.5.3 1.3.4 1.8.7 2.4 1.7l1.5 1.5 1 1c.3 1 4.7 6 8.4 9.7 3.8 3.7 6.9 6.4 9 7.8 1.4.9 6 2.7 6.3 2.4l.1-.9c0-.5.1-.7.3-.6.1 0 .1 0 0-.2-.2-.3.8-2.2 2-3.4l.8-.9-1.2-1.3c-.7-.7-1.7-2.2-2.2-3.4-.9-1.8-1-2.2-1-4.1.1-3 1-5.3 3.2-8.3 1.7-2.3 3-3.5 3.8-3.6l1-.3c.3-.1.4 0 .2.5a9 9 0 0 0 1 4.5l.4.7.2-1.2c.2-1.6 1.5-5 1.9-5 .1.1.8-.4 1.5-1.1 1-1 1.3-1.2 1.7-1 .3.2.5.7.5 1.3.2 1.7.3 2.2 1.2 3.2l.8.9 2-1.5c2-1.4 4.3-2.5 5.5-2.5h.7l-.2 2.6c-.1 2.7 0 3 .8 3.4.8.2 1.7-.6 2.7-2.3.6-1.2.8-1.8.9-3.8.1-2.3.1-2.4.8-2.5.5 0 1.3.3 2.4 1 3.6 2.5 5.8 5.4 5.4 7.3l-.2.8.8-1c.5-.4 1.2-1.5 1.7-2.3.7-1.4.7-1.8.7-4.4 0-1.8-.1-3.3-.4-4.3-.5-2-.5-2 1.6-2.1 1.3 0 1.8 0 3.4 1 2.2 1.2 4.1 3.1 5 4.9.3.7.7 1.2.8 1.2.5 0 1.3-2.4 1.2-3.5 0-1 0-1.1.6-1.2 1.9-.3 4.2 1.5 4.8 3.7l.4 1.2c.1.2 2.2-1.3 2.6-1.8.4-.7 1.5-4.6 1.5-5.5 0-1 1-.3 2.6 1.6 1 1 2 2.7 2.5 3.6.8 1.6.8 2 .8 4.4 0 2-.1 3.1-.5 4.2a16 16 0 0 1-3.5 5.7l-1 .8 1.7.8 1.6.8 1.1-.6c1-.5 1.3-.9 2.3-3 2.7-5.5 3.4-7.6 4.2-12 .3-2.4.7-5 .7-6 .1-1.3.2-1.7 1-2.7.9-.9 1-1 .6-1-.3 0 0-.4.8-1 2.7-1.8 3.1-2.2 5.3-5 1.2-1.6 3.5-4.3 5.1-6 2.9-3.2 4.2-4.9 7.2-9.2 3.7-5.2 7.2-9.4 12.3-14.5A92.7 92.7 0 0 1 250.2 27v-.4c0-.1.2 0 .3.2.2.4.3.4.3 0 0-.5 2-1.5 4.9-2.7a25.3 25.3 0 0 1 6.6-2.4v.3c0 .2.1.4.5.5.6.1.7.3.7 1.4l-.5 3.7c-.7 3-.7 3.2 0 1.5l.5-1.4-.2 1.4c-.2 1.8-1.2 4.6-3 8.6-.9 2-1.4 3.4-1.2 3.3.2 0 2.8-2 5.8-4.1a98.3 98.3 0 0 1 6.3-4.2c1.2-.4 2.5 5.2 1.8 7.7l-.3 1.9-.9 3.9c-1 3.2-3.4 8.6-4.8 10.5-.8 1-.6 1 1.6-.6 4.4-3 10.4-6.2 10.8-5.8.4.4.8 3.6.7 5.1a55 55 0 0 1-5.4 13.9c-.7 1-.8 1.6-.2 1.3.8-.3 8.3-1.3 8.4-1.1l-.2 1c-.3.4-.4.9-.3 1 0 0-.5.3-1.2.4-4.3 1-7.3 1.6-10.1 2.4l-3.1.8-3.8 3.1a45.7 45.7 0 0 1-12.5 8c-2 1-2.4.8-.5-.1 1.6-.8 3.4-2.1 2.4-1.7a46.9 46.9 0 0 1-10 2.5h-1.2l-.2 1.2c-.4 2.3-3 5.2-6.2 7-1.4.8-.7 1.2 1.9 1a80.7 80.7 0 0 1 9.2 0c2.2 0 3.7-.1 5.5-.5 2.7-.6 4.2-.9 3.4-.6-.3 0-.8.3-1.2.5l-.7.4h.7c.4 0 1.2-.2 1.7-.5 1-.3 1-.4.5-.6-.4-.2-.3-.2.4-.1h.6c-.2-.2.4-.5 1.8-1 7.2-2 11.6-5 17-11 1.1-1.4 1.2-1.4.7-.5l-.4 1c.3 0 3-3.8 4.1-5.8 1.6-2.7 2.2-4.5 2-5.5-.2-.8.4-1.4 1.5-1.4.9 0 .9.2.4 2.6A29.4 29.4 0 0 1 275 89l-1 .7 4.7-.1 6.1-.3c1.8-.3 2.3 0 2.1 1.4-.3 1.7-1.5 3.5-3.9 6a88.2 88.2 0 0 1-12.1 9.8c-1.7 1-2.1 1.4-1.4 1.5 1.1 0-5.4 2.7-8.3 3.4-2.4.6-1.7.8 4.7 1.4 6 .6 9.1 1 8.8 1.2-.2 0 0 .3.5.5.5.3 1 .5 1.1.4.3-.1 1 1 1 1.6 0 .5-2 2-5 3.8a28.8 28.8 0 0 1-10.7 4c-4.9 1.2-4.9 1.2-10 1.2a29 29 0 0 1-8-.5 45 45 0 0 1-9.5-3c0 .2 0 .3 3.5 3.5 2.6 2.4 4.8 5 4.2 5-.1 0-.5-.4-.7-.9-.4-.6-.9-1-.9-.7l1.5 2c1.5 1.8 2.5 3.4 2.5 4.1 0 1.1-3.8 2-7.5 1.7a45 45 0 0 1-12.9-3.5c0 .3 2.1 3.9 2.6 4.5.4.5.5 1 .4 2.4 0 1.5 0 1.7.3 1.6.6-.2.5.2-.1.8-.7.6-2.8.8-4.8.4s-5.6-2-7.7-3.3l-1.7-.9c-.1.1 0 .8.1 1.5.4 1.7.4 4.4 0 5-.1.3-.4.6-.7.6-.7 0-4-1.7-5.4-2.8-.8-.5-1.5-1-1.8-1-.4-.1-1.8-1.7-3.2-4a5 5 0 0 0-1-1.2l-1.2 1.6a100 100 0 0 0-6 13.3 42.7 42.7 0 0 1-5.2 10.5c-1.5 2.1-1.7 2.4-1.5 1.6.1-.2-.4.2-1 .9l-1.1 1c.1-.3-.4 0-1.2.6-.8.7-2.3 1.5-3.6 2-2.3.8-2.6.8-7 1-4 0-4.6 0-5.6-.5-.6-.3-2-.8-3-1-1.5-.5-2.8-1.2-5.3-2.8l-3.6-2.5c.6.2.5 0-.2-.6-1.2-1-2.7-1.8-3.2-1.6-.2 0-.3 0-.2-.2.2-.2 0-.2-.2-.1-.2 0-.5 0-.6-.3 0-.2-.2-.4-.4-.3 0 .1-.2 0-.2 0 0-.2-.3-.5-.7-.7l-1-.4-.3 1.5c0 1.2-.3 1.6-.6 1.8-1 .5-1 .5-4.3-1.6l-1.2-.7v1.1c-.2 3.5-1.4 9.2-2 9.7-.7.5-2.2-.4-3.7-2.1-2.6-3-4.3-4.8-4.6-4.8-.2 0-.5.2-.5.5-.3.9-1.5 3-3.4 6-1.8 2.7-3 4-4.7 4.9-.5.3-.6.3-.4-.2l.4-1c0-.3.6-1.1 1-1.8 2-2.7 3.2-5.8 4.4-11.6 0-.3-.2-.7-1-1-1-.6-1.2-.7-1.7-.4-.6.3-.6.3.3 1 1.4.7 1 1-.4.2-1-.5-1.2-.6-2-.3-1.4.4-1.6.4-.9-.1.6-.4.6-.5.1-.8-.9-.6-3.3-1.5-3.5-1.3l-.4.8c-.1.5 0 .7 1.3 1.5 1.9 1 1.8 1.2-.1.3-.8-.3-1.5-.6-1.6-.5-.4.2 0 6.6.4 7.7a388.4 388.4 0 0 0 2.5 6.3c0 .1-.3.2-.7.2-.4 0-.9 0-1 .2-.5.5-.8.2-1.4-1.2-.7-1.4-1.9-6.4-1.9-7.8v-.9l-.5 1a26 26 0 0 1-15.1 12.1c-.2 0 .3-.4 1.2-1 1.9-1 1.7-1.2-.2-.2-.8.4-1.8.9-2.4 1l-1 .4-.5-1c-.5-1-.6-1.6-.6-6 0-4.8.2-6.8 1.2-9.6.3-.7.4-1 .2-1 0 .2-1 1.3-2 2.6a48.8 48.8 0 0 1-23.8 15.6c-2.4.6-7 .9-10.5.5zm5-.5c2.4-.3 6-1 5.8-1.2 0 0-1.2 0-2.6.3-4.5.7-11.7.4-15.7-.7-1.1-.3-1.6-.1-1 .3.5.2 2.9.7 6.8 1.1 3.8.5 4.1.5 6.8.2zm2-2.8 2.6-.6a41.8 41.8 0 0 0 17.2-9.5c3.3-2.8 4.2-3.6 7-7.1l3.8-4.6.7-.6-.7.2c-1 .2-8.3.5-9.4.3-.5-.1-1.2-.4-1.5-.7-.5-.6-.7-2.1-.2-3 .5-1-.4-.5-2.6 1.2a72.9 72.9 0 0 1-4 3.2 51.7 51.7 0 0 1-11.2 9.6c-2.8 1.8-9.4 5.5-13.9 7.8-4.7 2.3-5.3 2.8-5 3.5 0 .3.4.6.7.8h7.3c4.9 0 7.3-.1 9.1-.5zm8.4-3.7 1.6-1c1-.4 2.2-1.1 2.9-1.6a139.4 139.4 0 0 0 12.4-9.8c.2.2-4.3 4.6-6.5 6.3-2.4 1.9-5.6 4-6.9 4.7a16 16 0 0 1-3.5 1.4zM85 165l3.4-3c2-2 3.1-2.7 3.1-2 0 .7-.6 1.4-2.5 3-1.8 1.4-4.3 2.9-4.8 2.9l.8-.9zm-9.4 10.2H75c-.3.1-.2.2.1.2.3 0 .4 0 .4-.2zm1.7-.2a1 1 0 0 0-.7 0l.4.1c.3 0 .5 0 .3-.1zm26.6-1.7c1.8-.8 2.5-1.3 4.3-3a41.8 41.8 0 0 0 8.2-12c0-.2-.4-.6-.9-.8-.7-.3-.7-.4-.2-.3l1 .2c.3.1.6-.3.8-1.2.2-.8.4-1.5.3-1.6 0 0-1.1.3-2.4.9-4.1 1.8-6.7 2.1-7.5 1-.5-.7-.5-2.2 0-4.2l.4-1.7c0-.3-2 1.4-2.4 2-1.6 3-3.5 7.2-4.3 9.6a37 37 0 0 0-1.8 10.1c0 2.7.5 2.8 4.5 1zm-3.5-2.2c.3-4.2.6-5 .5-1.1l-.1 3.5h-.3c-.2 0-.3-.7-.1-2.4zM139 164c.6-4.1.6-6 .2-7.4l-.7-1.6c-.2-.3-2.5 2.4-2.5 2.8 0 .2-.1.3-.3.3l-.8.3c-.5.3-.5.3 0 1.2 1.6 2.7 2 3.6 2 4 0 .5 0 .4-.8-.3l-.9-.7.6.9c.5 1 2.4 2.7 2.7 2.5l.5-2zm35.9 1.7v-.5c-.2-.2-1.2.2-1.2.4s-.2.3-.4.3c-.5 0-.5-.3.1-1 .5-.6.5-.7.2-1.4-.3-.5-.6-.8-1-.8s-1.6 0-2.7-.2l-2-.1.2.6.3 1c.2 0 .1.4-.1.7-.3.4-.5.4-.7.2a.7.7 0 0 0-.7-.2c-.3.2-.3.3.1.6.8.8 1 .8 4.5.8 2.7 0 3.2 0 3.4-.4zm-3.1 0h.5c0 .1 0 .2-.3.2-.4 0-.4-.1-.2-.2zm-1.3-.3c0-.2.2-.2.4-.1l.4.2-.4.1-.4-.2zm8.7-.5h-.3c-.3 0-.4 0-.4.2 0 .1.1.2.4 0 .2 0 .3-.1.3-.2zm-1.4-.5c.6-.2 1-.5 1-.9 0-.5-1.1-3-1.4-3-.4 0-1.6 2.5-1.6 3.2 0 1.2.4 1.4 2 .7zm-10.2-.5c0-.2-.1-.4-.3-.4l-.2.4.2.4c.2 0 .3-.2.3-.4zm-130.3-.4c0-.2-.5-.5-1-.7l-.9-.4.7.7c.6.6 1.5 1 1.2.4zm148-3.1.7-1.4c.1-.4.5-1 .9-1.6a25 25 0 0 0 2.7-4.3 38.8 38.8 0 0 0 3-8.1c.5-.5 1.3-2.4 1.1-2.6l-.9 1.2c-.4.7-.8 1.3-1 1.3l-.1.4c0 .6-2 4.2-2.3 4.2-.2 0-.4.2-.4.4 0 .3-.3-.2-.5-1-.2-1-.4-1.5-.6-1.4-.5.3-2 3-2 3.6 0 .4.2 1 .5 1.2.5.6.5 1.7 0 1.7-.2 0-.3.1-.3.4l-.6 1.3c-1 1.4-1.1 2.1-.6 2.7.6.5.5.9-.1 1-.4.1-.5.3-.4.6 0 .2-.1.1-.5-.2-.7-.7-.9-1.4-.4-1.7v-1.2c-.2-.6-.3-1.7-.3-2.5s-.2-1.5-.3-1.5l-.2.4c0 .2-.4 1.3-1 2.5-1 2.4-1 2.5-.8 4.3v.7a1 1 0 0 0-.5-.6c-.3-.1-.4 0-.2.3.4 1.1.6 2.3.3 2.5-.2.1 0 .3.2.4.4.2.9 0 2.3-1 1-.7 2-1.6 2.3-2zm-4 0c0-.4.8-.4 1-.1 0 0-.1.2-.4.2-.3 0-.5 0-.5-.2zm1.4-.6c0-.2.1-.3.3-.3.1 0 .2.1.2.3l-.2.3a.3.3 0 0 1-.3-.3zm-129.8 3c3-.6 10.8-2.9 15.5-4.4 5-1.8 8.5-3.3 11.3-5 2.9-1.7 9-6.5 9-7h-1.6c-2.4.3-8.3-.3-10.4-1-.6-.2.6-4 2-6.2l.7-1.5-2.3 1c-1.5.7-2.2 1.3-2.3 1.6 0 .6 0 .6 1.6-.2 2.3-1.2.8 0-1.8 1.4-7 3.8-12.8 5.7-23.8 7.9a2 2 0 0 0-1 .5c-.3.4-.3.4.3.1a81.7 81.7 0 0 1-12.7 6.8c-2.7 1.2-3.7 1.8-3.7 2.4 0 .5 1.1 1.7 2.1 2.2.6.3.6.3.5-.3-.1-.5 0-.5.7.2.8.9 1.5 1.1 1.5.6l-.9-.9-.6-.7 1.2 1 1.1 1 4.4-.2c4.2-.2 10.8-1 15.2-2 4-.8 2.7-.1-2 1a74 74 0 0 1-11.6 1.9l-2.7.2h4.2c2.9 0 4.8 0 6.1-.4zm20.8-2.5c2.6-1.8 6.4-5.2 4.9-4.3-.5.2-1.1.7-1.5 1a103.4 103.4 0 0 1-6.6 5.2c-.9.8-.9.8-.1.4l3.3-2.3zm92.5 1.6c.7-.7.4-1.7-1-3s-3.8-2.6-4.1-2.2c-.2.2.4 1.7 1.3 3 .5.7 2.8 2.5 3.2 2.5l.6-.3zm-5-.3c0-.2 0-.2-.2-.1s-.4 0-.5-.4c0-.3-.3-.5-.5-.4-.2 0-.4 0-.5-.2-.1-.2 0-.2.2 0 .3.2.3.1 0-.3a.9.9 0 0 0-1-.3c-.2 0-.8 0-1.3-.3-1.4-.7-.2.2 1.7 1.3 2 1.2 1.8 1 2 .7zm13.6-1.4c.5-.7 0-2.2-1.2-3.7a7.1 7.1 0 0 1-1.2-1.7c0-.2-.2-.3-.3-.3-.2 0-.3.3-.2 1l.2 2.5c0 1 .1 1.6.5 2 .7.7 1.7.8 2.2.2zm-74.5-4.7c.6-.9 1.2-1.8 1.2-2.1 0-.5-.3-.2-1 .8l-2 2.9c-2.4 3-2.6 3.3-1 1.6l2.8-3.2zm79.5 4-.1-.5-.3.5.1.6c.2 0 .3-.3.3-.6zm-24-.9c-.5-.4-.6-.6-.4-.8.5-.3.3-.5-.4-.6-.7 0-1.5-.6-1.3-.8l-.1-.5c-.2-.1-.3-.4-.3-.5.1-.6 0-1-.4-.8-.3 0-.5-.1-.5-.4 0-.6-.4-1-1.2-1.2-.4 0-.8-.3-.8-.5 0-.5-1-1.3-2.8-2.1a78 78 0 0 1-1.7-.9c-.3-.1-.8 1.3-.6 1.7 0 .2.9.8 1.8 1.5 1 .6 1.7 1.2 1.8 1.4 0 .2.9.9 1.8 1.5l1.8 1.3c.2.2 3.8 2.4 4 2.4l-.6-.7zm28.6 0c0-.3-.2-.4-.3-.3v.5l.4.4v-.6zm-82.5-2.2c-.2-.2-1 1.5-1 2 0 .3.3 0 .6-.7.3-.6.4-1.2.4-1.3zm27.2 1.9c.2-.6-.3-.9-1.1-.5l-.6.2.6.4c.8.4.9.4 1-.1zm-54.1-.5-.5.1-.6.5.6-.2c.3-.1.5-.3.5-.4zm44-.9c-.2-.2-.3 0-.5 1l-.1.7.4-.8c.2-.4.3-.8.2-.9zm15 1c.2-.5 0-.8-.3-.8l-.2.6c0 .6.4.7.6.1zm11.5-.8c0-.5-.5-1.6-.8-2.4-.7-1.5-.7-1.5-2.6-2.1l-2.1-.6.1 1c.2.5.4.6.7.5.4 0 .4 0 .1.2-.3.2-.3.3 0 1l.4 1c0 .1.3.4.8.6l.9.6c.2.2 2.1 1 2.5 1 0 0 .1-.3 0-.8zm-2.7-2.6-.6-.4c0-.2.4-.1 1 .3.5.4.5.4-.4 0zm-20.7 2.6c0-.1-.1-.2-.3-.2l-.2.2c0 .2 0 .3.2.3s.3-.1.3-.3zm8.1-.3c0-.2-.1-.1-.1.2 0 .3 0 .4.1.3v-.5zm-8.9-.3c0-.5-.1-.7-.5-.7-.5 0-.8.8-.4 1.2.4.4.9.1.9-.5zm14.5-.6c1-1 1-1.6.3-2-.4-.3-.6-.2-1.2.4l-.7.7.7.1c.4.1.7.4.7.6 0 .3-.1.3-.7 0-.7-.5-1.4-.4-1.4.4 0 .4.3.7 1.2.8.2 0 .7-.5 1.1-1zm-16.2 0c.2-.6.2-.6-.3-.6-.2 0-.4.2-.4.5 0 .7.4.7.7.1zm48.5-.2c0-.6-.8-1.5-3.5-3.9l-1-.9.1 1a8.6 8.6 0 0 0 2.4 4c.8.6 1.9.5 2-.2zm-42.3-1c.4-.4 1.5-1 2.5-1.5 2.8-1.3 4.6-3.3 6.3-7 2.3-4.6 2.9-7.3 1.9-8.3a2 2 0 0 1-.5-.8c-.1-.6-.8-1-2.2-1.5-1-.3-1.5-.4-1.7-.2-.2.2-.1.3.4.3.3 0 .8.3 1.1.6.4.4.4.5 0 .3-.1 0-.8.1-1.3.4-1 .5-3.5 1.2-5.8 1.5-1.3.1-1-.1.5-.5 1.7-.4 1.9-1 .3-1-1.2 0-1.6-.3-.9-.6h-1.1c-.9 0-1.8-.1-2.3-.3l-1.6-.4c-.4 0-.6 0-.4-.2.2 0 .3-.2.2-.3l1.8-.1h1.9l-1.7-.2a60.3 60.3 0 0 0-2.4-.5c0-.2-.1-.3-.3-.3-.4 0-2.1-1.2-3.7-2.6-1.4-1.2-2.4-1.8-2-1 .2.2 0 .2-.3 0a149 149 0 0 1-11.6-14.1 47.8 47.8 0 0 0-4.6-5.8c0-.3-2.5-2.7-3.3-3.1l-4.3-2.1-3.8-1.8-3 .2a67.2 67.2 0 0 0-12 1.7c-.7-.2 5.5-2 7.8-2.3l3.2-.5 1-.1-.8-.3c-1.3-.3-4 0-10.2 1.3a64.3 64.3 0 0 0-8.3 1.8c-.4.2-.5.1-.4-.1 0-.2 2-1 4.6-2 2.5-.7 4.3-1.4 4-1.4l-4.5-.3A96.8 96.8 0 0 1 44.2 98c.2.5-.4.6-.7.1-.1-.1 0-.2.1-.2.2 0 .2-.2.1-.3-.1-.2-.2-.2-.3 0-.2.2-.8 0-2.2-.5-1.6-.6-2.5-.8-5.3-1a104 104 0 0 1-20.2-3c-.4-.4-1.5-.3-2.4.3l-.9.9c0 .7 5.2 6.4 7.8 8.5l2.3 2.1c0 .2.2.4.5.5l2 1.1c1.3.9 7.9 4.3 10 5.2a53.9 53.9 0 0 0 14.6 2.6l-2.4-.6a39.4 39.4 0 0 1-6.1-1.6l12.9 2c.1 0 .2.1.2.3 0 .2 0 .4.2.4a313.2 313.2 0 0 0 9.7.7c1 .2 1 .1.6-.3-.6-.4-.6-.4 0-.8.5-.5.9-.5 1.8-.1.6.2 1 .2 1.4 0 .5-.3.8-.3 1.3 0 1.3.7 1 1.2-.5 1.4l-3.5.8a42.5 42.5 0 0 1-18 .4c-5.2-.6-6.2-.9-10.2-2-3.2-1-7.8-2-9.6-2-1.3.1-.1.5 2 .7 1 .1 2.3.4 2.8.6l1 .4-1.6-.2-4.3-.4c-3-.3-13.8-.3-13.8 0 0 0 2.4.2 5.4.2 4 0 5.5 0 5.7.3.3.2-.7.3-5 .3-3 0-5.4.1-5.5.2-.1.3 1.2 2.4 1.8 3 .3.2.4.4.3.5 0 .2 0 .3.2.3.5 0 2.4 1.3 2.3 1.6a17 17 0 0 0 4.6 3.8c1.1.7 2 1.4 1.9 1.6-.1.1 0 .1.1 0a52.4 52.4 0 0 0 26 6 66.3 66.3 0 0 0 16.7-4c.1 0-.1-.4-.6-.8-.8-.8-2.4-3.1-2.4-3.6 0 0 .3 0 .7.4 1 1 1.3.5.3-.7-.8-1-.8-1.6 0-1.5.4 0 1 0 1.1-.3a39.4 39.4 0 0 1 9.7-4.4 38.1 38.1 0 0 1-8.6-4.1c-1.4-.9-3.3-3-5-5.9l-.6-.8h1.6c0-.1.3.2.4.6.1.5.7 1.4 1.3 2a37 37 0 0 0 7.8 5.2c1.5.8 1.6.8 7.5.9a43.2 43.2 0 0 0 11.2-1c.4-.5.8-.4.4 0-.6.8-2.8 2-4.8 2.7-1 .4-4.1 1.2-6.8 1.7C75 119.5 70.8 121 69 122c-1.1.7-1.2.9-1 1.3a61 61 0 0 0 9.5 6.3l2.6 1.4h3.2c4.6 0 7.2-.4 9.9-1.4 2.2-.8 4.1-2 4.1-2.7 0-.2.4-.7.8-1.1.5-.5.8-1 .7-1.2-.2-.6.3-1.6.7-1.6.2 0 1 .7 2 1.5l1.5 1.4h-1l-1.7-.2c-.6-.3-.7-.2-1.4.5a6 6 0 0 0-.9 1.3 22 22 0 0 1-5.6 4.4c-1.1.6-2.1 1-2.8 1l-2.4.1c-1.2 0-1.3.1-3.3 2.5-2 2.3-3.8 5.3-4.1 6.9-.2.6 0 .8.5 1 2.9 1.5 8.6 1.3 14-.5a15 15 0 0 0 6-3.8 7.4 7.4 0 0 0 2.5-3.6c.8-2 .8-2.2.5-3-.3-.4-.7-.8-1-.9-.7-.2-.6-.6.1-.6s3.1 2.5 3 3.1l-.4.6a9 9 0 0 0-.9 1.5c-1 2-2.2 3.7-3.3 4.5a33.8 33.8 0 0 0-8.5 9.2c-1.3 2-1.2 2 1.8 1.9 4-.2 6.6-1 9.7-2.9 4.9-3 8.4-5.9 10.4-8.5l1.1-1.8-.7-.5c-.7-.2-.7-.2.2-.2 1 0 1 0 1.5-1.7.6-1.9.8-1.3.2.7l-.3 1.3 1.2.6c1.1.6 1.6.5 1-.2-.7-.7-1.5-2.4-1.3-2.4.4 0 2.9 3.8 2.5 4-.1 0-.2.2-.1.4v.4c-.5 0-1.7-.8-2.4-1.6l-1-.8c-.3 0-.8 1.8-.6 2.2.4.6-1.7 4.1-4 6.6-1.3 1.3-1.6 1.8-1.9 3.2-.7 3-.8 4-.6 4 .4.3 6.2-2 8.3-3.2 1.3-.8 2.4-1.6 3.3-2.8a29 29 0 0 0 4.7-6.7c.4-1.4.8-2 1.2-2 .3 0 .2.9-.5 2.8-.4 1.2-.5 2-.3 2 .5.2 1.6 1.3 1.4 1.5 0 .1-.6 0-1-.3l-1-.4c-.5.4-2 4-2.2 4.7-.3 1.2.3 4.6.8 4.7.3.2.3.3 0 .5v.5c.2.2 1.2-.4 2.2-1.3zm-.7-1c.6-.6.7-.6.7-.3l-.6.5c-.6.4-.6.4 0-.2zm1-.6.4-.5c.4-.3.5-.3.1.1-.3.5-.5.6-.5.4zm1.1-7.6c-.9-.4-1.6-2.1-.9-2.1.5 0 2.2 1.7 2 2-.2.4-.3.4-1 .1zm-9.1-3.6c-.8-.4-1-1.2-.3-1 .6.2 1.4 1 1.4 1.2 0 .3-.3.3-1.1-.2zm1.6-6.2-.7-.5c.3 0 1.8.8 1.8 1l-1-.5zm-14-3.3c-.4-.4-.8-.9-.8-1.1 0-.3-.5-.7-1.1-1-.6-.3-1.2-.7-1.2-.9 0-.2.3 0 .8.2l1 .6-.2-.6c-.1-.5.2-.2 1.4 1s1.7 1.4 2.2 1.3h1.4l.8.2-.7.4c-1 .7-2.6.6-3.6-.1zm-55.4-19.8c-1.3-.5-1.4-.6-.8-.9.8-.3 5.4.4 6 1 .5.4-4.1.3-5.2-.1zM179 154.8v-1.5a9.5 9.5 0 0 0-1.7-3.3l-.2-.6c0-.5 0-.5-.5-.1-.6.6-.8 5.3-.3 5.9.9 1 2.4.8 2.7-.4zm-68.3.8c.5-.2.4-.3-.7-.3-.7 0-1.2.1-1 .3.1.3.7.3 1.7 0zm22-.2c0-.2-.2-.4-.3-.4-.2 0-.3.2-.3.4s.1.4.3.4l.2-.4zm-11-.3-.2-1c0-.9-.4-.6-.6.4-.2.8 0 1 .5 1 .3 0 .4-.1.3-.4zm-3.3-.8c0-.4 0-.5-.2-.4-.2 0-.4.3-.4.5 0 .5.4.4.6-.1zm38.5-.4c.4-.7.4-.7-.1-1.3a10 10 0 0 0-1.9-1.2c-.8-.5-1.3-1-1.3-1.3-.1-.7-.1-.7-1.2-.2-.6.3-.7.5-.5.7l.6.3c.2 0 .7.7 1 1.5 1.3 2.4 2.6 3 3.4 1.5zm-22.2 0c.6-.7.6-.7.2-.7-.5 0-1.5.7-1.5 1 0 .5.7.3 1.3-.4zm-30.4-.8c0-.2-.2 0-.4.2a2 2 0 0 0-.4.8c0 .1.2 0 .4-.3l.4-.7zm15.5.2c.2-.7.2-.7-.3-.4-.4.4-.5.8-.1.8l.4-.4zm18.1 0c0-.3-.6-1.2-.9-1.2l-.4.6c-.3.4-.3.6 0 .8.6.3 1.3.3 1.3-.1zm34 .2h-.4c-.2.1-.2.2.1.2.3 0 .5 0 .4-.2zm1.9-.3c-.3-.4.2-.4.6 0 .2.3.3.1.3-.6 0-.8-.1-1-.7-1.2-.4 0-.6-.3-.6-.6s-.3-.5-.5-.6c-.4 0-.6-.6-.8-1.4-.3-1.2-.3-1.3.2-1.7.5-.4.6-.5.2-1l-.5-.9c-.4-.2 0-.9.8-1.4.5-.3.7-.6.6-.8-.2-.1-.3-.5-.3-.8 0-.4-.2-.7-.5-.7a.7.7 0 0 1-.6-.7c0-.4.2-.5.6-.4.5.1.5 0 .4-.4v-.7c.3-.2.7.6.6 1.2 0 .3 0 .3.4 0 .6-.5.8-.2.7 1.7 0 3.1.9 4.5 2.5 3.6 1.5-.8.7-3.6-1.5-5.3-1-.8-1.2-1-1-1.5.3-.7.7-.8.9-.3 0 .2.2.2.6-.1.2-.3.5-.5.6-.4.4 0 3-1 3.2-1.3.3-.3.2-.4-.5-.2-.7.1-.8 0-.7-.5.1-.3.3-.7.5-.8.2-.1.2-.3 0-.5s-.4-.1-.6.1c-.2.3-.5.5-.7.5-.5 0-.5-.7 0-1 .2 0 .3-.2.3-.4-.3-.4.4-.3 1 .2.4.4.4.4 1 0 .2-.3.6-.4.7-.3.2 0 .2 0 .1-.3-.1-.4-.6-.5-.6 0 0 .2-.1.1-.4-.1-.5-.5-.3-1.2.2-1 .1.2.2.1.2 0-.1-.5 0-.8.6-1 .4 0 .5-.3.4-.7 0-.5-.2-.6-.8-.6-.7 0-.7 0-.7-.8 0-.9 0-1-.4-.5-.7.6-1.3.8-2 .6-.7-.3-.8-1.3 0-1.3.3 0 .5-.2.5-.4 0-.4.2-.4 1.3-.2 2 .3 3 .1 3-.5l-.5-.2c-.8 0-1.2-.6-.9-1.4.2-.4.2-.7 0-.8l-.3-.7c-.2-.6-.2-.6 0-.2.4.6 1 .6 1.4 0 .3-.3.3-.4 0-.7-.3-.1-.5-.3-.4-.5.1-.1.4 0 .7.3.3.3.7.5 1 .5l.7.3c.4.4 2 0 2-.4 0-.2-.3-.2-.9-.2-1 .1-1.6-.6-1.6-2.1 0-.8-.1-1.2-.8-1.8-1-1-.7-1.4.7-1.2a35.2 35.2 0 0 0 2 .3l.4 2.1c.6 3 1.8 4 3.1 2.8.5-.5.5-.8.5-2.1-.2-1.9-1-3.1-2.9-4.4-1.5-1-2-1-1.6 0 .3.5.3.5-.2 0-.8-.7-.6-1.3.5-1.5.9 0 .9-.1 1-1.3v-1.5c0-.6 1.1-.2 1.8.6l1.2 1.1c.6.3.6.3-.2.3-1 0-1.3.3-1 .8.3.5 1 .1.7-.3 0-.2 0 0 .3.3.4.4.7.5.9.3.2 0 .3-.3.2-.4-.2-.4 0-.7.8-1.1.5-.3.6-.3.6 0 0 .5 1 .6 1.2.2.2-.4-.5-1.4-.8-1.2-.3 0-.4-.2-.4-.8l-.2-1c-.2 0-.4-.2-.6-.5-.2-.4-.2-.6.2-1 .4-.5.5-.5 1-.2l.9 1c.3.4.3.6 0 1-.3.3-.3.4 0 .5.2 0 .3.3.3.5s.2.4.4.5c.2.1.4.3.5.6v.2c-.2 0-.4 0-.5.2-.1.1-.1.2 0 .1.4-.2 1.5.6 1.5 1.1 0 .9.3 1.4.8 1.4.6 0 .6.2 0 .6-.4.3-.3.5.8 1.8 1.4 1.7 1.7 2.6 1.1 3.6-.3.5-.6.6-1.3.5-.6 0-.9 0-.8.1.1.1-.2.3-.6.4-1 .2-1 .6-.3 1.3.4.4.5.6.2 1l-.7 1c-.7.6-1 1.5-.4 1.7l.4-.1c0-.5.4-.3.6.2 0 .4.1.3.3-.2.1-.3.3-.5.6-.4.2 0 .5-.2.7-.7.5-.8 1-.8 1 0 0 .3.1.6.3.8.3.2.4.4.2.7-.3.3-.3 1.4 0 1.4.2 0 0 1.6-.3 2-.3.5-.1 2 .2 2.2.2 0 .4 0 .4-.2v-1.2c.1-.5.3-1.4.6-2l.4-2c0-.6 0-.7.3-.4.2.3.2 0 0-1 0-1 0-1.4.2-1.2.2.1.3 0 .1-.8-.1-.7 0-1 .1-.8.4.2.4-.5 0-1.2a30.7 30.7 0 0 0-1.2-12c-1.6-4-1.8-4.1-4.8-6.8-2.6-2.3-5.4-4-6.2-3.8-.5.1-.7.3-.7 1 0 .6.2.7 1 1 1.2.3 1.9 1 1.6 1.2-.1.1-.6 0-1.1-.2l-1-.5-1 1c-.8.8-1 1.2-1 2s-1.1 2.3-1.8 2.3a25.3 25.3 0 0 1-17 6.2l1-.4.7-.3-1-.4-2.4-1.5-1.8-1.2-1.7 1c-1.2 1-1.4 1.2-1.2 1.5.3.3.3.5 0 .7-.6.3-.8.3-.8-.2s0-.5-1.6.3c-1.5.7-3 1-5.6 1.3-1.3.2-1.5.2-1.8 1-.4 1.3-2.4 1-2.4-.5 0-.6-.1-.6-1.2-.6-.6 0-1.4-.1-1.6-.3-1.1-.6-3.4-1.3-3.6-1-.3.2-1.8-.5-1.8-1l-.8-.8-.9-.6-.4.6c-.3.4-1 .9-1.6 1.2-1.4.7-2 .4-2.1-.8v-.9l-.6.8c-1.2 1.6-2.3 3.7-2 4.1.2.3.2.2.2-.3 0-.6.2-.8.6-.8.4 0 .5.2.5 1.3 0 1.2 0 1.4 1.3 2.4.8.7 1.3 1.3 1.3 1.6 0 .2.4 1 1 1.8s1.2 1.8 1.3 2.3c0 .4.3 1 .5 1 .6.5 2.3 4.9 2.2 5.7 0 .5-.3.8-1 1.2-1.2.7-2 .3-2.5-1l-.4-1-.5.6c-.2.3-.3.7-.1.8 1.3 1.2 2.6 2 3 2 .4-.2.5 0 .5.7 0 .5.3 1.5.6 2.3.3.8.5 1.8.5 2.1 0 .5 0 .6.4.5.2-.1.5.1 1 .7.5 1.1 1 1.3.7.3-.3-.6 0-1 .4-.4l.9.4c.4.1.8.3.7.4l.2.6c.1.3 0 1-.1 1.7-.3 1-.3 1.2.2 1.7.5.6 1.4 1 2.2 1.1.3 0 .7.4.9.7.2.4.5.7.9.7.3 0 .6 0 .6.2 0 .6 1 1.2 1.5 1 .5 0 .7-.4.6-1l.3.1c.8.8 1-.2.3-1-.5-.5-.5-.6 0-1 .7-.4.9-.4 1.3.4.5 1 2 2.5 2.5 2.5.2 0 .3-.1.2-.3 0-.1 0-.3.2-.3s.5-.2.7-.5c.1-.3.4-.4.7-.3.5.2.5-.6 0-1-.4-.2-.5-.3-.2-.6s.2-.5 0-.7c-.4-.3-.5-.3-.5.1s-.1.3-1-.3l-1-.8.2-.6c.4-.8 0-1-2.6-1.1-.5 0-.6-.2-.6-.7 0-.6 0-.6.3-.4.5.5.8.4.8-.2 0-.3.1-.5.5-.5.3 0 .6-.2.7-.3 0-.2.2-.1.5.2.2.3.3.3.5 0 .1-.1.1-.3 0-.4-.6-.2-.9-.5-1-1.1-.2-.6-.1-.7.5-.7.5 0 .6.1.5.5-.1.2 0 .5.1.5.2 0 .5.4.7 1 .5 1 .8 1.3 1.4.8.5-.6 1-.1 1 .8-.2.9-.2.9.2.4s.5-.5.7-.1c.1.2.3.6.3 1 0 .7 1 3.5 1.5 4 .2.3.3.6.2.8-.1.1 0 .2.2.2.3 0 .5 0 .5-.2s.1-.3.3-.3c.6 0 1.2-.8 1.2-1.5 0-.5-.4-1.1-1.5-2.3-1-.8-1.6-1.7-1.6-1.8l-.7-.7c-.6-.5-1-1.4-.4-1.4.3 0 1.2 1.2 1.1 1.6 0 .2.2.3.8.2.8 0 .9 0 1 .6.1 1 .3 1.1 1.3.8 1.4-.5 2.2 0 3.2 2 .9 1.8 2 5.1 1.9 5.7 0 .3.2.3 1.4.2 1.2-.1 1.5 0 1.5.2s.2.5.5.7h.5c0-.2.2-.3.3-.3.1 0 .3.2.3.5s0 .5.2.5.3 0 .2-.2zm-.6-1.1v-.4c.2-.2 1 .1 1 .4 0 .4-.8.4-1 0zm-24.3-4.8c.1-.5.3-.6 1.1-.6h1l-.8.6c-1 .8-1.4.8-1.3 0zm3.3-1.6c-.3-.2-.3-.3 0-.4.4-.2.3-.6-.1-.6-.3 0-.4-.1-.4-.3l.6-.2c.5 0 .7.1.7.5l.1.9c0 .4-.4.5-.9.1zm-5-1.7c-.3-.5-.2-.9.2-.9.2 0 .3.3.4.7.1.8-.2.9-.6.2zm17.4-2c-1.6-.9-1.6-2.7 0-3.8l1-.7.1 1.4c.1 1.4.8 2.4 1.6 2.4.6 0 .6.3.2.7-.4.4-2 .4-2.9 0zm-3.8-1.4c-.2-.7 0-1.3.4-1 .3.2.3 1.3 0 1.5-.1.1-.3-.1-.4-.5zm-4.4-.5c-.4-.5-.1-1 .6-1 .5 0 .5.1.2.4-.1.3-.2.6-.1.7.2.4-.3.3-.7-.1zm2.5-1.1c-1-1-1-1.4.5-1.6.8 0 .9-.1 1.2-1l.3-1 .3 1c.3 1.3.2 2.1-.3 1.8-.1 0-.3.3-.4.8 0 .5-.3 1-.4 1l-1.2-1zm-8-.5c-.1-.8.1-1.1.7-.8.6.4 1.5.2 1.3-.3-.1-.2 0-.4.2-.4s.4-.1.5-.3c0-.2.2-.2.3-.1v.6c-.1.3-.2.6-.1.7.1.7-.3 1-1 .7-.4-.1-.6-.1-.9.2-.4.5-.7.4-1-.3zm-.8-1.6c-.3-.3-.3-.5 0-1 .4-.8.5-.8.6.3 0 1-.2 1.3-.6.7zm-.6-3c-.2-.2-.2-.3 0-.3l-.5-.7c-1-1.2-.6-1.5.8-.6.8.5.9.6.5.9-.2.1-.5.4-.5.7-.1.2-.2.3-.3 0zm9.6-.9c0-.4-.1-.5-.7-.4-.6.1-.7 0-.5-.6.1-.6.5-1 1-1 .2 0 .6.7.8 1.7.2.7.1.9-.2.9-.3 0-.4-.2-.4-.6zm20-.2c-.2-.2-.5-.2-.7-.2-.5.2-.7-.3-.4-.7.3-.2 1 .3 1.3.8.2.4 0 .5-.3 0zm-27.7-.3c0-.1.1-.2.3-.2l.2.2c0 .2 0 .3-.2.3a.3.3 0 0 1-.3-.3zm44-19c-.9-1-1.1-2.1-.6-2.9.2-.3.4-.2 1.3.4 1.4 1 2.1 2 1.7 2.7-.5.8-1.5.7-2.4-.3zM136 152.1c.8-1 .3-1-.6-.1-.8.7-.8.8-.4.8.3 0 .8-.3 1-.7zm7.6.3c0-1.1-2.5-2.6-3-1.9-.3.6-.2.7 1.2 1.3 1.6.8 1.8.8 1.8.6zm27.8-.4c0-.1-.1-.2-.3-.2-.1 0-.2 0-.2.2s.1.3.2.3c.2 0 .3-.1.3-.3zm-81-1.6c0-.3 0-.5-.2-.5-.3 0-.6 1-.4 1.4.2.3.6-.3.6-1zm72.1.9c.1-.2 0-.4-.2-.4-.3-.1-.4-.3-.4-.5.1-.8 0-1-.5-1-.3 0-.6-.1-.7-.3-.3-.4-.7-.3-.6.2.1.2 0 .6-.1.8-.3.3-.2.5.3.9.6.5 2 .7 2.2.3zm12.2-1.3-.4-.4c-.3 0-.6.5-.4.8.3.4 1 0 .8-.4zm-35 0c.2-.3 0-.6-.3-.6-.2 0-.3.2-.3.5 0 .6.4.7.6.2zm2.3-.4c-.3-.4-.6-.7-.8-.6-.4.3-.2.8.4 1 1 .6 1 .5.4-.4zm-93.8-.1c-.2-.1-.6-.1-.8 0h.8zm39.9-1c0-.3-1.3.6-1.3 1l.6-.3c.4-.2.7-.5.7-.7zm71.1.7c0-.2 0-.3-.2-.2-.2 0-.3.3-.3.4 0 .1.1.2.3.2.1 0 .2-.1.2-.4zm23.7.2c.5 0 .5 0 .2-.3-.4-.2-.3-.2.1-.2.9 0 2.2-1.3 2.2-2 0-.4 0-1-.2-1.4-.2-.5-.2-.8 0-.9.2-.1.1-.2-.1-.3-.3-.1-.5-.4-.5-.6 0-.8-.8-.4-1.6 1l-.9 1.2-.6-.5c-.7-.7-.5-1.2.4-1 .6.2.7.2.2-.2-.4-.4-.4-.4-.9 0-.2.2-.6.4-.9.4-.7 0-.8.7-.3 1.6l.3 1.4c-.1.3 0 .6.4.8.3.2.5.5.5.8 0 .4.1.5.6.3l1.1-.1zm-4.3-.5c-.2-.3-.2-.7-.1-1 0-.2 0-.4-.2-.4-.1 0-.3.2-.3.4 0 .6.4 1.5.6 1.5v-.5zm-38.1-.5c.1-.5 0-.5-.5-.4-.6.1-.8.6-.4 1 .3.2.7 0 .9-.6zm-95.6-.2c-1.2-.5-1.5-.5-.9 0 .3.2.8.4 1.2.4.6 0 .6-.1-.3-.4zm144.8.1-.4-.2c-.3 0-.4 0-.3.2.1.2.3.3.4.3.2 0 .3-.1.3-.3zM38 148.2a1 1 0 0 0-.6 0c-.2.1 0 .2.3.2.4 0 .5 0 .3-.2zm10.7 0c.3-.5-3-1.1-3.4-.7-.3.3 1.3.8 2.4.9.4 0 .9 0 1-.2zm2.8-.3-.6-.4-.4-.3c0-.1.8 0 1.6.3s1.5.4 1.6.3c.1 0-.1-.2-.4-.3-.4-.1-.7-.3-.8-.5-.2-.3-2.6-.4-3.4-.1l-.6.2.9.5c1 .5 2 .7 2 .3zm58.3-1a11.8 11.8 0 0 0 4.1-4.6l-2.2 2a29.2 29.2 0 0 1-4.2 3.9l2.3-1.4zm-54.6.1c-.2-.2-.3-.2-.3 0 0 .4.3.7.5.5 0 0 0-.3-.2-.5zm-7.8-.7a67.1 67.1 0 0 0 16.3-3.7c1.3 0 2-.3 1.9-.7-.1-.2.1-.3 1-.2 1 .2 1 .1 1-.3-.2-.3-.1-.4.5-.4 1 0 4.3-.8 4.3-1 0-.2.2-.3.4-.3s1.9-.6 3.6-1.4c3.3-1.3 3.7-1.6 5.7-4.1l.8-1-2.3-.2c-2.2-.2-7-1.5-8.4-2.4-.3-.2-1-.3-1.7-.3l-1.1.1.1-.9c.2-1.2 0-1.3-.7-.6-.3.4-1.3.9-2 1.1-1.7.5-2 .8-.9.6 1.2 0 1 .5-.3 1-2.2 1-5.3 1.5-9.9 1.7-5.2.1-5 .6.3.6 3.8-.1 4.3 0 2.6.2-4.5.9-11.7.6-17.7-.7a12 12 0 0 0-8.5.6c-6 2-7.8 2.8-12.6 6.2-1.6 1.1-1.9 1.5-1.7 1.8l.6.3 2.6 1a72.3 72.3 0 0 0 26.1 3zm11.4-.6c-1.2-.4-1.6-.4-3.2-.1-1.8.3-1.9.3-1 .5.6.2 1 .2 1 0 .3-.4 2.5-.2 3.7.2h.7l-1.2-.6zm130.7.3c.5 0 .4-.7-.1-.8-.4-.1-.5 0-.5.7v.5c.1-.2.4-.4.6-.4zm-15.5-.2c.3-.3.5-.6.4-.7-.2-.2-1.5.5-1.5.8 0 .5.3.5 1-.1zm-111.2-.3.7-.2-.7-.2c-.8-.4-3.3-.7-2.8-.4.3.2.3.3 0 .3s-.2.1.2.4c.7.4 1.6.4 2.6.1zm125.3-.5c-.2-.2-.5.2-.2.5.1.3.2.3.3 0v-.5zm-109.8-.2c-.5-.3-.5-.4 0-.7l.4-.8.5-1.7.6-1.3-.7.8c-1 1.1-1.9 2.6-2 3.3-.2.4-.2.6.5.7l1 .1-.3-.4zm-19 0H59c-.2 0-.1.1.2.2.3 0 .4 0 .3-.2zm6.6-.3c.9-.2.7-.6-.4-.9-.5-.1-1-.1-1.7.1l-.8.4.8.4c.4.3 1 .4 1.1.3l1-.3zm146.2-.7c-.3-.3-1.5-4.5-1.8-6-.1-.9-.5-1.5-2-3-1.7-1.8-1.9-2.1-2-3.2a6 6 0 0 0-.1-1.3c-1.1-.7-2.9-1.7-3-1.5l-.5 2c-.6 2-.5 3.9.2 5.2 1 2 9 9.2 9.4 8.4 0-.1 0-.4-.2-.6zm-53.8.4c0-.1-.2-.3-.5-.4-.3 0-.5 0-.5.3 0 .2.2.3.5.3s.5 0 .5-.2zm29-.2h-.4c-.2 0-.2.2.1.2.3 0 .5 0 .4-.2zm3.9-.2c.4-.4.4-.5 0-.8-.4-.5-.6-.5-.6 0 0 .2-.1.4-.3.4-.2.1-.2.3-.1.5.3.4.4.4 1-.1zm-122.6-.3 1-.5-1-.2H67c-.7.1-.7.1-.2.4.4.2.6.4.6.5 0 .3 0 .3 1.3-.2zm87.7 0v-.9c0-.7-.9-.4-.9.4l.2.7c.3.3.8.1.7-.3zM73 141.6c1.5-.7 1.6-1 .4-1-.5 0-1 .2-1 .3 0 .2-.2.3-.6.3-.5 0-.6 0-.5.4.1.3 0 .4-1 .4-1.2 0-1.3 0-.8.4.5.6.8.5 3.5-.8zm81.2 1c0-.2-.2-.4-.4-.5-.4-.1-.5.2-.2.5.2.2.6.2.6 0zm32.8-.2-.2-.3-.3.1c0 .2.1.3.3.3l.2-.1zm2.5-.5c.5-.8.5-4.9 0-5-.2-.2-.4-.6-.4-1.1 0-.6-.1-1-.4-1-.2-.2-.4 0-.4.4l-.4 2a16 16 0 0 0-.7 2.5c-.1.7-.3 1.2-.5 1.2-.4 0 .1.8.8 1.2 1 .5 1.6.5 2-.2zm5-1.5c.3-.8.4-1.7.4-2 0-.4-.1-.4-1 .2-.7.5-1 .6-1.1.4 0-.2-.3-.2-.6-.1s-.4.2-.1.8c.2.5.2.7-.2 1.1-.4.4-.4.5.3.8 1.4.6 1.8.4 2.3-1.2zm29.7.2c-.3-2.7-1-4-2.8-6-1-1-2.1-2.3-2.5-3-.7-1-.7-1-1.3-.5-.4.2-.7.6-.7.8 0 .5-4.2.2-7-.6l-2.5-.6c-.1.1-.3 0-.3-.2-.1-.2-.3-.2-.4-.1-.2.2.7 1.8 1.4 2.3.3.3.3.3.2-.2-.1-.2.6.3 1.5 1.3a33.4 33.4 0 0 0 14.2 7.9c.3 0 .4-.3.2-1.1zm2 1c.3-.3-.3-1.5-.6-1.5l-.2.8c0 .7.4 1 .9.6zm-35.2-3c0-.2-.1-.3-.3-.3-.1 0-.2 0-.2.2s0 .3.2.3.3-.1.3-.3zm-6.7-1c.7-.5.6-3 0-4.6-.7-1.4-.5-2.3.5-3.5.7-.7.8-1.6.3-1.6-.2 0-.5.3-.5.6-.2.5-1.1.7-1.4.2-.2-.3-.7 0-.7.3 0 .2.1.2.3.1.1 0 .3 0 .3.2l-.4.3c-.2 0-.2 0 0 .1.5.2.4.5-.1.7-.5.1-.6.5-.7 2.3-.3 2.5 0 4.1.7 4.8.6.6 1 .6 1.7.1zm7.5-.1c0-.3-.2-.6-.4-.6s-.4.3-.4.6.2.5.4.5.4-.2.4-.5zm-65-2.6h-.8l.4.1h.5zm4.7 0a1 1 0 0 0-.6 0l.3.1h.3zm109.6-.3c.9-.4.9-.8 0-2-3-3.7-8.8-9-12.4-11.4-1-.7-1.4-1-1.1-1.1.2 0 .4-.2.3-.3-.1-.2-2.8-.1-3 .1 0 0 .3.7.9 1.5.6 1 1 1.7.8 2l-1.4 1c-1 .4-1.7.5-4.6.5h-3.4l1.2 1.3a35.8 35.8 0 0 0 16.8 8.3l2 .2c.3.2 3.2.1 4-.1zm-50.2-1.3c.5-.6.4-3 0-4.1-.5-1.1-1.7-2.5-2-2.2-.8 1-1.1 5.5-.5 6.3.6.8 1.9.8 2.5 0zM33.3 133c1.6-.4 2.9-.8 2.7-.9l-1.2-.4c-1-.3-1-.3-2.8.8-1.6.9-2.1 1.3-1.8 1.3l3-.8zm163.3 0 .5-.5-1-.8c-.5-.5-1-.8-1.2-.8-.3 0-.3 1.5 0 2 .4.7.9.7 1.7.1zm24.6 0-1.3-1.4-1-.9 1.2 1.4c1.1 1.4 1.5 1.8 1 1zm4.3-.2a39.3 39.3 0 0 0-4.5-3 23 23 0 0 0 3.3 3c.7.3 1.4.6 2 .7.2 0-.2-.3-.8-.7zM79 131.8c0-.1-.8-.5-2-.8-1.2-.4-2.6-.9-3-1.2-.4-.2-.6-.4-.3-.3.8.2.4-.3-.7-.9l-1-.6.6.7.6.7-.8-.2-.8-.2.6.6c.3.4 1.7 1 3.4 1.5 3.3 1 3.2 1 3.4.7zm53.2-.9c.9-.2 1-.4 1.8-1.9.8-1.8 1-3.7.4-4.9-.6-1-2.2-2.5-3.5-3l-2.3-1c-1.6-.6-1.6-1-.2-1h1.2l-1.7-.7c-1-.4-2-.7-2.4-.7-.8 0-2.7-1.1-5-3a185.8 185.8 0 0 1-18.6-18.4l-1.5-.8c-1.3-.8-4.2-1.7-4.6-1.4 0 0-1-.2-1.8-.6-1-.4-2.3-.7-3-.8-.6 0-1.2-.3-1.4-.4l-2.4-.7c-2.2-.6-5.8-2-7.7-3a35 35 0 0 0-3.4-1.3l-2.6-1c-.7-.6-8.1-3.3-11.6-4.3a277.7 277.7 0 0 0-26.5-6.2c-1.9-.5-6.5-.6-12.5-.3-3 .2-4 .1-4 0 0-.3.6-.4 1.6-.4 1.6 0 1.6 0 .6-.2-1.5-.3-9.1-.6-9.1-.4a45 45 0 0 0 5.1 6.3c1.6 1.6 6.2 5 6.2 4.7L22 84c-2.1-1.8-1.3-1.5 1.1.4 4.5 3.4 10 6.4 17.7 9.7a51.3 51.3 0 0 0 18.9 5c.1-.1-1-.4-2.5-.6a25.9 25.9 0 0 1-5-1.2c-.3 0-.5-.1-.5-.3l-1.4-.5c-1.2-.2-1.3-.2-.5-.3 1 0 6 .7 9.4 1.4l5.6 1.1c3.5.7 4.3.9 8.1 2.3 1.6.6 2 .7 3.2.5.7-.2 2.7-.3 4.3-.3h3l-2-1.5c-1.7-1.2-2.3-2-1.8-2a38 38 0 0 1 6.7 3.6c4 2.5 6.6 3.8 8.8 4.7a42 42 0 0 1 7.4 3.9c.7.6 1 1.9.5 1.5l-.3.1c0 .2-.1.3-.3.3-.2 0-.2-.3-.1-.8.1-.7 0-.8-.7-1.2-.7-.4-.8-.4-.7 0 .2.3 0 .3-.8-.2l-1.3-.8c-.7-.5.3 1.2 1.7 2.9a102.8 102.8 0 0 1 3.3 4.2l2.5 3c1.8 2.3 6.5 6.7 8 7.5l-1.5-1.8a202.3 202.3 0 0 1-10.7-12.5 355.3 355.3 0 0 0 11.7 12.9c4.3 4.6 5.9 5.4 11.1 6.1 2 .3 5.8.1 7.3-.3zM59.9 97a54 54 0 0 1-9.9-2c-.4-.4-.2-.7.6-.6 3.9.6 9.1 1.6 10.5 2 1.7.3 2.7.8 1.7.8l-3-.3zm30.4-.8-1.6-.5c-.9-.3-1.2-.5-1.2-1s-.3-.7-1.4-1.2c-.8-.3-1.6-.8-1.8-1-.3-.4-.2-.4 1-.2 1.5.2 4.8 1.7 4.7 2.2l.7 1c1.1.9 1 1-.4.7zm2-1c-1.5-1-1.9-1.5-.9-1l.8.1c.2 0 .6 0 .8.2.4.3.3.3-.3.2l-.8-.2.7.5 1.2 1c1.1.9-.1.3-1.6-.7zM57.3 95c-1.8-.7-1.8-1.1.2-1 1.3.2 3.7 1.1 3.7 1.5 0 .3-2.6 0-3.9-.5zm38.6-.5c-.2-.1-.3-.2-.1-.2l.6.2c.3.2.3.3.2.3-.2 0-.5-.1-.7-.3zm97.7 35.6c0-.4-.3-.6-.6-.6s-.3 0 0 .2l.2.3c-.2 0-.1.2 0 .4.5.5.6.4.4-.3zm22.2.2c.6-.4-.2-1.7-2.7-4.4-1.2-1.2-2.1-2.4-2.1-2.5 0-.1-.4-.3-.9-.4-.8-.2-3.7-1.7-3.2-1.7a20.9 20.9 0 0 0 8.2 2.2c1 0 2.5.3 3.4.4 1.2.2 2.3.1 3.7-.1 2.1-.4 2.6-.6 2.6-1 0-.5-2.4-2.7-4.5-4-2-1.4-6-3-7.2-3-.3 0-1 .5-1.8 1.1l-1.3 1 .3-1.5c.3-1.3.7-1.9.7-1.1 0 .6.4.5.6-.2.1-.5.3-.5 1.2-.4 1.3.2 1.4 0 .4-.9-1.4-1.2-3-3.9-1.7-2.8 1.2 1 7.3 4.5 9 5.1 1 .4 2.9.8 4.2 1 2 .2 2.8.2 5-.2a12 12 0 0 0 3-.8 2 2 0 0 1 .9-.4c.8 0 .4-1-1-2.2-.8-.7-1.8-1.4-2.2-1.5l-.5-.4c.2-.2-1.3-1.3-2.1-1.5l-2.4-.5a15 15 0 0 1-6.4-2.4l-1.9-1c-.1 0-.5.4-.8 1-.3.4-.7.8-.8.7-.1 0-.6 0-1 .3-1.8.9-.4-1.1 1.4-2.2.3-.2.4-.4.3-.7-.1-.4-.4-.2-1.5 1l-1.5 1.3.6-1c1.9-2 1.8-2 1.3-2.5-.5-.6-.8-3.3-.4-3.6v-.9c0-.4 0-.6.2-.5l.5 2.4c.2 2 .3 2.1 1.2 2.6l5 2.5c2.6 1.3 4.4 1.7 6 1.2.7-.3 1-.3 1.1 0 .4.5 3.2-.2 6-1.6a158.6 158.6 0 0 1 5.1-2.6c1.8-1 1-.2-1.2 1.3l-2 1.4.9-.1c.4-.1 1.6-1 2.6-1.9 1.8-1.6 2.2-2 1.6-2-.2 0-.7-.5-1.2-1l-3.7-2.2c-2.6-1.4-2.8-1.4-3.8-1.1-.7.1-1.2.2-1.3.1l.3-.1c.6 0 .5-.5-.1-.6-.7-.2-1.4 0-1.2.3.1.2-.5.3-1.4.3-2.4 0-2.9.4-.7.6l1.8.3-1.8.3c-1.7.3-2.3.3-4.3-.1-2.5-.5-3-.5-4 .5-.8.8-1 .5-.3-.7l.5-1c-.3-.3-1.6-.4-1.6-.2 0 .4-1.4-.2-1.9-.7-.3-.4-.2-.4.3-.2 1.2.3 5.1.6 7.5.6 2.2 0 2.5 0 4.6-1a28 28 0 0 0 11.8-10.9c.3-.2 1-2.6 1-3.2 0-.4-.2-1-.4-1.2l-.5-.5-2 .8-2 1c-.1.1-.7.2-1.5.2-.7 0-1.3.1-1.3.2l-.8.3c-1 0-1.3.3-.7.6.4.3.9.2 2.8-.3 3.1-.7 0 1-3.8 2-4 1.2-5.4 1.5-8.8 1.7a99 99 0 0 0-4.4.4l-1 .2.6-.6c.4-.4 2-1.2 3.7-1.9 4.1-1.7 8.3-3.8 9.5-4.9a27 27 0 0 0 5-7c.8-1.9 1.2-4 .6-4.3-.1 0-.9 0-1.7.3l-4 .8c-2 .3-3.2.7-4.6 1.4l-4 1.9c-1.2.4-3 1.5-4 2.2l-2.6 1.7a101.4 101.4 0 0 1 13-8.7c3-1.7 3.7-2.3 2-1.6-1.2.5-1.1.2.1-.7a92.7 92.7 0 0 1 8.2-6.4c6-4.4 8.1-6.9 14.6-18 1.9-3.3 5.3-9.7 5.9-11 .5-1.2 1.5-6.2 1.3-6.5h-.7c-.3.2-.8.3-1.1.2a62.2 62.2 0 0 0-18.2 12.2 200 200 0 0 0-17 18.3l1.2-1c.9-.7 1-.8.4-.2l-1.3 1.6a297 297 0 0 1-7.8 9.3l-.6 1.1c0 .3-.3.8-.6 1.2-.4.3-1 1.1-1.4 1.8l-1.4 1.7-.6.7c0 .4.9.2 1.4-.2.3-.3.5-.4.6-.3.3.2-3 3.8-5 5.4-1.3 1-2.2 2-2.6 2.8-.4.7-.7 1.1-.8 1-.2 0-.2.2 0 .7v.4l-.4-.3c-.3 0-.8 1-1.1 2.2-.3 1 .1 1 .5 0l.4-.8a88 88 0 0 1-2.3 8c.2-.1.5-.7.8-1.2l.5-1a105.1 105.1 0 0 0-2.2 6c0 .6-.6 2-1.3 3.4l-1.5 3.6c-.4 1-.4 1 0 .7 1-.5.6.2-.7 1.6-.8.7-1.4 1.4-1.4 1.5 0 .1.4.6.9 1 .8.8 3.6 6.2 3.6 7 0 .5 1.1.8 1.8.4.2-.2.7-.4 1-.4.5 0 1.7-1.8 2.4-3.8.5-1.4 1.8-6.6 2.8-11.4.2-1 .4-1.4.5-1.2.3.5.4.3.6-.6V95c-.2 0-.3.1-.3.3 0 .1-.1.2-.2.1-.3-.2.2-2.6.5-2.4.2.1.2 0 .1-.5v-.8c.2 0 .5-1.2.9-2.7l.8-2.9.4-1.3a5 5 0 0 1 .5-1.6c.2-.3.4-.7.4-1 0-.2.3-.7.6-1l.5-.6-.2 1c0 .6-.5 2.5-.9 4.2a89 89 0 0 0-1.2 6.1 82.4 82.4 0 0 1-2.5 12.6c0 1-.4 5-.6 5.4-.1.2-.2 0-.2-.4 0-.3-.2.4-.4 1.8-.4 2.7-1.5 4.9-2.9 5.8-.6.4-.8.7-.7 1.1 0 .4-.1.6-.7.8l-.8.4v2.5c0 3 .3 4 1.7 4.9 1.5 1 6.4 3 8 3.3 1.7.3 1.7.3 2.2 0zm-5-24.4a42 42 0 0 0 .8-4.6l.7-2.5c.1 0 0 1.2-.3 2.7l-.6 3.6c0 1-.3 1.3-.5.8zm-12.2-1.8c0-.2.4-.7.9-1.3l1.4-2 .6-.8-.2.9c-.2 1.2-.8 2.5-1.2 2.8-.6.5-1.5.7-1.5.4zm22.7-2.6c0-.5 1.3-1.8 1.5-1.6v.7c-.4.5-1.5 1.2-1.5.9zm-3.7-1c0-.5 1-1.6 1.2-1.4.1.1 0 .5-.5 1l-.7.4zm-5-3.5c0-.3 0-.3.2-.1v.5c-.1 0-.2 0-.2-.4zm-8.2-9.8c0-.3 0-.3.2-.1v.5c-.1 0-.2 0-.2-.4zm10.7-8.2c.4-.9.8-1 1-.6.1.1-.2.5-.6.8l-.8.6zm3.3-5c1.5-1.6 3.7-3.5 4.9-4.5 2-1.6 8-5.6 8.5-5.6l-2.3 1.7a87.4 87.4 0 0 0-9.8 7.6l-2.9 2.4c-.6.5 0-.2 1.6-1.7zm21.7-17.2a53.3 53.3 0 0 0 8.3-9.9c-.4 3-5.7 9.4-9.4 11.5-.7.4-.4 0 1.1-1.6zm-2.9.5c.6-.7 3.4-3 3.7-3 1 0-1 2.2-2.6 3-1 .6-1.5.6-1 0zm-6-9.3 1-1 2.3-2.5c2.2-2.4 7.7-7.7 10.4-9.9a51.6 51.6 0 0 1 10-6.8 132.8 132.8 0 0 0-23.8 20.7c-.2 0-.2-.2 0-.5zm-43.5 81.9-.2-.6c-.2 0-.3.1-.3.4 0 .3.1.6.3.6l.2-.4zm6.8.1c0-.1 0-.3-.2-.3l-.2.3v.3l.4-.3zm-80-.9-.6-.6c-.6-.5-.6-.5-.3.1.3.5.8.8.8.5zm91.7-1.3c-1.8-1.3-2.6-1.5-1.8-.6.3.5 3 2 3.5 2l-1.7-1.4zm-136 .6-.4-.4c-.4-.1-.4 0 0 .3.3.4.4.5.4.1zm134.3-.1-.8-.4c-.1 0 0 .2.3.4l.7.4c.2 0 0-.2-.2-.4zm-13.8-1c-.2-.2-.3-.5-.2-.6l-.2.1c-.3.3 0 .8.4.8.2 0 .2-.1 0-.3zm26.2-1.3-.7-1.4-2.4-.6a7.4 7.4 0 0 0-2-.4c2.6 2.3 3.2 2.7 3 2.2-.5-.7-.4-.8 0-.8.2 0 .9.6 1.5 1.3l1.2 1.2-.6-1.5zm-146.7 1-1.2-1c-.7-.5-1.2-.7-1-.5 0 .4 2.2 1.8 2.2 1.5zm118.7-1c.2-.3-.3-.8-.8-.8-.1 0-.3.3-.3.6 0 .5.8.7 1.1.2zm1.7-1.4c0-.5 0-.5-.6-.3-.3.2-.4.3-.1.6.3.4.7.2.7-.3zm11.8-1.2v1-1zm57.5 0a48.3 48.3 0 0 0 4.8-2c1-.3 8-3.9 8-4 0-.3-4.5-.8-8.7-1a147.2 147.2 0 0 1-15.5-1.5 26 26 0 0 0-3.7-.4 38 38 0 0 1-4.1-.4c-.8-.1-1.7-.2-2.1 0-.4 0-1.3-.1-2-.4-1.3-.5-1.6-.3-.5.3 1 .5 1 .8.1.5l-.6-.1.4.8c.3.4.6.7.7.6.6-.3.1.5-.6 1-1.3 1.2-2.2 1.5-4.4 2l-2 .3 1.1.3 2.4.8c3.4 1.4 10 2.6 16.8 3.2 8 .6 8.1.6 9.9 0zm4-.3c.8-.2 2-.6 2.7-1a27.8 27.8 0 0 0 7.8-3.6l1.3-.8-1.2-.2c-1-.2-1.2-.1-2.3.7-1.7 1.3-7.2 4-9.3 4.5-3.4.9-2.8 1 1 .4zm-69-1.5c-.2-.7-.6-1.4-.8-1.7-.3-.3-.3-.3 0 .2.1.4.2 1 0 1.5 0 .8 0 1 .5 1l.7.2-.4-1.2zm-9 .8c0-.4-.4-.6-.6-.4-.3.1 0 .6.3.6.2 0 .3-.1.3-.2zm16-2.8v1.2-1.2zm-10 .8c.5-.4.5-.6.3-.8-.3-.3-1.3.5-1.3 1 0 .6.4.5 1-.2zm32.3-.9-.5-.4c-.1 0-.2.2-.1.4 0 .3.3.4.6.4s.3 0 0-.4zm-30.1-.9c0-.3-.2-.4-.4-.3-.3 0-.4.3-.4.5s.1.3.4.3c.2 0 .4-.2.4-.5zm-179.3-.2c0-.2-.3-.3-.5-.3s-.1.1.1.3c.5.3.6.3.4 0zm186.9-.4c-.1-.2-.2-.1-.2.2 0 .3 0 .4.1.3v-.5zm-10.5-.7-.3-.3c-.2 0-.3.2-.3.3 0 .1.1.3.3.3l.3-.3zm13.4-1.3c0-.2-.3-.1-.7.1-1 .5-1 .4-.7 1 .2.4.3.4.8-.2.4-.4.6-.8.6-1zm-119 .7 2.1-.7h-.5c-.4.2-1.7.4-2.9.5-1.2.2-2 .4-2 .6.2.3 1 .2 3.2-.4zm-27-.4c.4-.2-1.5-.2-4.2-.2s-4.4 0-3.7.2c1.7.2 7.1.2 7.9 0zm-9.9-.5h-.5c-.2 0-.1.1.2.2.3 0 .4-.1.3-.2zm152.8-.3c0-.2-.1-.4-.3-.5-.1 0-.3 0-.3.3 0 .2.2.4.3.4.2 0 .3-.1.3-.2zm-149.1-.8c.4-.2.2-.3-.7-.3-.8 0-1 0-.8.3.5.3.8.3 1.5 0zm38.7 0c0-.2 0-.3-.2-.3s-.2.1-.2.3l.3.2.1-.2zm115-.7c1-1.3.8-1.7-.3-.7-.5.5-1 .8-1.2.8-.2 0-.2.2 0 .4.5.6.6.5 1.4-.5zm-5.3-.4-.7-.5c-.2 0 0 .2.2.5s.6.5.7.5c.2 0 0-.2-.2-.5zm-47.7-.7 2-1.3c0-.2.3-.3.6-.2.5.1.6.1.2-.4-.2-.3-.5-.6-.8-.6-.2 0-.5-.2-.5-.5 0-.2-.8-.8-1.7-1.2a28.3 28.3 0 0 1-6.8-3.8c-.5-.3-.6-.5-.6-1.2a74 74 0 0 1 1.7-8c0-.7-1 .5-2 2-.4.7-.9 1.3-1 1.3-.5 0-.5 0 .5-2.3.5-1.1.8-1.8.5-1.6-1 .8-5.1 8-5.1 8.8 0 .2.2.5.5.7.7.4.7.7 0 .8-.7.1-1 .8-.4.8.2 0 .4.2.4.4s-.2.3-.5.2c-.7-.2-.7.5.1 1.9.7 1 1.7 2.3 1.7 1.9 0-.1.4 0 .9.5 1 .9 4.2 2.6 4.4 2.4 0-.1 0-.2-.2-.2s-1-.5-1.7-1.2c-1.3-1.3-2.8-4-2.8-5 0-.3.1-.2.3.3.4.7.4.7.5-1.3a20 20 0 0 1 2.7-7.3l-.5 1.9a13 13 0 0 0-.7 6.7l1.4 2.8c1 1.5 1.3 2 2.7 2.7l1.9 1 2.3-1zm-2.7-2-.1-1.2c-.1-.9 0-1.1.2-1.1s.5.2.6.5c0 .3.3.5.6.6.4.1.4.1 0 .2-.2 0-.5.2-.6.5 0 .4-.6.8-.7.5zm-1.3-1.6.4-.5c.3-.2.4-.2.4.1 0 .3-.2.5-.4.5l-.4-.1zm94.3 3.7c-1.5-.3-2.6-.3-2.4 0 .1.2 1 .3 1.8.3 1.6 0 1.6 0 .6-.3zm12.6 0c-.4-.2-.7-.2-1.1 0-.6.3-.5.3.5.3s1.2 0 .6-.3zm-17.6-.2c-.5-.3-2-.8-2-.7 0 .4 1 1 1.7 1s.7 0 .3-.3zm-104.6-1c.6-.6.6-.6 0-.4l-.7.7c-.2.6 0 .5.7-.3zm66.5 0c-.4-.5-.9-.9-1-.9-.4 0 1.1 1.6 1.5 1.6l-.5-.8zm34.5.7-1-1c-.9-.9-.8-.6.2.6.3.4.8.6.8.4zm13.8-.2c0-.2-.8-.2-1.7-.2-.9 0-2 0-2.5-.2-.7-.2-.9-.1-.9.2 0 .4.4.4 2.6.4 1.3 0 2.5 0 2.5-.2zm-40.6-.8c.4-.9.3-1.6-.2-1.6-.1 0-.2.3-.2.8 0 .4-.2.8-.3 1-.3.1-.3.6 0 .6l.7-.8zm-33.7.2c1.4-.2 4.9-1.7 6.2-2.6l.6-.4-.8-.3-.8-.4.1-2.1.3-3.4c.2-1 0-1.7-.6-3.5-.5-1.2-1-2.4-1-2.7 0-.2-.3-.8-.6-1.1-.7-1-.7-1 .1-1.4 1-.5 1.2-.4 2.7 1.2.8.8 1.2 1.2 1 .7-1.5-2-3.4-3.5-4.5-3.5-.5 0-.7-.2-.7-.5 0-.6-1.2-1.8-1.5-1.6l.1.4c.5.3 1.2 2.7 1.3 4.6.3 4 .2 7.5-.1 8.5-.4 1-2.8 3.4-3.6 3.4l-2.1.6c-2 .8-2.7.8-4 .3-.8-.3-.9-.3-1 .2-.3 1 2 3 3.9 3.3l1.6.3c1.1.3 1.7.3 3.4 0zm76.9.1h-1.1c-.3 0-.1.1.5.1h.6zm-18.5-.9c0-.1-.1-.2-.3-.2l-.2.2c0 .2 0 .3.2.3s.3-.1.3-.3zm6.3.2h-.5.1c.3.1.5 0 .4 0zm-81.6-.3a1 1 0 0 0-.7 0l.3.1c.4 0 .5 0 .4-.1zm73.8-.7c-.2-.2-.4-.2-.4 0 0 .3.4.6.5.4l-.1-.4zm-94.4 0-.4-.2c-.2 0-.3.1-.3.3l.4.2c.3 0 .4-.1.3-.2zm112.8-.2c6-.7 8.2-1.2 11.6-2.4a69.5 69.5 0 0 0 22-14.4c.5-1.4.2-1.5-2.4-1a293.2 293.2 0 0 1-8.8 1.6c-.4.2-1 .3-1.1.2-.7-.3-4.5.5-5.8 1.1-.7.4-1.2.7-1 .8l7.9-1.3c1.9-.4 4-.8 4.7-.8l1.4-.2-1.2.4c-4 1.3-8 2.2-14 3a37.8 37.8 0 0 0-7.2 1.6h-.6l.6-.3.8-.4 1-.7 1-.5-1 .2a57.6 57.6 0 0 1-12.2 3c-.2-.4-.7 0-.7.5 0 .3 0 .3-.7 0-.9-.6-1.1-.4-.4.4.3.4.7 1 .8 1.5.2.8.2.8-.2.7-.4-.1-.6 0-.6.3s0 .3-.3.1c-.2-.2-.8.1-2.1 1.1-1 .8-1.7 1.4-1.6 1.5a9 9 0 0 0 2.3-.9c2.3-1 2.5-1 2-.6a19 19 0 0 1-6.3 3.4l-3.3 1.2 1.3.3c5.5 1.2 8.2 1.3 14.1.6zM270.1 94h.5c0 .1-.1.2-.4.2-.3 0-.4-.1-.1-.2zM199 109.5c-.2-.2-.3-.2-.3 0 0 .3.3.6.5.4 0 0 0-.3-.2-.4zm35.2.2c0-.2-.2-.3-.3-.4-.2 0-.3.1-.3.4 0 .2.1.4.3.3l.3-.3zm-35-.8c0-.3-.1-.4-.2-.3v.4c.3.4.5.3.3-.1zm9.8-1v-.6l-.4.7c-.3.4-.4.9-.3 1 .3.4.7-.2.7-1zm20.9.7c0-.2-1-.3-1.2-.1-.1.1.1.2.5.2h.7zm-31.2-.9-1-1c-.7-.4-.7-.3.2.5 1 1.1 1.2 1.2.8.5zm-64.7-3.2c.2-.4-.4-1-1-1-.4 0-.5-.2-.4-.4.1-.3 0-.5-.4-.5s-.6-.3-.6-.7c0-.4-.2-.8-.5-1-.5-.3-.5-.3 0-.5 1-.3 1.3-1 .8-2-.6-1.1-.6-1.3.2-1.4.3 0 .5-.2.5-.4-.3-1-.2-1.2.6-1.4l.8-.3-.4-2.3-.5-2.3-.8 1.2a14 14 0 0 0-2.2 4.3c0 .2.3 0 .6-.6.5-1 1-1.5 1-1l-.2.4a12 12 0 0 0-1 5.5c.1 2.2.8 3.5 2 4 .4 0 .8.3.8.4 0 .4.5.3.7 0zm-113.8-1a48 48 0 0 1-1.7-1.2c0 .2.4.5.8.8.9.6 1.4.8.9.4zm-2-1.5-.4-.4c-.5-.4-.5-.4-.1 0 .3.5.5.6.5.4zm173.8-.8-1-.4c-.2 0 0 .2.4.4 1 .5 1.5.5.6 0zm-58.7-.8-.3-.3-.2.1c0 .2.1.3.2.3h.3zM239 98c0-.4-1.3-.8-2.6-.8-1.5 0-1.3.3.5.7 1.8.4 2 .4 2 .1zm8.2 0s-.6-.4-1.4-.6c-1-.4-1.7-.4-2.6-.2-1.2.2-1.1.3.5.7 1.2.4 3.5.4 3.5.1zm-5-.1-.3-.3c-.2-.1-.3 0-.3.1 0 .2.1.3.3.3l.3-.1zm7.4-.4V97c0-.3.1-.3.9-.3.5 0 .9-.1.8-.3-.1-.2-1.6 0-4.4.4l-.9.2 1 .4c1 .5 2 .5 2.6.1zm-8.4 0c.1-.2 0-.3-.2-.3s-.4.1-.4.3c0 .1 0 .2.2.2l.4-.2zm-6.5-.3c0-.2-.2-.3-.5-.3-.5 0-.6 0-.2.3.5.3.7.3.7 0zm16.4-.2h-.5c-.2 0-.2.2.1.2.3 0 .5 0 .4-.2zm2-.5a1 1 0 0 0-.7 0l.3.1c.4 0 .6 0 .4-.1zm9.9 0h-.5c-.2 0-.2.1.1.1.3 0 .5 0 .4-.1zm-3-.4c.3-.1.4-.2.1-.2a3 3 0 0 0-.9.2c-.3.2-.4.3-.1.3a3 3 0 0 0 1-.3zm-222.2-.3c-.9-.6-1.6-.8-2.3-.5-.6.2-.6.2.1.4l1.1.3 1 .1c.6 0 .6 0 0-.3zm215.7.2h-.5c-.3 0-.2.1.1.1l.4-.1zm-217-2.5c-.1-.2-.4-.3-.6-.3l.1.3.7.2c.2 0 0 0-.1-.2zm61.5-.1c0-.3-2.2-1.2-2.8-1.2-1.2 0-.7.4.8.8 1.8.5 2 .5 2 .4zm-63-.7c0-.2-2.2-1.3-2.6-1.3l2.5 1.5v-.2zm250-1c0-.2-.1-.3-.2-.3-.2 0-.3.2-.3.4s.1.3.3.2l.2-.4zm-11.6-.5h-.7c-.3 0-.2.1.3.1.4 0 .6 0 .4-.1zm-34.6-1c.3-.5.3-.5-.3 0l-.6.7c0 .4.5 0 .9-.7zm-36.4-4.9-.1.5v.5c.2-.3.2-.7 0-1zm41.6.8c.2-.1.3-.4.2-.5-.2-.2 0-.3.4-.3s.7-.2.8-.4a67.6 67.6 0 0 0 14.7-6c4-2.1 6.3-4 9.5-7.6a19 19 0 0 1 2.7-2.8 23.4 23.4 0 0 0 4.3-6.8 120 120 0 0 0 2.5-8.2c.3-1-.6-.8-1.7.3a5 5 0 0 0-1.1 1.3c0 .3-5.6 3.7-8 4.9-1.2.7-5 2-5.6 2l-.8.5c-.7.7-2.5 2-4 3l-1 .6.7-1c1.6-2.1-1.1.2-4 3.4-2 2-2.9 2.8-5.5 4.5-3.5 2.3-6.6 4-8.6 4.5-1.4.3-2 .6-2.7 1.4-.5.5-1.5 1.5-2.2 2l-1.2 1.2 2.8-.8 3.5-.8.6-.2c0-.4-.8-.5-2.5-.7h.4c1-.1 1.9 0 2 .1l1.1.4c1 .2 1.3.5 2 2.3.2.7.2 1.2 0 2.2l-.4 1.5c0 .3.6.3 1 0zm-41.4-2-.1.2c0 .3 0 .5.1.4V84zm28.3.4c0-.1-.2-.2-.5-.2-.9 0-1.1.3-.3.4.4 0 .7 0 .8-.2zm22.9-.6c1.4-.4 5.3-2.6 4.7-2.6l-1.8.8a137.2 137.2 0 0 1-5.4 2.5c.4 0 1.5-.4 2.5-.7zm-24-.7c.2-.2.6-.6.7-.9l.3-.5-.8.5c-1.2 1-1.4 1.5-.3.9zm-26.8-.3-.1-.3-.3.3.1.3c.2 0 .3-.2.3-.3zm.3-1.3-.3-.4c-.1-.1-.3 0-.3.2 0 .3.2.4.3.4.1 0 .3 0 .3-.2zm30.2-1.3c.2-.3.1-.3-.2 0-.5.3-.5.5-.2.5.2 0 .3-.2.4-.5zm-30-.1c0-.3-.2-.5-.4-.6-.4-.1-.5.4-.2.7.3.3.6.2.6-.1zm.2-1c-.1-.1-.3-.3-.5-.3-.1 0-.2.2 0 .3 0 .1.2.3.4.3V79zm34-2.5c.6-.6 1.5-2 2-3.2.7-1.2 1.1-1.8 1-1.4l.1.9a41 41 0 0 0 9-3.8c3.4-1.7 8-5.8 11.2-9.8a50 50 0 0 0 7.8-13.3c.5 0-1.8 5.5-3.8 8.9l-.6 1 .8-.9c1-1 3.8-6.9 4.8-9.6 1-3 1.4-5.5.9-7.6-.2-.9-.5-1.8-.7-2-.3-.3-1.7.7-5 3.7-4.2 3.7-7.3 6-10.1 7.7-1 .5-1.8 1.4-3 3.1l-3 4c-1.6 1.5-1.6 1.2 0-.6a32 32 0 0 0 3.4-5c0-.7-1.2.5-3.7 3.7a72.6 72.6 0 0 1-8.3 8.8c0-.2-.7.2-1.7 1l-2.9 1.9c-1 .5-1 .5-.7 1 .3.3.5.4.7.2.4-.3 1-.3 1 0s-.2.6-.5 1c-.5.4-.4.4.3.3 1.4-.3 2.2.2 2.5 1.5.6 2.1 0 5.1-1.8 8-1.2 2-1 2.2.3.5zm4-1.6c1.9-1 1.9-1.3 0-.6l-1.3.2c-.4 0-.8.3-1.3 1-.8 1.3-.8 1.6-.1 1 .3-.3 1.5-1 2.7-1.6zm-200 1.3c0-.1-.2-.1-.4 0-.2 0-.2.1.1.1.3 0 .5 0 .4-.1zm-1.2-.2c0-.3-.7-.4-.9-.2 0 .2.1.3.4.3l.5-.1zm-1.4-.4c-.2-.2-3.5-.8-4.2-.8-.7 0 2.9 1 3.8 1 .3 0 .5 0 .4-.2zM24.5 75H23c-.4.1 0 .1.8.1h.7zm4-.5H28c-.3.1-.2.2.1.2.3 0 .5 0 .4-.2zm213-.5.7-.4-.7.2c-.3 0-.7.3-.9.4-.4.4.2.3 1-.2zm-214.8-.3a1 1 0 0 0-.6 0c-.2.1 0 .2.3.2.4 0 .5-.1.3-.2zM248 72c.2-.2.3-.3.1-.3l-.7.3c-.2 0-.2.2 0 .2l.6-.2zM236 67.6l.9-.4-.9.1-1.3.2c-.2 0-.3 0-.2.2.2.4.5.4 1.5-.1zm24.3-5.8c.3-.5.3-.5 0-.2-.3.2-.5.5-.5.6 0 .4.2.2.5-.4zm12.4-5.4 1.4-1c.4-.4.8-.6.8-.5 0 .3.8-.4 1-1 .2-.5.1-.4-.4.1-.3.5-.6.7-.6.6 0-.2-1.3.7-2.5 1.7-.9.7-.7.8.3.1zm4.8-3.5c0-.2-.1-.2-.3-.1l-.2.4c0 .1.1.2.2.1.2 0 .3-.3.3-.4zm1.9-1.2c0-.9-.4-1-1-.3-.7.7-.5 1 .5 1 .3 0 .5-.2.5-.7zm-25.2-6c0-.4-.5 0-.8.7-.3.5-.3.5.3 0 .3-.2.5-.6.5-.7zm1.9-1.6c0-.4-.1-.2-.5.6-.3.6-.3.6 0 .1.3-.2.5-.6.5-.7zm2.4-1.7c.2-.3.2-.3-.1-.2-.3.1-.5.3-.5.4 0 .4.2.3.6-.2zm13.3-7.7c-.2-.3-.4.2-.2.5.1.3.2.3.3 0v-.5zm-119 126c-.6-.4-.5-.4 0-.1.4.1.6.3.6.4 0 .2-.1.1-.7-.3zm131.7-91.1c.1-.2.3-.2.4-.1.4.2.3.3-.1.3-.3 0-.4 0-.3-.2z"/></svg>