<?xml version="1.0" encoding="UTF-8" standalone="no"?>
<!-- Created with Inkscape (http://www.inkscape.org/) -->

<svg
   width="210mm"
   height="297mm"
   viewBox="0 0 210 297"
   version="1.1"
   id="svg1"
   inkscape:version="1.3.2 (091e20ef0f, 2023-11-25, custom)"
   sodipodi:docname="madeline.svg"
   xmlns:inkscape="http://www.inkscape.org/namespaces/inkscape"
   xmlns:sodipodi="http://sodipodi.sourceforge.net/DTD/sodipodi-0.dtd"
   xmlns="http://www.w3.org/2000/svg"
   xmlns:svg="http://www.w3.org/2000/svg">
  <sodipodi:namedview
     id="namedview1"
     pagecolor="#ffffff"
     bordercolor="#000000"
     borderopacity="0.25"
     inkscape:showpageshadow="2"
     inkscape:pageopacity="0.0"
     inkscape:pagecheckerboard="0"
     inkscape:deskcolor="#d1d1d1"
     inkscape:document-units="mm"
     inkscape:zoom="0.59720238"
     inkscape:cx="396.01316"
     inkscape:cy="560.94887"
     inkscape:window-width="1920"
     inkscape:window-height="1080"
     inkscape:window-x="0"
     inkscape:window-y="0"
     inkscape:window-maximized="1"
     inkscape:current-layer="layer1-2" />
  <defs
     id="defs1" />
  <g
     inkscape:label="Layer 1"
     inkscape:groupmode="layer"
     id="layer1">
    <g
       inkscape:groupmode="layer"
       id="layer1-2"
       inkscape:label="path-test"
       style="display:inline"
       transform="matrix(0.26458333,0,0,0.26458333,-147.58278,-5.7617913)">
      <path
         style="fill:#2a122d;fill-opacity:0;stroke:#000000;stroke-opacity:1"
         d="m 664.59109,788.24359 c -1.3035,5.41158 -6.28079,10.25883 -12.55092,14.49041 -6.27013,4.23158 -19.63542,9.6337 -25.15363,13.24675 -5.51822,3.61306 -15.89427,14.73887 -19.12113,20.28466 -3.22687,5.54579 -5.65319,11.3114 -6.60035,20.09793 -0.94716,8.78652 0.408,11.30418 3.86061,26.02178 3.45261,14.71759 19.3765,25.94631 19.3765,25.94631 0,0 -12.16444,-32.77277 -6.34006,-57.18584"
         id="path49" />
      <path
         style="fill:#2a122d;fill-opacity:0;stroke:#000000;stroke-opacity:1"
         d="m 649.63648,803.96161 c 0,0 5.79945,-8.1524 7.6979,-16.04105 1.89845,-7.88864 1.33753,-11.03886 -0.62139,-16.16853 -1.95893,-5.12967 -9.68325,-18.85981 -15.75472,-25.83343 -6.07146,-6.97363 -14.45833,-17.66952 -21.39508,-22.96127 -6.93675,-5.29175 -23.55009,-16.79328 -29.99135,-25.96557 -6.44126,-9.1723 -11.39086,-16.21583 -11.95298,-35.66629 -0.56212,-19.45045 -1.06186,-24.67931 4.40731,-38.84207 5.46916,-14.16276 10.40868,-20.38456 18.01435,-27.89681 7.60566,-7.51225 21.06875,-16.60063 31.34526,-20.70309 10.27652,-4.10247 21.89405,-7.65815 36.6639,-10.19295 14.76984,-2.53479 26.27377,-2.22044 36.69453,-2.34518 10.42076,-0.12474 28.18711,0.53969 42.04506,-4.60886 13.85795,-5.14855 18.58851,-12.67854 24.76375,-22.4697 6.17524,-9.79117 8.01968,-21.68998 7.55799,-29.56587 -0.46169,-7.87589 -4.33666,-16.25558 -8.20027,-21.253 -3.86361,-4.99741 -19.78773,-20.12124 -23.95224,-33.77417 -4.16451,-13.65293 -6.49599,-15.96856 -5.03134,-35.95019 1.46464,-19.98163 4.74085,-29.09692 11.35643,-41.40483 6.61558,-12.30791 11.33705,-15.11165 22.87615,-23.58953 11.5391,-8.47787 35.33382,-18.45892 44.5135,-21.90489"
         id="path50" />
      <path
         style="fill:#2a122d;fill-opacity:0;stroke:#000000;stroke-opacity:1"
         d="m 822.74359,332.47005 c 0,0 -1.43759,-10.78851 -4.22127,-16.92094 -2.78367,-6.13244 -5.96515,-11.23432 -10.16785,-15.01051 -4.20271,-3.77619 -8.83594,-6.8922 -15.37692,-6.60172 -6.54098,0.29049 -12.2972,0.599 -16.80493,2.13251 0,0 1.87937,-5.3724 4.43871,-6.92532 2.55934,-1.55292 4.97562,-2.49174 10.19424,-3.00287 5.21862,-0.51112 11.7252,-0.17798 14.1329,0.56928 2.4077,0.74725 10.05575,2.66502 12.87978,5.31993 2.82403,2.65491 6.62209,5.50826 8.59829,9.6133 1.9762,4.10505 3.81669,7.95244 4.46333,12.16677 0.64664,4.21433 0.83872,8.39212 1.04347,11.63372"
         id="path51" />
      <path
         style="fill:#2a122d;fill-opacity:0;stroke:#000000;stroke-opacity:1"
         d="m 826.7477,334.91969 c 0,0 7.87616,-10.5865 10.29429,-16.85133 2.41814,-6.26483 3.80359,-14.74957 3.72652,-21.33824 -0.0771,-6.58867 -3.94051,-14.54436 -7.7289,-19.11308 -3.78838,-4.56872 -9.21918,-10.81481 -14.32639,-14.98332 -5.10722,-4.1685 -10.10898,-6.81691 -15.28488,-8.50654 -5.1759,-1.68962 -9.32995,-2.6604 -16.53159,-2.67382 -7.20163,-0.0134 -6.07023,-0.29471 -10.19767,0.38626 0,0 8.1531,-4.08181 15.65334,-4.84933 7.50025,-0.76751 13.62376,-1.26446 21.32757,0.38599 7.70381,1.65044 20.23579,7.00945 24.45756,9.93638 4.22178,2.92694 9.31073,7.55273 13.99781,13.55742 4.68708,6.00468 5.61401,12.16995 5.93367,15.47912 0.31965,3.30917 -0.27246,14.2662 -1.64009,18.89653 -1.36762,4.63033 -4.67551,10.67787 -8.12092,15.4442 -3.44542,4.76632 -9.5473,10.61776 -12.68677,13.17855"
         id="path52" />
      <path
         style="fill:#2a122d;fill-opacity:0;stroke:#000000;stroke-opacity:1"
         d="m 851.5718,317.30857 c 0,0 11.19516,-1.2412 17.06653,-1.33345 5.87137,-0.0922 10.63255,-0.10275 17.18292,1.1854 6.55037,1.28816 15.93384,5.5518 15.93384,5.5518 0,0 3.60069,-3.99397 6.89068,-6.75568 3.28999,-2.76171 7.14613,-5.1881 10.33988,-6.28308 3.19374,-1.09498 12.77551,-5.1498 20.88931,-5.21704 8.1138,-0.0673 15.71138,3.25512 19.942,6.22401 4.23062,2.96889 9.21225,8.66223 11.54079,11.47467 2.32854,2.81244 5.60999,8.99394 5.60999,8.99394 0,0 -6.53242,-0.7812 -10.58013,-1.1833 -4.04772,-0.40211 -6.21327,-1.18666 -10.67941,-1.45604 -4.46613,-0.26939 -10.33426,0.18449 -10.33426,0.18449"
         id="path53" />
      <path
         style="fill:#2a122d;fill-opacity:0;stroke:#000000;stroke-opacity:1"
         d="m 922.44876,326.64636 c 0,0 3.46248,-0.72357 9.91675,-0.95099 6.45426,-0.22741 9.61682,1.71625 12.07883,3.2057 2.46201,1.48945 6.05093,5.17146 8.40436,8.14016 2.35344,2.9687 7.97472,11.3229 10.88986,17.44264 2.91514,6.11974 5.15859,9.38627 6.93444,16.42539 1.77584,7.03913 0.33254,15.5242 0.33254,15.5242 0,0 -3.93271,-4.09289 -8.57698,-7.98212 -4.64427,-3.88923 -8.93242,-5.64506 -13.5911,-7.75082 -4.65869,-2.10576 -12.86976,-6.3474 -17.13106,-6.71602 0,0 10.72963,3.54366 13.7696,10.2951 3.03997,6.75143 2.45083,8.77675 0.91471,11.99251 -1.53612,3.21575 -4.22181,3.64761 -4.22181,3.64761"
         id="path54" />
      <path
         style="fill:#2a122d;fill-opacity:0;stroke:#000000;stroke-opacity:1"
         d="m 921.74946,367.06027 c 0,0 5.16183,4.07866 9.81731,10.72766 4.65547,6.64899 12.94919,21.10407 13.88071,23.17518 0.93152,2.07112 6.01678,11.33008 7.00988,14.17593 0.99311,2.84584 2.19968,2.48023 3.49072,3.46823 1.29105,0.988 3.16793,3.07575 7.36237,6.66402 4.19444,3.58827 8.16506,8.62712 9.43232,12.64121 1.26725,4.0141 1.01873,9.40695 0.33716,14.0737 -0.68157,4.66675 -4.12102,11.99462 -5.82934,15.39076 -1.70833,3.39613 -6.27929,15.27726 -13.86846,23.35587 -7.58917,8.0786 -23.50761,9.31855 -33.36341,10.35558 -9.8558,1.03704 -28.60831,0.43377 -32.74237,-0.79463 0,0 10.80295,3.76891 16.26397,6.86668 5.46102,3.09777 7.06026,4.24815 9.30427,5.47743 2.244,1.22927 2.41444,0.69099 3.98026,0.50151 1.56581,-0.18948 5.23068,-1.21575 11.75684,-1.19121 6.52616,0.0245 10.28299,1.59803 11.63053,2.94088 1.34754,1.34284 4.67079,6.93412 5.1686,10.5044 0.49781,3.57027 0.16914,10.87235 -0.19866,14.81555 -0.3678,3.9432 -0.76134,6.54421 -3.28137,8.98851 -2.52003,2.44429 -11.87078,6.33208 -20.88639,6.89961 -9.01562,0.56753 -15.06634,0.37112 -20.65174,-0.50455 -5.58541,-0.87567 -12.87882,-2.49296 -12.87882,-2.49296"
         id="path55" />
      <path
         style="fill:#2a122d;fill-opacity:0;stroke:#000000;stroke-opacity:1"
         d="m 872.69157,331.84925 c 0,0 7.45764,-3.90011 11.66148,-5.16849 4.20384,-1.26839 9.23726,-2.0995 12.26581,-1.12319 3.02855,0.97632 8.47936,7.44753 9.41439,9.59534 0.93502,2.14782 8.73706,13.09204 9.94942,21.07757 1.21236,7.98553 1.95827,23.28781 1.33929,30.31115 -0.61898,7.02335 -7.45503,40.90656 -10.40469,51.90315 0,0 -1.63508,-25.59065 -3.36324,-36.58292 -1.72816,-10.99227 -4.42411,-19.00797 -7.69091,-25.79406 -3.26679,-6.78609 -6.51779,-15.38188 -11.91791,-21.91993 0,0 4.8734,14.65619 3.75004,26.4808 -1.12337,11.82461 -6.25442,22.12341 -7.98273,28.49604 -1.72832,6.37262 -3.90535,11.85336 -5.95598,17.50748 -2.05064,5.65411 -4.33967,9.90427 -4.33967,9.90427 0,0 -2.02866,-4.71987 -2.35624,-11.90828 -0.32757,-7.1884 1.60379,-15.95624 2.08306,-22.42408 0.47928,-6.46785 2.05032,-10.26467 2.14107,-16.57813 0.0908,-6.31345 -0.66928,-11.65572 -1.40078,-14.69678 0,0 -2.03372,12.58276 -5.85013,20.58692 -3.81641,8.00416 -14.71342,19.102 -16.28827,23.2229 -1.57486,4.1209 -2.54564,9.65334 -2.56534,15.14248 -0.0197,5.48914 1.91319,17.88641 1.91319,17.88641 0,0 -6.32816,-1.3414 -10.91419,-3.81486 -4.58602,-2.47347 -8.56455,-6.07084 -13.01155,-11.6907 -4.44701,-5.61986 -5.41638,-12.00319 -5.92854,-17.61749 -0.51216,-5.6143 2.11949,-13.11009 4.14417,-16.37682 2.02469,-3.26672 4.14682,-6.97549 4.14682,-6.97549"
         id="path56" />
      <path
         style="fill:#2a122d;fill-opacity:0;stroke:#000000;stroke-opacity:1"
         d="m 817.30975,424.50248 c 0,0 -3.04775,1.87643 -4.43962,4.83184 -1.39188,2.9554 0.32135,14.53932 0.32135,14.53932 0,0 -6.91704,-1.17118 -10.59625,-4.54554 -3.67921,-3.37436 -5.53086,-8.87524 -6.01148,-12.73429 -0.48062,-3.85906 0.0649,-7.21351 0.0649,-7.21351"
         id="path57" />
      <path
         style="fill:#2a122d;fill-opacity:0;stroke:#000000;stroke-opacity:1"
         d="m 796.5483,432.79578 c -0.50742,-0.17836 -4.57545,2.75148 -6.15302,6.26331 -1.57756,3.51183 -0.68518,10.17812 -0.68518,10.17812 0,0 -8.32959,-2.17806 -14.44525,-8.0051 -6.11566,-5.82704 -8.26784,-10.56159 -9.36363,-17.33837 -1.09578,-6.77678 -0.86934,-10.79151 0.4118,-16.649 1.28114,-5.85749 4.96868,-11.2226 8.11445,-14.70176 3.14577,-3.47915 8.66599,-7.00896 12.62393,-8.5892 3.95794,-1.58023 5.82622,-2.43042 11.06071,-2.18394"
         id="path58" />
      <path
         style="fill:#2a122d;fill-opacity:0;stroke:#000000;stroke-opacity:1"
         d="m 818.76268,455.51801 c 0,0 9.24416,9.20109 11.46515,12.35724 2.22098,3.15615 3.88112,7.22807 5.52107,10.35546 1.63994,3.12739 5.49366,10.72999 7.1118,15.00534 1.61814,4.27535 4.12396,15.42099 5.07992,21.78064 0.95595,6.35965 1.81672,17.28079 0.88339,25.35369 -0.93333,8.07289 -4.33519,20.03264 -7.15473,25.82195 -2.81954,5.78931 -13.64238,19.78823 -13.64238,19.78823"
         id="path59" />
      <path
         style="fill:#2a122d;fill-opacity:0;stroke:#000000;stroke-opacity:1"
         d="m 822.0533,461.0557 c 0,0 -6.53946,-0.67705 -10.35353,1.76133 -3.81406,2.43838 -5.23475,6.59556 -5.70008,10.95052 -0.46532,4.35496 -0.11235,9.32539 1.61706,12.43137 1.7294,3.10599 5.23753,8.54883 10.36306,10.39219 5.12553,1.84335 9.3458,1.37692 13.45494,0.69077 4.10914,-0.68615 9.66793,-3.76524 9.66793,-3.76524"
         id="path60" />
      <path
         style="fill:#2a122d;fill-opacity:0;stroke:#000000;stroke-opacity:1"
         d="m 819.51271,478.55869 c 0,0 -0.39205,-2.65316 0.89208,-4.08372 1.28413,-1.43056 3.77154,-0.69474 5.65365,0.52814 1.88211,1.22287 4.18604,2.67858 5.3093,4.66385 1.12326,1.98526 1.61826,4.00325 0.44962,5.17449 -1.16863,1.17124 -3.81564,0.29785 -3.81564,0.29785"
         id="path61" />
      <path
         style="fill:#2a122d;fill-opacity:0;stroke:#000000;stroke-opacity:1"
         d="m 866.77368,408.07289 c -3.89858,2.07076 -8.4848,6.554 -11.34038,10.02085 -2.85557,3.46686 -3.14292,4.03872 -4.44196,7.50948 -1.29903,3.47077 0.57808,5.97337 0.57808,5.97337 0,0 1.70609,-0.96898 3.45356,-2.02147 1.74746,-1.05249 4.43216,-3.29907 5.92696,-4.22435 1.49481,-0.92529 4.79146,-3.29371 4.79146,-3.29371"
         id="path62" />
      <path
         style="fill:#2a122d;fill-opacity:0;stroke:#000000;stroke-opacity:1"
         d="m 883.29285,404.14924 c 0,0 3.87817,1.84701 5.325,3.97985 0,0 -1.01641,1.27722 -3.31623,2.4491 -2.29983,1.17188 -5.36618,3.26516 -5.36618,3.26516"
         id="path63" />
      <path
         style="fill:#2a122d;fill-opacity:0;stroke:#000000;stroke-opacity:1"
         d="m 919.82171,388.80957 c 7.59133,1.5984 13.45386,4.00539 13.45386,4.00539 0,0 -4.60137,1.58719 -8.56382,2.643 -3.96244,1.0558 -5.99178,1.19899 -5.99178,1.19899"
         id="path64" />
      <path
         style="fill:#2a122d;fill-opacity:0;stroke:#000000;stroke-opacity:1"
         d="m 878.5028,448.15038 c 0,0 7.35638,-0.94976 11.64294,-2.56984 4.28656,-1.62009 5.93519,-3.12152 7.77484,-4.63765 1.83965,-1.51612 3.55087,-3.67926 3.55087,-3.67926 0,0 -1.91864,-0.99093 -3.25322,-2.1755 -1.33458,-1.18457 -2.77282,-3.05501 -2.77282,-3.05501"
         id="path65" />
      <path
         style="fill:#2a122d;fill-opacity:0;stroke:#000000;stroke-opacity:1"
         d="m 922.84097,448.01753 c 0,0 4.73328,0.62756 7.611,0.0719 2.87773,-0.55564 4.25594,-1.76842 4.94069,-3.08825 0.68475,-1.31983 0.8864,-3.78505 0.86536,-5.03622 -0.021,-1.25116 -0.28575,-2.73929 -1.0508,-3.88093 -0.76504,-1.14165 -2.18009,-0.48595 -3.1829,-0.51944 -1.00281,-0.0335 -3.55587,0.0567 -5.51117,-0.0825 -1.9553,-0.13914 -0.10361,-0.1591 -0.77059,-0.48031 -0.66698,-0.3212 -1.47048,-1.4999 -1.47048,-1.4999"
         id="path66" />
      <path
         style="fill:#2a122d;fill-opacity:0;stroke:#000000;stroke-opacity:1"
         d="m 927.65382,425.82481 c 0,0 5.59671,-0.39048 7.09001,-0.75503 1.4933,-0.36456 5.06257,-1.79032 6.23889,-2.80703 1.17633,-1.01672 3.62147,-2.93797 4.39747,-4.29274 0,0 -1.94197,-0.78535 -2.70387,-1.19115 -0.7619,-0.40579 -3.52066,-2.2986 -3.52066,-2.2986"
         id="path67" />
      <path
         style="fill:#2a122d;fill-opacity:0;stroke:#000000;stroke-opacity:1"
         d="m 918.95414,466.89344 c 0,0 4.00286,0.6019 6.87621,0.59941 2.87336,-0.002 6.88443,0.18641 9.90895,-0.85485 3.02453,-1.04125 5.19372,-2.66144 6.85127,-4.62551 1.65755,-1.96406 3.9349,-5.31291 3.9349,-5.31291"
         id="path68" />
      <path
         style="fill:#2a122d;fill-opacity:0;stroke:#000000;stroke-opacity:1"
         d="m 934.34989,501.63356 c 0,0 -1.59413,2.61606 -2.06589,4.80172 -0.47175,2.18565 -0.37548,4.35053 -0.37548,4.35053"
         id="path69" />
      <path
         style="fill:#2a122d;fill-opacity:0;stroke:#000000;stroke-opacity:1"
         d="m 951.32924,496.27906 c 0,0 5.02805,4.79466 6.27513,7.40175 1.24708,2.60708 1.99009,7.35175 1.86848,11.28519 -0.1216,3.93345 -0.34502,9.46786 -1.58608,13.05461 -1.24107,3.58675 -4.46183,10.91325 -4.46183,10.91325 l -2.12077,3.24637"
         id="path70" />
      <path
         style="fill:#2a122d;fill-opacity:0;stroke:#000000;stroke-opacity:1"
         d="m 953.72316,375.27075 c 0,0 4.5133,7.15051 5.44,11.55456 0.92669,4.40404 0.27867,7.97068 1.07918,11.57661 0.80051,3.60594 2.61815,8.39484 5.89842,12.75438 3.28028,4.35955 9.76529,7.7437 15.16419,9.40232 5.39889,1.65863 12.15464,-0.0729 15.70663,-1.83499 3.55202,-1.76206 11.99782,-7.47974 14.04892,-11.1166 2.0511,-3.63686 3.2986,-9.14558 2.878,-13.21394 -0.4206,-4.06836 -2.2019,-8.3968 -4.0117,-10.88314 -1.8098,-2.48635 -8.0814,-7.41553 -8.0814,-7.41553 0,0 5.3664,0.77033 8.9639,2.4383 3.5974,1.66796 7.3989,7.42201 8.5587,9.77812 1.1598,2.3561 2.9184,7.26938 2.9706,12.23558 0.052,4.96619 -1.8324,11.58664 -3.0871,14.64319 -1.2546,3.05654 -4.6818,8.61101 -6.4932,10.326 -1.8114,1.71499 -2.9394,2.86287 -2.9394,2.86287"
         id="path71" />
      <path
         style="fill:#2a122d;fill-opacity:0;stroke:#000000;stroke-opacity:1"
         d="m 985.55767,430.10976 c 0,0 10.22766,1.11311 15.83623,1.08086 5.6086,-0.0323 10.7039,-0.45342 17.3947,-2.52314 6.6908,-2.06972 12.9261,-5.48239 16.4203,-8.95675 3.4941,-3.47437 4.6406,-8.26502 4.8832,-12.97711 0.2425,-4.71209 -2.6555,-15.19909 -3.5656,-19.60682 -0.9101,-4.40772 -2.3861,-12.04273 -1.0561,-18.0427 1.3301,-5.99997 3.15,-9.93725 6.4422,-15.10712 3.2923,-5.16987 9.8315,-12.7391 12.2782,-15.14699 2.4466,-2.4079 8.312,-7.2931 12.7769,-10.45165 4.4649,-3.15856 18.5608,-11.54621 23.2316,-13.31019 4.6709,-1.76399 10.9962,-3.6214 17.287,-3.97393 6.2908,-0.35253 11.0183,1.81466 13.4181,5.27988 2.3998,3.46521 1.7364,9.61747 -0.6293,11.78764 0,0 0.2819,-3.71198 -2.2934,-5.27409 -2.5754,-1.56212 -7.0576,-1.95644 -11.1882,-1.82561 -4.1305,0.13082 -10.7076,1.55395 -18.3079,5.1978 -7.6003,3.64385 -10.9041,5.20968 -12.9984,7.61104 -2.0943,2.40136 -5.1559,9.12384 -6.0317,14.27196 -0.8759,5.14811 0.3022,11.52951 2.3358,16.24994 2.0336,4.72042 8.3958,16.82783 11.2064,20.15672"
         id="path72" />
      <path
         style="fill:#2a122d;fill-opacity:0;stroke:#000000;stroke-opacity:1"
         d="m 1127.6716,400.97999 c 1.9928,-2.69116 7.3759,-7.40763 11.9882,-10.11677 4.6123,-2.70913 9.6834,-5.15327 15.5506,-5.12757 5.8672,0.0257 12.4324,1.52898 17.6787,4.62872 5.2463,3.09975 10.0675,10.38671 12.1866,13.95153 2.1191,3.56482 4.3146,11.84859 4.3146,11.84859 0,0 1.3704,-7.35711 0.913,-12.858 -0.4575,-5.50088 -1.0724,-9.28513 -4.9738,-18.15559 -3.9013,-8.87046 -10.3591,-13.76567 -16.4611,-16.79125 -6.102,-3.02557 -13.7951,-5.81866 -23.2685,-7.09323 -9.4733,-1.27457 -17.3293,-1.78591 -24.7677,-0.51761 -7.4383,1.26831 -14.3964,4.71557 -20.7774,9.09438 -6.3809,4.37881 -15.5509,16.11957 -18.1322,20.16242 -2.5812,4.04284 -5.5611,14.481 -6.7235,19.50693 -1.1652,5.02593 -0.3428,11.17058 -0.01,12.76468 0.3327,1.5941 2.0109,16.5812 0.8401,22.05737 -1.1708,5.47618 -5.2365,12.99256 -9.4882,18.01318 -4.2517,5.02062 -16.9705,12.22039 -21.4475,13.99621 -4.477,1.77583 -14.7327,5.22641 -25.214,5.13301 -10.4813,-0.0934 -19.0158,-5.14459 -19.0158,-5.14459 0,0 -7.38536,-3.55355 -12.57409,-8.33687"
         id="path73" />
      <path
         style="fill:#2a122d;fill-opacity:0;stroke:#000000;stroke-opacity:1"
         d="m 1152.3167,371.86041 c -10.4037,0.63632 -16.0232,7.16106 -18.2641,9.85921 -2.2408,2.69816 -7.5483,8.10534 -7.9517,14.09903 -0.4034,5.99368 -0.4708,14.13682 2.1302,21.69141 2.601,7.55459 8.672,16.7 11.5566,20.53798 2.8847,3.83797 6.9524,8.44336 10.1748,13.86909 3.2224,5.42572 4.3201,14.80002 4.3201,14.80002"
         id="path74" />
      <path
         style="fill:#2a122d;fill-opacity:0;stroke:#000000;stroke-opacity:1"
         d="m 1113.461,499.17555 c 0,0 5.4162,-8.58967 14.4195,-15.77941 9.0032,-7.18973 16.9841,-12.1298 26.823,-13.55008 9.8389,-1.42027 16.0389,-1.02334 26.3114,1.51782 10.2724,2.54117 24.1409,9.87622 31.6547,14.70138 7.5138,4.82516 13.4543,10.63128 20.3478,17.25124 6.8935,6.61996 11.2193,12.62538 14.2426,16.03529 3.0233,3.40991 6.1449,7.81849 10.7764,10.2794 4.6315,2.46092 7.2392,3.76115 12.4985,3.88134 5.2594,0.12019 10.9774,-1.67053 10.9774,-1.67053"
         id="path75" />
      <path
         style="fill:#2a122d;fill-opacity:0;stroke:#000000;stroke-opacity:1"
         d="m 1250.6855,520.22095 c 0,0 6.2279,3.83116 12.1121,4.67718 5.8841,0.84602 13.1679,-0.19035 18.4972,-1.60027 5.3293,-1.40991 16.2462,-7.38121 21.2465,-11.00485 5.0003,-3.62364 10.1361,-11.60506 12.6314,-17.37315 2.4953,-5.76808 3.7981,-14.68 3.1856,-19.59953 -0.6125,-4.91954 -3.2158,-9.42773 -5.5769,-12.14698 -2.361,-2.71926 -2.8476,-2.75469 -2.8476,-2.75469"
         id="path76" />
      <path
         style="fill:#2a122d;fill-opacity:0;stroke:#000000;stroke-opacity:1"
         d="m 1316.3596,461.05973 c 0,0 -2.7761,-2.24522 -6.4772,-1.96321 -3.7011,0.28202 -5.9479,-0.14931 -10.1447,2.09278 -4.1967,2.24209 -8.9016,5.48447 -11.6126,8.50168 0,0 -1.3063,-3.3917 -0.9596,-6.21336 0.3467,-2.82165 1.5158,-5.22627 4.9119,-8.6341 3.396,-3.40783 10.3424,-4.43378 14.6091,-4.29281 4.2668,0.14098 10.6687,1.41178 13.3962,3.17997 2.7274,1.76819 7.0107,5.45193 8.8613,9.6071 1.8506,4.15518 2.4092,12.26684 2.1433,17.111 -0.266,4.84416 -3.9057,19.22176 -6.1169,24.85161 -2.2113,5.62985 -7.8819,13.24425 -12.5478,17.74253 -4.6659,4.49829 -17.8744,13.09113 -25.0931,16.04836 -7.2188,2.95724 -12.361,5.5147 -19.5505,5.22869 -7.1895,-0.28601 -14.4212,-3.74878 -19.3434,-6.34603 -4.9221,-2.59726 -15.4729,-10.91153 -20.2889,-16.43637 -4.816,-5.52485 -9.2061,-8.2564 -14.0517,-11.9549 -4.8455,-3.69851 -18.7843,-10.35971 -26.3024,-11.81211 -7.5181,-1.45239 -13.4685,-0.52902 -20.5766,2.39837 -7.108,2.92739 -18.4416,12.18247 -24.0989,20.61404 -5.6572,8.43156 -7.031,16.16764 -10.4573,24.55217 -3.4263,8.38454 -5.2712,12.42134 -5.2712,12.42134"
         id="path77" />
      <path
         style="fill:#2a122d;fill-opacity:0;stroke:#000000;stroke-opacity:1"
         d="m 962.50037,509.84274 c 0,0 6.15668,-2.33035 12.68793,-0.74035 6.53126,1.59001 8.15265,4.29179 9.57788,6.01766 1.42522,1.72587 4.21114,6.15416 4.21114,6.15416"
         id="path78" />
      <path
         style="fill:#2a122d;fill-opacity:0;stroke:#000000;stroke-opacity:1"
         d="m 963.54644,578.36214 c 0,0 -3.62719,-5.15812 -5.51524,-10.56724 -1.88804,-5.40912 -3.02634,-10.61637 -1.42136,-16.30905 1.60498,-5.69268 6.4999,-12.56348 11.16414,-16.91506 4.66424,-4.35157 12.0803,-7.98707 18.57353,-9.22918 6.49323,-1.2421 11.14068,-1.36644 16.80899,-0.9478 5.6683,0.41863 14.1564,2.4274 14.1564,2.4274"
         id="path79" />
      <path
         style="fill:#2a122d;fill-opacity:0;stroke:#000000;stroke-opacity:1"
         d="m 1009.1608,523.43963 c 0,0 0.3382,-3.51155 3.0725,-8.21142 2.7344,-4.69986 8.3969,-7.94758 13.6304,-10.35946 5.2335,-2.41188 10.4921,-3.00738 15.5633,-2.23654 5.0712,0.77084 9.3869,2.73881 13.2296,6.11362 3.8426,3.3748 7.3973,7.45714 10.3999,11.88287 3.0026,4.42573 6.3331,10.24545 8.0882,14.46076 1.755,4.2153 4.4682,11.4226 5.2036,16.58288 0.7354,5.16027 1.0931,20.72737 0.9153,27.22769 -0.1778,6.50032 -1.5516,24.03545 -6.7263,37.55882 0,0 -9.1614,4.37882 -17.7448,4.81772 -8.5833,0.4389 -20.13,0.57136 -26.7863,-0.39641 -6.6562,-0.96778 -16.9663,-4.14981 -16.9663,-4.14981"
         id="path80" />
      <path
         style="fill:#2a122d;fill-opacity:0;stroke:#000000;stroke-opacity:1"
         d="m 1059.8286,509.09867 c 0,0 -0.1818,-1.86366 3.1024,-2.17578 3.2842,-0.31212 3.2027,-0.26408 5.4314,1.18001 2.2286,1.4441 3.1364,4.56901 3.1364,4.56901"
         id="path81" />
      <path
         style="fill:#2a122d;fill-opacity:0;stroke:#000000;stroke-opacity:1"
         d="m 1067.2524,519.03874 c 0,0 0.1774,-2.46623 2.5197,-3.94401 2.3422,-1.47778 3.2756,-1.14104 5.1954,-0.26002 1.9198,0.88102 3.0312,3.86217 3.3095,4.76994 0.2782,0.90776 0.5764,5.00579 0.5764,5.00579"
         id="path82" />
      <path
         style="fill:#2a122d;fill-opacity:0;stroke:#000000;stroke-opacity:1"
         d="m 1074.1974,530.39747 c 0,0 0.6749,-3.20701 3.3038,-4.29816 2.629,-1.09115 4.0598,0.75243 4.8665,1.86153 0.8066,1.1091 1.6033,4.30131 1.8321,5.98158 0.2287,1.68026 0.011,5.04154 0.011,5.04154"
         id="path83" />
      <path
         style="fill:#2a122d;fill-opacity:0;stroke:#000000;stroke-opacity:1"
         d="m 1079.6911,544.09218 c 0,0 0.7869,-2.64572 3.294,-3.15319 2.507,-0.50747 3.4022,-0.50955 4.3481,0.97691 0.9459,1.48646 1.3118,3.51681 0.7845,5.89089 -0.5273,2.37408 -1.8015,6.19944 -2.9839,8.01983 -1.1824,1.82038 -3.4986,4.21809 -3.4986,4.21809"
         id="path84" />
      <path
         style="fill:#2a122d;fill-opacity:0;stroke:#000000;stroke-opacity:1"
         d="m 908.10913,570.18512 c 0,0 1.55816,4.60338 1.74882,7.78138 0.19067,3.178 0.87956,6.28216 0.43086,9.04904 0,0 8.01709,4.33548 13.64798,10.6991 5.63089,6.36362 6.49973,15.74777 5.4351,20.53203 0,0 -9.25786,-0.98857 -15.21175,0.20227"
         id="path85" />
      <path
         style="fill:#2a122d;fill-opacity:0;stroke:#000000;stroke-opacity:1"
         d="m 929.42924,602.74883 c 0,0 1.68167,-3.05953 3.33978,-3.83025 1.6581,-0.77073 5.19498,-1.75606 6.72545,-1.63582 1.53046,0.12023 5.92271,-0.29638 7.08547,-0.88213 1.16277,-0.58575 4.31628,-3.06824 4.65209,-3.94232 0.33581,-0.87408 1.0502,-3.83803 2.15105,-5.26778 1.10086,-1.42974 2.67379,-4.0008 6.41203,-4.93717 3.73824,-0.93638 8.46318,-1.22104 11.60305,-1.03591 3.13988,0.18514 8.80198,1.70017 12.81058,3.44662 4.00859,1.74645 9.64342,5.08318 13.65937,8.65088 4.01599,3.56771 7.35799,8.95483 8.29679,14.18876 0.9387,5.23392 0.367,12.44696 -0.8175,16.50807 -1.1846,4.06112 -6.06394,10.37437 -9.14264,12.83184 -3.0787,2.45747 -10.25208,6.56754 -10.25208,6.56754"
         id="path86" />
      <path
         style="fill:#2a122d;fill-opacity:0;stroke:#000000;stroke-opacity:1"
         d="m 968.65891,610.73272 c 0,0 6.57222,5.43192 9.33475,10.31827 2.76253,4.88635 4.04027,13.20676 4.66897,17.8469 0.6287,4.64014 1.59815,11.17797 0.55874,14.84189 -1.03942,3.66391 -4.40703,6.73948 -7.63002,8.96904 -3.223,2.22956 -11.01241,7.02479 -14.98938,8.58451 -3.97696,1.55972 -9.40845,3.53696 -11.82003,4.02088 0,0 -2.21839,3.10476 -5.1387,5.12033 -2.92032,2.01558 -8.05934,6.02564 -11.69697,6.70328 -3.63763,0.67764 -9.76547,0.17505 -12.71799,-0.29568 -2.95252,-0.47072 -10.70349,-2.91289 -14.86962,-4.88409 -4.16613,-1.9712 -10.64624,-5.0816 -14.10684,-8.00595 -3.4606,-2.92435 -8.40638,-9.19328 -9.29232,-11.67351 l -0.17125,-1.32046"
         id="path87" />
      <path
         style="fill:#2a122d;fill-opacity:0;stroke:#000000;stroke-opacity:1"
         d="m 887.8832,662.67188 c 0,0 -8.37836,-3.91056 -14.13979,-8.09505 -5.76143,-4.1845 -6.78685,-5.97335 -8.41936,-8.57258 -1.63252,-2.59923 -3.21249,-8.37555 -3.63911,-10.38664 -0.42661,-2.01109 0.13935,-0.83746 -1.44937,-1.76037 -1.58871,-0.92291 -3.5723,-5.03205 -3.79437,-6.95872"
         id="path88" />
      <path
         style="fill:#2a122d;fill-opacity:0;stroke:#000000;stroke-opacity:1"
         d="m 947.42282,674.40583 c 0,0 1.54781,-8.53387 1.91243,-12.60152 0.36462,-4.06766 0.40701,-9.92996 0.1005,-12.8858 -0.30651,-2.95583 -2.46035,-7.33758 -2.46035,-7.33758"
         id="path89" />
      <path
         style="fill:#2a122d;fill-opacity:0;stroke:#000000;stroke-opacity:1"
         d="m 973.29978,579.63183 c 0,0 -1.19958,-7.91568 -1.22543,-11.87117 -0.0258,-3.95548 1.3558,-7.99108 2.76913,-10.87993 1.41333,-2.88886 2.84388,-6.64273 5.4922,-7.31488 2.64833,-0.67214 4.38558,-0.50699 5.23689,0.44992 0.85131,0.95691 1.93288,3.56679 1.86387,5.9537 -0.069,2.3869 -1.19749,3.14521 -1.27167,4.871 -0.0742,1.7258 -0.0718,3.43341 0.61716,3.58311 0.68902,0.14971 3.37992,-3.7593 3.75003,-4.47343 0.37011,-0.71413 3.89621,-5.14621 6.35712,-7.19766 2.46091,-2.05144 7.33532,-5.98156 10.45522,-7.43562 3.1198,-1.45406 8.4838,-4.3685 12.2404,-3.64748 3.7567,0.72103 4.5218,2.12063 4.7655,4.19411 0.2438,2.07347 -2.164,5.17269 -4.5746,6.68374 -2.4107,1.51105 -4.7192,2.36707 -6.9352,4.549 -2.216,2.18192 -4.1595,4.30706 -5.4202,6.71298 -1.2608,2.40592 -2.8273,3.24165 -1.861,4.48503 0.9663,1.24338 4.074,0.16986 6.4364,-2.20414 2.3625,-2.37401 6.9538,-5.12917 8.6219,-5.99731 1.6681,-0.86814 13.1615,-6.70912 16.0876,-3.88544 2.9261,2.82369 0.9323,6.35167 -1.4751,8.60722 -2.4074,2.25554 -5.5236,5.12047 -8.6641,7.17189 -3.1405,2.05142 -8.4062,5.99666 -8.4062,5.99666"
         id="path90" />
      <path
         style="fill:#2a122d;fill-opacity:0;stroke:#000000;stroke-opacity:1"
         d="m 1037.7553,564.45301 c 0,0 2.3654,-0.69545 3.2703,2.90893 0.9049,3.60437 -1.7417,7.09339 -4.0552,8.93313 -2.3136,1.83974 -3.6477,4.54952 -12.7504,10.1598"
         id="path91" />
      <path
         style="fill:#2a122d;fill-opacity:0;stroke:#000000;stroke-opacity:1"
         d="m 1009.2467,611.76123 c 0,0 6.1217,-5.45244 8.0972,-7.51566 1.9755,-2.06323 3.3907,-3.29734 6.0874,-3.51758 2.6968,-0.22025 5.6513,0.37245 8.0306,-1.16932 2.3793,-1.54176 5.0398,-2.54155 7.0829,-5.21944 2.0431,-2.67789 6.207,-7.55889 4.822,-10.61969 -1.385,-3.0608 -4.4255,-2.27611 -7.0853,-1.11245 -2.6597,1.16365 -3.9245,2.90366 -6.3181,3.37578 -2.3936,0.47213 -1.8665,-0.0393 -1.8665,-0.0393"
         id="path92" />
      <path
         style="fill:#2a122d;fill-opacity:0;stroke:#000000;stroke-opacity:1"
         d="m 897.63299,681.58598 c 0,0 0.23109,7.12332 5.36503,11.04909 5.13395,3.92577 8.24312,6.9996 14.33863,7.81654 0,0 1.0236,8.92023 8.35243,15.19337 7.32884,6.27313 9.3442,10.85235 22.05506,16.30917 12.71086,5.45683 23.85076,5.79802 30.30395,5.48314 6.45318,-0.31489 15.89411,-0.96489 20.84568,-3.06134 4.95153,-2.09646 6.77383,-3.0057 5.82563,-5.57252 -0.9482,-2.56681 -5.3624,-7.00825 -8.66917,-12.48478 -3.30677,-5.47652 -9.65388,-16.2339 -10.81455,-22.33414 -1.16066,-6.10024 -0.41493,-17.47733 8.76964,-30.34036 9.18458,-12.86302 18.05628,-21.66157 20.34168,-23.85998 2.2855,-2.1984 11.4114,-12.33968 16.7638,-16.42065"
         id="path93" />
      <path
         style="fill:#2a122d;fill-opacity:0;stroke:#000000;stroke-opacity:1"
         d="m 1006.7638,727.39993 c 0,0 63.5452,-14.24768 79.3671,-22.43403"
         id="path94" />
      <path
         style="fill:#2a122d;fill-opacity:0;stroke:#000000;stroke-opacity:1"
         d="m 1082.7439,696.68922 c 0,0 2.3223,6.63701 12.3182,9.83273"
         id="path95" />
      <path
         style="fill:#2a122d;fill-opacity:0;stroke:#000000;stroke-opacity:1"
         d="m 1086.8244,671.84401 c 0,0 -0.7557,13.63593 5.5548,25.29798 6.3105,11.66204 13.8222,18.61408 23.1797,24.95315 9.3576,6.33907 32.3418,16.2937 37.6536,18.43016 5.3118,2.13645 8.0682,8.21434 9.4291,11.20972"
         id="path96" />
      <path
         style="fill:#2a122d;fill-opacity:0;stroke:#000000;stroke-opacity:1"
         d="m 1165.3884,741.86677 c 0,0 -2.3645,10.81009 -0.04,17.12652 2.3242,6.31643 6.1104,8.33411 8.058,8.97812 1.9475,0.64402 5.3493,2.85334 7.2015,1.21933 1.8523,-1.634 1.3437,-4.19624 1.7424,-9.37552 0.3986,-5.17929 -1.241,-17.25665 2.2684,-29.01215 0,0 0.3828,-2.77663 7.4411,-5.10028 7.0584,-2.32365 15.7254,-3.65128 17.5003,-4.31946 1.775,-0.66818 5.0054,-1.88611 4.97,-3.80918 -0.035,-1.92307 0.922,-2.82578 -2.5857,-4.68599 -3.5076,-1.86021 -12.3629,-4.00854 -14.9684,-6.795 -2.6055,-2.78645 -0.3459,-5.74181 -3.3716,-9.22341 -3.0258,-3.48161 -6.4587,-2.44297 -7.7774,-2.94747 -1.3186,-0.50449 -13.2566,-19.78601 -16.4321,-24.11899 -3.1755,-4.33298 -22.2425,-29.50786 -22.7598,-30.70699 -0.5173,-1.19913 -3.6462,-5.59859 -8.8996,-9.29525 -5.2534,-3.69666 -9.4727,-6.06643 -13.6132,-6.55751 -4.1404,-0.49108 -27.4201,-0.092 -37.8333,0.36458 -10.4132,0.45654 -40.0382,4.13271 -49.2338,8.87252"
         id="path97" />
      <path
         style="fill:#2a122d;fill-opacity:0;stroke:#000000;stroke-opacity:1"
         d="m 992.05715,701.42211 c 0,0 31.96855,-5.79511 45.01275,-8.59928 13.0442,-2.80417 21.4932,-4.53047 25.429,-6.04916 3.9358,-1.51869 7.8421,-2.82947 8.9167,-4.1681 0,0 0.9958,1.58734 2.6821,1.28606 0,0 -4.2233,3.4169 -0.8182,5.95643 3.4052,2.53952 6.1897,-2.72249 7.0527,-4.09541 0.8629,-1.37292 1.8804,-3.55271 1.6959,-5.13909"
         id="path98" />
      <path
         style="fill:#2a122d;fill-opacity:0;stroke:#000000;stroke-opacity:1"
         d="m 1184.3043,766.88537 c 0,0 18.928,14.09758 22.2646,17.76109 3.3366,3.66352 10.0255,8.61656 12.63,11.54888 2.6044,2.93232 5.1082,7.07354 9.2452,10.08095 4.1369,3.00742 28.8596,8.35251 33.3258,7.65595 4.4661,-0.69657 19.3304,-10.47683 20.995,-15.85929 1.6645,-5.38246 0.3125,-17.73551 -1.6749,-23.2992 -1.9873,-5.5637 -6.9768,-11.22144 -9.7212,-13.43049 -2.7443,-2.20906 -17.4505,-10.03085 -22.8543,-12.29279 -5.4038,-2.26193 -5.6026,-5.2522 -8.9505,-8.71256 -3.3478,-3.46035 -12.3049,-9.36172 -15.0096,-11.30219 -2.7047,-1.94048 -9.5976,-8.13832 -9.5976,-8.13832"
         id="path99" />
      <path
         style="fill:#2a122d;fill-opacity:0;stroke:#000000;stroke-opacity:1"
         d="m 1267.2322,756.37642 c 0,0 2.9436,1.0359 4.388,-1.63875 1.4444,-2.67465 2.2538,-3.61838 1.7386,-7.18016 -0.5152,-3.56177 -4.7821,-5.14454 -7.8227,-6.72157 -3.0405,-1.57703 -6.7657,-2.35146 -9.1995,-4.26977 -2.4338,-1.91831 -7.2077,-7.69034 -9.1464,-11.09064 -1.9387,-3.40031 -8.8532,-10.11645 -10.9133,-11.8517 -2.06,-1.73524 -8.7732,-6.94773 -10.3511,-8.41815 -1.5778,-1.47041 -4.4712,-3.9694 -4.4712,-3.9694"
         id="path100" />
      <path
         style="fill:#2a122d;fill-opacity:0;stroke:#000000;stroke-opacity:1"
         d="m 1203.0245,707.19177 c 0,0 0.01,-1.69763 0.6298,-2.66582 0.6215,-0.9682 7.693,-3.00643 9.4866,-3.47551 1.7936,-0.46909 5.0356,-1.58528 6.4887,-3.46002 1.4531,-1.87473 0.7946,-3.22719 0.2693,-5.51405 -0.5252,-2.28686 -5.0426,-4.02483 -6.5682,-4.6392 -1.5255,-0.61437 -3.9496,-2.21181 -4.318,-4.11771 -0.3685,-1.90591 4.719,-4.84438 4.6199,-6.70464 -0.099,-1.86027 -0.9017,-5.3361 -4.4828,-7.8692 0,0 -1.2756,-1.99047 -1.9734,-4.33128 -0.6977,-2.3408 -17.2155,-58.902 -20.9975,-70.6236 -3.782,-11.72161 -8.6076,-21.35203 -12.2235,-26.96891 -3.6159,-5.61688 -5.3952,-6.30762 -12.6864,-8.83421 -7.2912,-2.52659 -13.9198,-2.1581 -21.4926,-0.60674 -7.5728,1.55136 -39.1604,11.17009 -57.0758,23.50104"
         id="path101" />
      <path
         style="fill:#2a122d;fill-opacity:0;stroke:#000000;stroke-opacity:1"
         d="m 1132.3327,578.99822 c 0,0 -6.5649,7.57496 -6.1162,22.66241 0.4487,15.08745 1.2423,19.76989 1.2423,19.76989"
         id="path102" />
      <path
         style="fill:#2a122d;fill-opacity:0;stroke:#000000;stroke-opacity:1"
         d="m 1095.8372,681.4607 c 0,0 7.7657,10.68344 14.2743,14.93967 6.5086,4.25624 17.9913,9.51658 23.05,11.19671 5.0587,1.68012 19.24,8.18675 21.9794,9.17871 2.7394,0.99196 9.3101,4.05315 8.99,9.134"
         id="path103" />
      <path
         style="fill:#2a122d;fill-opacity:0;stroke:#000000;stroke-opacity:1"
         d="m 886.42176,674.7173 c 0,0 -9.51409,7.48464 -8.5279,20.57176 0.98619,13.08713 10.28971,23.17568 10.28971,23.17568"
         id="path104" />
      <path
         style="fill:#2a122d;fill-opacity:0;stroke:#000000;stroke-opacity:1"
         d="m 855.82528,691.25933 c 0,0 3.82876,12.59759 24.34871,25.81898 20.51995,13.2214 31.84894,15.38043 43.06144,20.32818 11.2125,4.94775 30.72136,17.20912 44.79134,29.57668 14.06998,12.36757 21.61476,20.74224 27.98126,37.61296 6.36647,16.87073 5.93687,43.93256 -1.00927,59.58006 -6.94614,15.64751 -26.43251,39.60613 -43.31964,48.28343 -16.88714,8.6773 -37.05029,8.11027 -37.05029,8.11027 0,0 18.89655,-8.04537 29.18867,-22.07885 10.29213,-14.03348 13.69308,-38.60543 7.5761,-57.04026 -6.11698,-18.43483 -22.84538,-41.7482 -22.84538,-41.7482"
         id="path105" />
      <path
         style="fill:#2a122d;fill-opacity:0;stroke:#000000;stroke-opacity:1"
         d="m 961.85842,830.03422 c 0,0 -7.79936,-13.9442 -27.55105,-29.23421 -19.75169,-15.29002 -14.95797,-9.20454 -31.07196,-20.23615 -16.11398,-11.03161 -31.84972,-23.27007 -46.80084,-42.09518 -14.95112,-18.82512 -21.64803,-35.08301 -24.60286,-54.98841 -2.95483,-19.9054 -0.26691,-27.92086 -0.26691,-27.92086"
         id="path106" />
      <path
         style="fill:#2a122d;fill-opacity:0;stroke:#000000;stroke-opacity:1"
         d="m 847.90551,436.20167 c 0,0 18.56341,12.15216 23.46319,18.34309 4.89978,6.19092 10.29179,13.35142 11.82122,28.5053 1.52942,15.15387 1.69716,22.77791 -2.15349,24.913"
         id="path107" />
      <path
         style="fill:#2a122d;fill-opacity:0;stroke:#000000;stroke-opacity:1"
         d="m 850.6877,465.33903 c 0,0 21.97379,26.75125 27.38463,43.96682 5.41084,17.21557 8.71567,45.36236 4.42084,67.45147 -4.29482,22.0891 -10.52337,30.70107 -16.14544,37.57767 -5.62206,6.8766 -16.78136,14.72318 -26.70301,24.28282 -9.92165,9.55964 -19.33233,22.49562 -24.40462,47.67087 -5.07229,25.17525 0.77375,50.58017 8.72711,60.17641 7.95336,9.59623 19.09502,12.16091 26.87291,25.47188 7.7779,13.31097 4.90413,36.5741 -8.63511,43.86631 0,0 3.7366,-9.62078 1.87943,-20.01892 -1.85718,-10.39814 -13.70681,-18.23831 -20.63158,-21.0254 -6.92476,-2.7871 -20.57453,-6.0545 -34.5983,-20.33755 -14.02378,-14.28305 -25.38832,-34.07602 -26.43229,-66.22652 -1.04397,-32.1505 6.89669,-46.74176 17.23823,-64.12798 10.34154,-17.38623 14.44501,-22.94069 35.66994,-31.09647 21.22493,-8.15578 32.40797,-7.85367 41.15147,-24.74734"
         id="path108" />
      <path
         style="fill:#2a122d;fill-opacity:0;stroke:#000000;stroke-opacity:1"
         d="m 754.63519,611.62351 c 0,0 -5.77978,22.85843 11.05682,34.01955"
         id="path109" />
      <path
         style="fill:#2a122d;fill-opacity:0;stroke:#000000;stroke-opacity:1"
         d="m 805.75794,520.97131 c 0,0 -1.97808,30.69879 -16.21188,51.76298 -14.23381,21.0642 -26.55294,31.67437 -45.5051,39.55998 -18.95216,7.88561 -43.78542,8.25699 -80.54912,6.74667 -36.7637,-1.51032 -47.29463,36.72384 -47.46334,47.41539 -0.16871,10.69155 3.88276,33.42506 18.47213,44.75193 14.58937,11.32687 34.2993,20.11742 42.40296,32.70257 8.10366,12.58514 13.49766,31.63695 7.29185,48.72271 -6.20581,17.08577 -30.19688,36.17018 -52.14313,43.74334 -21.94625,7.57316 -20.67871,36.3715 -20.67871,36.3715"
         id="path110" />
      <path
         style="fill:#2a122d;fill-opacity:0;stroke:#000000;stroke-opacity:1"
         d="m 647.79972,624.37361 c 0,0 6.78368,7.39781 24.69261,7.88465 17.90893,0.48685 31.38428,3.18708 38.64966,14.07787 7.26538,10.89079 5.14892,21.04364 1.35914,27.89148 -3.78977,6.84783 -18.23324,10.7772 -18.19961,26.3848 0.0336,15.6076 11.30731,25.05668 23.92537,25.60735 0,0 -4.9455,-5.77924 -4.95908,-16.57908 -0.0136,-10.79984 14.931,-16.31397 20.60668,-22.22431 5.67568,-5.91035 12.58546,-20.29739 6.35253,-40.22116 -6.23293,-19.92377 -16.74546,-20.49006 -21.2623,-20.71969 -4.51684,-0.22964 -9.01575,-0.57223 -13.56928,-4.99737"
         id="path111" />
      <path
         style="fill:#2a122d;fill-opacity:0;stroke:#000000;stroke-opacity:1"
         d="m 610.54529,582.25976 c 0,0 -9.4901,-12.16287 -8.94322,-31.60086 0.54688,-19.43799 19.23917,-39.96149 35.70372,-52.37928 16.46454,-12.41779 29.31039,-13.59283 43.60749,-12.28036 14.2971,1.31246 27.09229,6.15236 39.32857,14.49086 12.23628,8.33849 14.45544,12.29409 26.72493,12.89504 12.2695,0.60095 17.20206,-2.62592 21.02295,-5.2722 3.82089,-2.64628 7.69875,-11.21533 7.69875,-11.21533"
         id="path112" />
      <path
         style="fill:#2a122d;fill-opacity:0;stroke:#000000;stroke-opacity:1"
         d="m 689.14638,558.45886 c 0,0 0.12915,-10.67457 9.95016,-15.07015 9.821,-4.39559 13.84201,-3.18891 17.65766,-1.98099 3.81564,1.20792 9.00408,8.6094 11.28002,10.26757 2.27594,1.65818 6.95163,4.81261 9.62092,5.44836"
         id="path113" />
      <path
         style="fill:#2a122d;fill-opacity:0;stroke:#000000;stroke-opacity:1"
         d="m 818.03309,681.48218 c 0,0 3.17067,5.76448 12.03916,3.12744"
         id="path114" />
      <path
         style="fill:#2a122d;fill-opacity:0;stroke:#000000;stroke-opacity:1"
         d="m 949.8166,710.09264 c 0,0 -3.7312,-17.62878 3.75517,-28.32279"
         id="path115" />
      <path
         style="fill:#2a122d;fill-opacity:0;stroke:#000000;stroke-opacity:1"
         d="m 917.49994,644.97301 c 0,0 -4.66484,-7.31285 -1.50201,-14.96207 3.16283,-7.64922 11.25169,-6.46895 11.25169,-6.46895"
         id="path116" />
      <path
         style="fill:#2a122d;fill-opacity:0;stroke:#000000;stroke-opacity:1"
         d="m 1208.6277,783.33175 c 0,0 23.4115,9.85171 26.3805,11.8003 0,0 4.9323,-5.87936 11.9468,-12.4808 7.0144,-6.60143 11.4122,-10.12141 12.1418,-13.21038 0.7296,-3.08896 1.5916,-2.58643 1.2914,-4.14637 -0.3003,-1.55993 -3.6146,-6.057 -5.6694,-7.64235 -2.0549,-1.58535 -4.4229,-5.69645 -4.4229,-5.69645"
         id="path117" />
      <path
         style="fill:#2a122d;fill-opacity:0;stroke:#000000;stroke-opacity:1"
         d="m 1220.4286,776.02226 c 0,0 -0.1789,-3.0651 1.366,-6.3317 1.5448,-3.2666 8.7079,-14.23807 13.0979,-15.74042 0,0 3.0496,-0.97459 6.0473,5.63721 2.9978,6.61179 -12.1926,19.55112 -15.4713,19.67759 -3.2787,0.12648 -5.0399,-3.24268 -5.0399,-3.24268 z"
         id="path118" />
      <path
         style="fill:#2a122d;fill-opacity:0;stroke:#000000;stroke-opacity:1"
         d="m 1204.0853,762.12781 c 0,0 0.2614,-4.82622 6.5404,-12.37014 6.2789,-7.54391 7.2635,-9.92667 8.9452,-9.73063 1.6818,0.19604 7.1464,4.28005 7.2615,5.65982 0.1151,1.37977 -11.6837,20.19531 -17.4463,21.5314 -5.7625,1.33609 -5.3008,-5.09045 -5.3008,-5.09045 z"
         id="path119" />
      <path
         style="fill:#2a122d;fill-opacity:0;stroke:#000000;stroke-opacity:1"
         d="m 1240.9429,738.56706 c 0,0 3.4121,-5.25437 8.6846,-6.55865"
         id="path120" />
      <path
         style="fill:#2a122d;fill-opacity:0;stroke:#000000;stroke-opacity:1"
         d="m 1239.8624,720.27635 c 0,0 -6.2139,6.61013 -7.6891,6.62978 -1.4752,0.0197 -6.8099,-3.4098 -7.4394,-4.79692 -0.6296,-1.38713 5.6826,-8.88661 7.6891,-10.01178"
         id="path121" />
      <path
         style="fill:#2a122d;fill-opacity:0;stroke:#000000;stroke-opacity:1"
         d="m 1224.6541,706.39713 c -2.1892,0.5052 -3.1573,2.68537 -3.903,3.61242 -0.7457,0.92705 -3.0315,3.50248 -3.6114,3.69919 -0.5799,0.19672 -1.6109,0.28293 -1.6109,0.28293"
         id="path122" />
    </g>
  </g>
</svg>
