<?xml version="1.0" encoding="UTF-8" standalone="no"?>
<!-- Created with Inkscape (http://www.inkscape.org/) -->

<svg
   width="210mm"
   height="297mm"
   viewBox="0 0 210 297"
   version="1.1"
   id="svg1"
   inkscape:version="1.3.2 (091e20ef0f, 2023-11-25, custom)"
   sodipodi:docname="madeline_2-2.svg"
   inkscape:export-filename="madeline_2-1.svg"
   inkscape:export-xdpi="96"
   inkscape:export-ydpi="96"
   xmlns:inkscape="http://www.inkscape.org/namespaces/inkscape"
   xmlns:sodipodi="http://sodipodi.sourceforge.net/DTD/sodipodi-0.dtd"
   xmlns="http://www.w3.org/2000/svg"
   xmlns:svg="http://www.w3.org/2000/svg">
  <sodipodi:namedview
     id="namedview1"
     pagecolor="#ffffff"
     bordercolor="#000000"
     borderopacity="0.25"
     inkscape:showpageshadow="2"
     inkscape:pageopacity="0.0"
     inkscape:pagecheckerboard="0"
     inkscape:deskcolor="#d1d1d1"
     inkscape:document-units="mm"
     inkscape:zoom="1.2641516"
     inkscape:cx="396.31324"
     inkscape:cy="557.68629"
     inkscape:window-width="1920"
     inkscape:window-height="1080"
     inkscape:window-x="0"
     inkscape:window-y="0"
     inkscape:window-maximized="1"
     inkscape:current-layer="layer1" />
  <defs
     id="defs1" />
  <g
     inkscape:label="Layer 1"
     inkscape:groupmode="layer"
     id="layer1">
    <path
       style="display:inline;fill:#2a122d;fill-opacity:0;stroke:#000000;stroke-width:0.264583;stroke-opacity:1"
       d="m 69.818269,80.710478 c -2.428791,0.911746 -8.724477,3.552566 -11.77753,5.795669 -3.053054,2.243106 -4.302276,2.984929 -6.052648,6.241396 -1.750373,3.256468 -2.617203,5.668222 -3.004722,10.955027 -0.387522,5.28681 0.229348,5.89948 1.331208,9.51182 1.10186,3.61234 5.315117,7.61385 6.337364,8.93608 1.022247,1.32224 2.047499,3.53936 2.169654,5.62319 0.122156,2.08383 -0.365852,5.23206 -1.999718,7.82264 -1.633865,2.59058 -2.885493,4.58289 -6.552075,5.94511 -3.666583,1.36222 -8.367263,1.18642 -11.124422,1.21943 -2.75716,0.033 -5.800908,-0.0502 -9.708761,0.62049 -3.907856,0.67067 -6.981661,1.61144 -9.700657,2.69689 -2.718993,1.08544 -6.281102,3.49007 -8.293433,5.47769 -2.0123336,1.98761 -3.3192482,3.6338 -4.7662968,7.38103 -1.4470512,3.74723 -1.3148283,5.1307 -1.1661008,10.27696 0.1487276,5.14627 1.4583093,7.00987 3.1625593,9.43671 1.7042503,2.42683 6.0998633,5.46995 7.9352113,6.87006 1.835348,1.40011 4.054374,4.23006 5.660781,6.07517 1.60641,1.8451 3.650137,5.47787 4.168437,6.83509 0.518297,1.35723 0.833633,4.3382 -0.428855,6.31506 -1.262489,1.97686 -5.860984,4.61216 -7.568232,5.72174 -1.707248,1.10958 -4.099854,3.56504 -4.953627,5.03237 -0.853776,1.46732 -1.49574,2.9928 -1.746343,5.31757 -0.250602,2.32477 0.287571,5.12677 1.021454,6.88493 1.540716,3.69109 5.126698,6.86496 5.126698,6.86496 0,0 -1.980414,-7.79459 -2.074978,-10.53705 -0.09457,-2.74247 0.703061,-6.18181 2.549969,-7.97301 1.846911,-1.79121 10.277007,-4.65074 13.831964,-9.68641 3.363846,-4.76495 1.929598,-11.07083 -0.214495,-14.40065 -2.144093,-3.32982 -7.560471,-6.56148 -11.420575,-9.55838 -3.860105,-2.9969 -4.932056,-9.01181 -4.887418,-11.84062 0.04464,-2.8288 2.830946,-12.94492 12.558008,-12.54532 9.727063,0.39961 16.297529,0.30135 21.311955,-1.78505 5.014425,-2.08641 8.273862,-4.89368 12.039891,-10.46692 3.766026,-5.57323 4.289393,-13.69562 4.289393,-13.69562"
       id="path50"
       sodipodi:nodetypes="csssssssssssssssssszzsssczzsssssssc" />
    <path
       style="display:inline;fill:#2a122d;fill-opacity:0;stroke:#000000;stroke-width:0.264583;stroke-opacity:1"
       d="m 70.366049,82.204242 c 0,0 -0.380363,-2.85446 -1.116878,-4.476999 -0.736513,-1.622541 -1.578279,-2.972414 -2.690244,-3.971531 -1.111967,-0.999117 -2.337842,-1.823561 -4.068476,-1.746705 -1.730634,0.07686 -3.253634,0.158486 -4.446305,0.564227 0,0 0.49725,-1.421448 1.174409,-1.832324 0.677159,-0.410877 1.316466,-0.659273 2.697226,-0.79451 1.38076,-0.135234 3.102293,-0.04709 3.73933,0.150622 0.637037,0.19771 2.660584,0.70512 3.407775,1.407565 0.747191,0.702445 1.752095,1.457394 2.274964,2.543519 0.52287,1.086128 1.009833,2.104083 1.180923,3.219124 0.17109,1.115042 0.221911,2.220416 0.276085,3.078089"
       id="path51" />
    <path
       style="display:inline;fill:#2a122d;fill-opacity:0;stroke:#000000;stroke-width:0.264583;stroke-opacity:1"
       d="m 71.42547,82.852376 c 0,0 2.0839,-2.801012 2.723697,-4.458581 0.6398,-1.65757 1.006367,-3.902491 0.985975,-5.645743 -0.0204,-1.743252 -1.042593,-3.848195 -2.044938,-5.057002 -1.002342,-1.208808 -2.439241,-2.861419 -3.790524,-3.964337 -1.351285,-1.102916 -2.674668,-1.803641 -4.044124,-2.250689 -1.369457,-0.447045 -2.46855,-0.703897 -4.373984,-0.707448 -1.905431,-0.0035 -1.606081,-0.07798 -2.698133,0.102198 0,0 2.157174,-1.079979 4.141613,-1.283052 1.984441,-0.20307 3.60462,-0.334555 5.642919,0.102127 2.0383,0.436679 5.354053,1.854583 6.471063,2.629 1.117013,0.77442 2.463464,1.998327 3.703587,3.587067 1.240123,1.588739 1.485374,3.219966 1.56995,4.095518 0.08457,0.875551 -0.07209,3.774598 -0.43394,4.999706 -0.36185,1.225109 -1.237062,2.825187 -2.14866,4.086278 -0.911601,1.261089 -2.526057,2.809283 -3.356708,3.486825"
       id="path52" />
    <path
       style="display:inline;fill:#2a122d;fill-opacity:0;stroke:#000000;stroke-width:0.264583;stroke-opacity:1"
       d="m 77.993513,78.192767 c 0,0 2.962052,-0.328401 4.515519,-0.352809 1.553467,-0.02439 2.813195,-0.02719 4.546314,0.313637 1.733119,0.340826 4.215829,1.468914 4.215829,1.468914 0,0 0.952682,-1.056738 1.823159,-1.78744 0.870476,-0.730703 1.890746,-1.372685 2.735759,-1.662399 0.845011,-0.289713 3.380187,-1.362551 5.526967,-1.380341 2.14677,-0.01781 4.15697,0.86125 5.27632,1.646769 1.11935,0.785519 2.43741,2.291882 3.0535,3.036006 0.61609,0.744125 1.48431,2.379647 1.48431,2.379647 0,0 -1.72837,-0.206693 -2.79933,-0.313082 -1.07096,-0.106391 -1.64393,-0.31397 -2.82559,-0.385243 -1.18167,-0.07128 -2.73427,0.04881 -2.73427,0.04881"
       id="path53" />
    <path
       style="display:inline;fill:#2a122d;fill-opacity:0;stroke:#000000;stroke-width:0.264583;stroke-opacity:1"
       d="m 96.746375,80.66339 c 0,0 0.916114,-0.191444 2.623806,-0.251616 1.707689,-0.06017 2.544449,0.454091 3.195859,0.848175 0.65141,0.394084 1.60097,1.368282 2.22365,2.153751 0.62268,0.785468 2.10998,2.99585 2.88128,4.615031 0.77129,1.619182 1.36487,2.483451 1.83473,4.345885 0.46986,1.862436 0.088,4.107444 0.088,4.107444 0,0 -1.04053,-1.08291 -2.26933,-2.111936 -1.22879,-1.029025 -2.36337,-1.493588 -3.59598,-2.050737 -1.23261,-0.557149 -3.40512,-1.679417 -4.532588,-1.776947 0,0 2.838878,0.937593 3.643208,2.723912 0.80432,1.786315 0.64845,2.322181 0.24202,3.173018 -0.40644,0.850834 -1.11703,0.965097 -1.11703,0.965097"
       id="path54" />
    <path
       style="display:inline;fill:#2a122d;fill-opacity:0;stroke:#000000;stroke-width:0.264583;stroke-opacity:1"
       d="m 96.561352,91.356237 c 0,0 1.365734,1.079146 2.597496,2.83836 1.231762,1.759212 3.426142,5.583785 3.672602,6.131763 0.24647,0.54799 1.59194,2.99775 1.8547,3.75072 0.26276,0.75296 0.582,0.65623 0.92359,0.91763 0.34159,0.26141 0.83818,0.8138 1.94796,1.76319 1.10978,0.9494 2.16034,2.28259 2.49563,3.34466 0.33529,1.06206 0.26954,2.48892 0.0892,3.72366 -0.18033,1.23475 -1.09035,3.17358 -1.54235,4.07214 -0.45199,0.89856 -1.66139,4.04211 -3.66936,6.17958 -2.00797,2.13746 -6.219723,2.46553 -8.827403,2.73991 -2.607681,0.27438 -7.569282,0.11477 -8.663086,-0.21025 0,0 2.858281,0.99719 4.303176,1.81681 1.444895,0.81962 1.868027,1.12399 2.461754,1.44924 0.593725,0.32524 0.638821,0.18282 1.053111,0.13269 0.414287,-0.0501 1.383951,-0.32167 3.110664,-0.31517 1.726714,0.006 2.720704,0.42281 3.077244,0.7781 0.35654,0.3553 1.23581,1.83466 1.36753,2.77929 0.13171,0.94464 0.0447,2.87665 -0.0526,3.91995 -0.0973,1.04331 -0.20143,1.73149 -0.86819,2.37821 -0.66676,0.64672 -3.140813,1.67536 -5.526193,1.82552 -2.385383,0.15016 -3.986302,0.0982 -5.464106,-0.13349 -1.477807,-0.23169 -3.407521,-0.6596 -3.407521,-0.6596"
       id="path55" />
    <path
       style="display:inline;fill:#2a122d;fill-opacity:0;stroke:#000000;stroke-width:0.264583;stroke-opacity:1"
       d="m 83.581452,82.039988 c 0,0 1.973167,-1.031904 3.085433,-1.367496 1.112266,-0.335595 2.444025,-0.555493 3.245329,-0.297177 0.801304,0.258318 2.243497,1.970492 2.49089,2.538767 0.247391,0.568277 2.311681,3.463935 2.632451,5.576773 0.32077,2.112838 0.518126,6.161567 0.354354,8.019825 -0.163772,1.858262 -1.972477,10.82319 -2.752908,13.73271 0,0 -0.432615,-6.77086 -0.889857,-9.67923 -0.457242,-2.908374 -1.170546,-5.029194 -2.034886,-6.82468 -0.864339,-1.795487 -1.724499,-4.06979 -3.153281,-5.799649 0,0 1.289421,3.877784 0.992198,7.006379 -0.297225,3.128594 -1.654815,5.85349 -2.112097,7.53958 -0.457285,1.68609 -1.033291,3.1362 -1.575853,4.63218 -0.542565,1.49599 -1.148204,2.62051 -1.148204,2.62051 0,0 -0.53675,-1.2488 -0.623422,-3.15073 -0.08667,-1.90193 0.424336,-4.22176 0.551143,-5.93304 0.126809,-1.711286 0.54248,-2.715862 0.566491,-4.386298 0.02402,-1.670434 -0.17708,-3.083909 -0.370623,-3.888523 0,0 -0.538088,3.329189 -1.547847,5.446956 -1.009758,2.117767 -3.892925,5.054075 -4.309604,6.144395 -0.416682,1.09032 -0.673534,2.55411 -0.678747,4.00644 -0.0052,1.45234 0.506199,4.73245 0.506199,4.73245 0,0 -1.674326,-0.35491 -2.887713,-1.00935 -1.213385,-0.65444 -2.266037,-1.60624 -3.442639,-3.09316 -1.176605,-1.48692 -1.433084,-3.17585 -1.568593,-4.6613 -0.135509,-1.48545 0.560781,-3.46871 1.096478,-4.33303 0.535699,-0.864319 1.097179,-1.845598 1.097179,-1.845598"
       id="path56" />
    <path
       style="display:inline;fill:#2a122d;fill-opacity:0;stroke:#000000;stroke-width:0.264583;stroke-opacity:1"
       d="m 68.928345,106.55449 c 0,0 -0.806384,0.49647 -1.174649,1.27842 -0.368268,0.78195 0.08502,3.84686 0.08502,3.84686 0,0 -1.830134,-0.30987 -2.803591,-1.20267 -0.973458,-0.8928 -1.463374,-2.34824 -1.590538,-3.36928 -0.127164,-1.02104 0.01717,-1.90857 0.01717,-1.90857"
       id="path57" />
    <path
       style="display:inline;fill:#2a122d;fill-opacity:0;stroke:#000000;stroke-width:0.264583;stroke-opacity:1"
       d="m 63.435212,108.74876 c -0.134255,-0.0472 -1.210588,0.72799 -1.627987,1.65716 -0.417396,0.92918 -0.181287,2.69297 -0.181287,2.69297 0,0 -2.203871,-0.57628 -3.821972,-2.11802 -1.618102,-1.54174 -2.187533,-2.79442 -2.477461,-4.58744 -0.289925,-1.79303 -0.230013,-2.85526 0.108956,-4.40505 0.338968,-1.5498 1.31463,-2.969315 2.146948,-3.889842 0.832318,-0.920526 2.292876,-1.854454 3.340081,-2.27256 1.047205,-0.418102 1.541521,-0.643048 2.92648,-0.577834"
       id="path58" />
    <path
       style="display:inline;fill:#2a122d;fill-opacity:0;stroke:#000000;stroke-width:0.264583;stroke-opacity:1"
       d="m 70.18341,116.22586 c 0,0 -1.730233,-0.17914 -2.739372,0.46602 -1.009137,0.64515 -1.385027,1.74507 -1.508146,2.89732 -0.123116,1.15225 -0.02973,2.46735 0.427847,3.28914 0.45757,0.82179 1.385763,2.26188 2.741893,2.7496 1.35613,0.48772 2.472743,0.36431 3.559953,0.18276 1.08721,-0.18154 2.557973,-0.99622 2.557973,-0.99622"
       id="path60" />
    <path
       style="display:inline;fill:#2a122d;fill-opacity:0;stroke:#000000;stroke-width:0.264583;stroke-opacity:1"
       d="m 69.511212,120.85686 c 0,0 -0.10373,-0.70198 0.236029,-1.08048 0.33976,-0.37851 0.997887,-0.18382 1.495862,0.13973 0.497975,0.32355 1.107556,0.70871 1.404752,1.23398 0.297196,0.52527 0.428165,1.05919 0.118962,1.36908 -0.3092,0.30989 -1.009555,0.0788 -1.009555,0.0788"
       id="path61" />
    <path
       style="display:inline;fill:#2a122d;fill-opacity:0;stroke:#000000;stroke-width:0.264583;stroke-opacity:1"
       d="m 82.015677,102.20749 c -1.0315,0.54789 -2.244937,1.73408 -3.000476,2.65135 -0.755536,0.91728 -0.831564,1.06858 -1.175268,1.98689 -0.343702,0.9183 0.15295,1.58045 0.15295,1.58045 0,0 0.451403,-0.25638 0.913754,-0.53485 0.462349,-0.27847 1.172676,-0.87288 1.568175,-1.11769 0.395502,-0.24482 1.267741,-0.87146 1.267741,-0.87146"
       id="path62" />
    <path
       style="display:inline;fill:#2a122d;fill-opacity:0;stroke:#000000;stroke-width:0.264583;stroke-opacity:1"
       d="m 86.386374,101.16936 c 0,0 1.026099,0.48869 1.408906,1.053 0,0 -0.268925,0.33793 -0.877419,0.64799 -0.608497,0.31006 -1.419802,0.86391 -1.419802,0.86391"
       id="path63" />
    <path
       style="display:inline;fill:#2a122d;fill-opacity:0;stroke:#000000;stroke-width:0.264583;stroke-opacity:1"
       d="m 96.051301,97.110739 c 2.008539,0.42291 3.559667,1.05976 3.559667,1.05976 0,0 -1.217446,0.419944 -2.265844,0.699294 -1.048395,0.279347 -1.585325,0.317232 -1.585325,0.317232"
       id="path64" />
    <path
       style="display:inline;fill:#2a122d;fill-opacity:0;stroke:#000000;stroke-width:0.264583;stroke-opacity:1"
       d="m 85.119006,112.81133 c 0,0 1.946376,-0.25129 3.080528,-0.67994 1.134152,-0.42865 1.570352,-0.8259 2.057093,-1.22704 0.486741,-0.40114 0.939501,-0.97347 0.939501,-0.97347 0,0 -0.50764,-0.26219 -0.860748,-0.57561 -0.353107,-0.31341 -0.733642,-0.8083 -0.733642,-0.8083"
       id="path65" />
    <path
       style="display:inline;fill:#2a122d;fill-opacity:0;stroke:#000000;stroke-width:0.264583;stroke-opacity:1"
       d="m 96.850147,112.77618 c 0,0 1.252347,0.16604 2.013744,0.019 0.761399,-0.14701 1.12605,-0.46789 1.307219,-0.8171 0.18118,-0.3492 0.23453,-1.00146 0.22896,-1.3325 -0.006,-0.33103 -0.0756,-0.72477 -0.27802,-1.02683 -0.202416,-0.30206 -0.576815,-0.12857 -0.842142,-0.13743 -0.265327,-0.009 -0.940824,0.015 -1.458163,-0.0218 -0.51734,-0.0368 -0.02741,-0.0421 -0.203886,-0.12708 -0.176472,-0.085 -0.389064,-0.39685 -0.389064,-0.39685"
       id="path66" />
    <path
       style="display:inline;fill:#2a122d;fill-opacity:0;stroke:#000000;stroke-width:0.264583;stroke-opacity:1"
       d="m 98.123547,106.90435 c 0,0 1.480796,-0.10331 1.875898,-0.19976 0.395105,-0.0965 1.339475,-0.47369 1.650705,-0.7427 0.31124,-0.269 0.95818,-0.77733 1.1635,-1.13578 0,0 -0.51381,-0.20779 -0.7154,-0.31516 -0.20159,-0.10737 -0.93151,-0.60817 -0.93151,-0.60817"
       id="path67" />
    <path
       style="display:inline;fill:#2a122d;fill-opacity:0;stroke:#000000;stroke-width:0.264583;stroke-opacity:1"
       d="m 95.821756,117.77043 c 0,0 1.059091,0.15925 1.819331,0.15859 0.760243,-5.3e-4 1.821505,0.0493 2.621743,-0.22618 0.80024,-0.27549 1.37417,-0.70417 1.81273,-1.22383 0.43856,-0.51966 1.04111,-1.40571 1.04111,-1.40571"
       id="path68" />
    <path
       style="display:inline;fill:#2a122d;fill-opacity:0;stroke:#000000;stroke-width:0.264583;stroke-opacity:1"
       d="m 99.895215,126.96209 c 0,0 -0.42178,0.69216 -0.5466,1.27045 -0.124817,0.57829 -0.09935,1.15108 -0.09935,1.15108"
       id="path69" />
    <path
       style="display:inline;fill:#2a122d;fill-opacity:0;stroke:#000000;stroke-width:0.264583;stroke-opacity:1"
       d="m 104.38767,125.54538 c 0,0 1.33034,1.26858 1.66029,1.95837 0.32996,0.68979 0.52655,1.94516 0.49437,2.98588 -0.0322,1.04072 -0.0913,2.50504 -0.41965,3.45403 -0.32837,0.94899 -1.18052,2.88746 -1.18052,2.88746 l -0.56112,0.85894"
       id="path70" />
    <path
       style="display:inline;fill:#2a122d;fill-opacity:0;stroke:#000000;stroke-width:0.264583;stroke-opacity:1"
       d="m 105.02106,93.528593 c 0,0 1.19414,1.891906 1.43933,3.057144 0.24519,1.165236 0.0737,2.108909 0.28554,3.062978 0.2118,0.954075 0.69271,2.221135 1.56062,3.374595 0.86791,1.15347 2.58373,2.04886 4.01219,2.4877 1.42846,0.43884 3.21592,-0.0193 4.15571,-0.48551 0.93981,-0.46621 3.17443,-1.97901 3.71711,-2.94127 0.54269,-0.96225 0.87276,-2.419764 0.76147,-3.496184 -0.11128,-1.07642 -0.58258,-2.221654 -1.06142,-2.879498 -0.47885,-0.657846 -2.13821,-1.962025 -2.13821,-1.962025 0,0 1.41986,0.203816 2.3717,0.645133 0.95181,0.441315 1.95763,1.96374 2.26449,2.587128 0.30686,0.623385 0.77216,1.923357 0.78597,3.237326 0.0138,1.31398 -0.48482,3.06564 -0.81679,3.87435 -0.33195,0.80871 -1.23873,2.27833 -1.718,2.73209 -0.47926,0.45375 -0.77771,0.75746 -0.77771,0.75746"
       id="path71" />
    <path
       style="display:inline;fill:#2a122d;fill-opacity:0;stroke:#000000;stroke-width:0.264583;stroke-opacity:1"
       d="m 113.44394,108.03808 c 0,0 2.70607,0.29451 4.19,0.28598 1.48394,-0.009 2.83208,-0.11997 4.60235,-0.66758 1.77027,-0.54762 3.42003,-1.45055 4.34454,-2.36981 0.92448,-0.91926 1.22782,-2.18679 1.29201,-3.43353 0.0642,-1.24674 -0.7026,-4.021422 -0.9434,-5.187633 -0.24079,-1.16621 -0.63132,-3.186306 -0.27942,-4.773798 0.35192,-1.587492 0.83343,-2.629231 1.7045,-3.997092 0.87108,-1.367862 2.60125,-3.370554 3.2486,-4.007641 0.64733,-0.63709 1.77491,-1.709862 2.92672,-2.58581 1.45351,-1.105403 4.45542,-2.99657 5.69124,-3.46329 1.23584,-0.466722 3.68072,-1.104106 5.34773,-1.092901 1.63901,0.01103 2.80334,0.543816 3.53949,1.404847 0.72472,0.847659 0.60555,2.340322 -0.0204,2.914513 0,0 0.0746,-0.982128 -0.6068,-1.395437 -0.68141,-0.413311 -1.73379,-0.766516 -2.82667,-0.731901 -1.09287,0.03461 -2.64856,0.298313 -4.65948,1.262415 -2.01091,0.964102 -3.01929,1.967063 -3.57341,2.602423 -0.55411,0.63536 -1.54794,2.187059 -1.77966,3.549166 -0.23175,1.362104 0.0799,3.050516 0.61801,4.299463 0.53806,1.248944 2.22139,4.452363 2.96503,5.333132"
       id="path72"
       sodipodi:nodetypes="csssssssssssscssssssc" />
    <path
       style="display:inline;fill:#2a122d;fill-opacity:0;stroke:#000000;stroke-width:0.264583;stroke-opacity:1"
       d="m 114.16677,118.06202 c 1.37285,1.26559 3.32689,2.2058 3.32689,2.2058 0,0 2.25809,1.33646 5.03126,1.36117 2.77318,0.0247 5.48667,-0.88825 6.67121,-1.3581 1.18454,-0.46986 4.54972,-2.3748 5.67465,-3.70317 1.12493,-1.32837 2.20064,-3.31708 2.51042,-4.76599 0.30977,-1.4489 -0.13425,-5.41424 -0.22228,-5.83601 -0.088,-0.42177 -0.30564,-2.04754 0.003,-3.37732 0.30755,-1.32978 1.09598,-4.09154 1.77892,-5.161208 0.68297,-1.069671 3.1092,-4.17608 4.79748,-5.334641 1.68831,-1.15856 3.52931,-2.070647 5.49736,-2.406221 1.96807,-0.335571 4.04664,-0.200279 6.55312,0.136951 2.5065,0.33723 4.54197,1.076235 6.15645,1.876751 1.61449,0.800518 3.32312,2.095709 4.35534,4.442684 1.03224,2.346976 1.19493,3.348226 1.31598,4.803664 0.12102,1.45545 -0.24156,3.40202 -0.24156,3.40202 0,0 -0.5809,-2.19175 -1.14157,-3.13494 -0.56068,-0.9432 -1.83629,-2.871204 -3.22438,-3.691346 -1.38808,-0.82014 -3.12512,-1.217883 -4.67749,-1.224683 -1.55236,-0.0068 -3.34618,0.432253 -4.56652,1.149044 -1.22034,0.716793 -2.54444,1.985189 -2.82173,3.144895 -0.27731,1.1597 -0.0941,3.11363 0.24998,4.11304 0.34409,0.99941 2.29447,4.41854 3.05769,5.43401 0.76324,1.01546 1.83948,2.23397 2.69208,3.66953 0.85259,1.43555 1.14302,3.91584 1.14302,3.91584"
       id="path73"
       sodipodi:nodetypes="ccssssscssssssscsssszzssc" />
    <path
       style="display:inline;fill:#2a122d;fill-opacity:0;stroke:#000000;stroke-width:0.264583;stroke-opacity:1"
       d="m 147.28503,126.31174 c 0,0 1.43304,-2.27269 3.81516,-4.17497 2.3821,-1.90228 4.49371,-3.20934 7.09692,-3.58513 2.60321,-0.37578 4.24362,-0.27075 6.96156,0.40159 2.7179,0.67235 6.38727,2.61309 8.3753,3.88974 1.98803,1.27666 4.47175,3.68863 5.38369,4.56439 0.91197,0.87577 3.28123,3.58748 4.67468,4.47264 1.39346,0.88516 1.6478,1.01366 3.20466,1.2375 1.55684,0.22385 3.48401,-0.0504 4.89405,-0.4234 1.41005,-0.37304 4.29848,-1.95295 5.62147,-2.9117 1.323,-0.95876 2.68185,-3.07051 3.34206,-4.59665 0.66022,-1.52613 1.00492,-3.88408 0.84286,-5.18571 -0.16206,-1.30162 -0.28125,-2.20062 -0.90596,-2.92009 -0.62468,-0.71947 -2.16987,-1.28455 -3.45916,-1.14051 -1.28929,0.14405 -2.78919,1.06667 -3.63408,2.57117 0,0 -0.34563,-0.89739 -0.2539,-1.64395 0.0917,-0.74656 0.40106,-1.38278 1.29961,-2.28444 0.89853,-0.90165 2.73643,-1.1731 3.86533,-1.1358 1.12892,0.0373 2.82276,0.37353 3.54441,0.84136 0.72162,0.46784 1.85491,1.44249 2.34455,2.54188 0.48964,1.09939 0.63743,3.2456 0.56708,4.52729 -0.0704,1.28168 -1.03338,5.08575 -1.61843,6.57532 -0.58507,1.48956 -2.08542,3.50421 -3.31994,4.69438 -1.23452,1.19017 -4.72927,3.46369 -6.63921,4.24612 -1.90998,0.78244 -3.27052,1.4591 -5.17274,1.38343 -1.90222,-0.0757 -3.81561,-0.99187 -5.11794,-1.67905 -1.30231,-0.6872 -4.09387,-2.88701 -5.36811,-4.34879 -1.27423,-1.46179 -2.43578,-2.18451 -3.71784,-3.16307 -1.28204,-0.97857 -4.97001,-2.74101 -6.95918,-3.12529 -1.98916,-0.38428 -3.56354,-0.13997 -5.44422,0.63457 -1.88066,0.77454 -4.87934,3.22328 -6.37617,5.45413 -1.4968,2.23085 -1.86029,4.27769 -2.76683,6.4961 -0.90654,2.21841 -1.39467,3.28648 -1.39467,3.28648"
       id="path75"
       sodipodi:nodetypes="csssszzsssssszcsssssssssssssssssc" />
    <path
       style="display:inline;fill:#2a122d;fill-opacity:0;stroke:#000000;stroke-width:0.264583;stroke-opacity:1"
       d="m 107.34336,129.1341 c 0,0 1.62896,-0.61657 3.35702,-0.19589 1.72806,0.42069 2.15705,1.13554 2.53415,1.59218 0.37708,0.45663 1.11419,1.62829 1.11419,1.62829"
       id="path78" />
    <path
       style="display:inline;fill:#2a122d;fill-opacity:0;stroke:#000000;stroke-width:0.264583;stroke-opacity:1"
       d="m 107.62014,147.26319 c 0,0 -0.9597,-1.36475 -1.45924,-2.79592 -0.49955,-1.43116 -0.80072,-2.80891 -0.37607,-4.3151 0.42465,-1.50619 1.71976,-3.32409 2.95384,-4.47544 1.23408,-1.15135 3.19625,-2.11325 4.91425,-2.44189 1.718,-0.32864 2.94764,-0.36154 4.44738,-0.25077 1.49973,0.11076 3.74554,0.64225 3.74554,0.64225"
       id="path79" />
    <path
       style="display:inline;fill:#2a122d;fill-opacity:0;stroke:#000000;stroke-width:0.264583;stroke-opacity:1"
       d="m 119.68893,132.73161 c 0,0 0.0895,-0.9291 0.81294,-2.17261 0.72347,-1.2435 2.22168,-2.10279 3.60637,-2.74094 1.3847,-0.63814 2.77604,-0.7957 4.11779,-0.59175 1.34176,0.20395 2.48362,0.72465 3.50034,1.61756 1.01668,0.89292 1.9572,1.97304 2.75164,3.14401 0.79443,1.17098 1.67563,2.71078 2.14,3.82608 0.46434,1.1153 1.18221,3.02223 1.37678,4.38755 0.19458,1.36532 0.28922,5.48412 0.24218,7.204 -0.0471,1.71987 -0.41053,6.35938 -1.77967,9.93743 0,0 -2.42395,1.15857 -4.69498,1.27469 -2.271,0.11613 -5.32606,0.15117 -7.08721,-0.10488 -1.76112,-0.25606 -4.489,-1.09797 -4.489,-1.09797"
       id="path80" />
    <path
       style="display:inline;fill:#2a122d;fill-opacity:0;stroke:#000000;stroke-width:0.264583;stroke-opacity:1"
       d="m 133.09479,128.93723 c 0,0 -0.0481,-0.49309 0.82084,-0.57568 0.86895,-0.0826 0.84738,-0.0699 1.43706,0.31222 0.58965,0.38208 0.82984,1.20888 0.82984,1.20888"
       id="path81" />
    <path
       style="display:inline;fill:#2a122d;fill-opacity:0;stroke:#000000;stroke-width:0.264583;stroke-opacity:1"
       d="m 135.059,131.56721 c 0,0 0.0469,-0.65253 0.66667,-1.04352 0.61971,-0.391 0.86667,-0.3019 1.37462,-0.0688 0.50795,0.2331 0.80201,1.02187 0.87564,1.26205 0.0736,0.24018 0.15251,1.32445 0.15251,1.32445"
       id="path82" />
    <path
       style="display:inline;fill:#2a122d;fill-opacity:0;stroke:#000000;stroke-width:0.264583;stroke-opacity:1"
       d="m 136.89654,134.57254 c 0,0 0.17856,-0.84852 0.87413,-1.13722 0.69559,-0.2887 1.07415,0.19908 1.28759,0.49253 0.21341,0.29345 0.42421,1.13805 0.48474,1.58262 0.0605,0.44457 0.003,1.33391 0.003,1.33391"
       id="path83" />
    <path
       style="display:inline;fill:#2a122d;fill-opacity:0;stroke:#000000;stroke-width:0.264583;stroke-opacity:1"
       d="m 138.35008,138.19593 c 0,0 0.2082,-0.70001 0.87153,-0.83428 0.66331,-0.13427 0.90017,-0.13482 1.15044,0.25847 0.25027,0.39329 0.34708,0.93049 0.20756,1.55863 -0.13951,0.62815 -0.47664,1.64027 -0.78949,2.12192 -0.31284,0.48164 -0.92567,1.11603 -0.92567,1.11603"
       id="path84" />
    <path
       style="display:inline;fill:#2a122d;fill-opacity:0;stroke:#000000;stroke-width:0.264583;stroke-opacity:1"
       d="m 92.952348,145.09969 c 0,0 0.412263,1.21797 0.462708,2.05882 0.05045,0.84085 0.232717,1.66215 0.113999,2.39423 0,0 2.121188,1.14709 3.611028,2.8308 1.489839,1.68371 1.71972,4.1666 1.438036,5.43243 0,0 -2.449475,-0.26156 -4.024775,0.0535"
       id="path85" />
    <path
       style="display:inline;fill:#2a122d;fill-opacity:0;stroke:#000000;stroke-width:0.264583;stroke-opacity:1"
       d="m 98.593293,153.7155 c 0,0 0.444942,-0.8095 0.88365,-1.01342 0.438706,-0.20392 1.374507,-0.46462 1.779447,-0.43281 0.40493,0.0318 1.56705,-0.0784 1.87469,-0.2334 0.30765,-0.15498 1.14202,-0.8118 1.23087,-1.04307 0.0889,-0.23127 0.27786,-1.01548 0.56913,-1.39377 0.29127,-0.37828 0.70744,-1.05854 1.69652,-1.30629 0.98907,-0.24775 2.23921,-0.32307 3.06997,-0.27408 0.83076,0.049 2.32886,0.44983 3.38947,0.91192 1.0606,0.46208 2.55148,1.34492 3.61404,2.28887 1.06256,0.94396 1.9468,2.3693 2.19519,3.75411 0.24836,1.38481 0.0971,3.29326 -0.2163,4.36776 -0.31342,1.07451 -1.60441,2.74489 -2.41899,3.39509 -0.81457,0.65021 -2.71253,1.73767 -2.71253,1.73767"
       id="path86" />
    <path
       style="display:inline;fill:#2a122d;fill-opacity:0;stroke:#000000;stroke-width:0.264583;stroke-opacity:1"
       d="m 108.97281,155.82791 c 0,0 1.7389,1.43719 2.46982,2.73004 0.73092,1.29284 1.06899,3.49429 1.23533,4.72199 0.16634,1.2277 0.42284,2.9575 0.14783,3.92692 -0.27501,0.96941 -1.16602,1.78315 -2.01877,2.37306 -0.85275,0.5899 -2.9137,1.85864 -3.96594,2.27131 -1.05224,0.41268 -2.48932,0.93582 -3.12738,1.06386 0,0 -0.58695,0.82147 -1.35962,1.35476 -0.77267,0.53328 -2.13237,1.59428 -3.094823,1.77357 -0.962456,0.17929 -2.58378,0.0463 -3.364968,-0.0782 -0.781187,-0.12455 -2.831965,-0.7707 -3.934253,-1.29225 -1.102289,-0.52155 -2.816818,-1.34451 -3.732435,-2.11824 -0.915617,-0.77373 -2.224188,-2.43239 -2.458593,-3.08862 l -0.04531,-0.34937"
       id="path87" />
    <path
       style="display:inline;fill:#2a122d;fill-opacity:0;stroke:#000000;stroke-width:0.264583;stroke-opacity:1"
       d="m 87.600904,169.57014 c 0,0 -2.216775,-1.03467 -3.741153,-2.14181 -1.524378,-1.10715 -1.795687,-1.58045 -2.227622,-2.26817 -0.431938,-0.68771 -0.849972,-2.21603 -0.962848,-2.74813 -0.112874,-0.5321 0.03687,-0.22158 -0.383479,-0.46576 -0.420346,-0.24419 -0.945171,-1.3314 -1.003927,-1.84116"
       id="path88" />
    <path
       style="display:inline;fill:#2a122d;fill-opacity:0;stroke:#000000;stroke-width:0.264583;stroke-opacity:1"
       d="m 103.35409,172.67475 c 0,0 0.40953,-2.25792 0.506,-3.33415 0.0965,-1.07624 0.10769,-2.62731 0.0266,-3.40937 -0.0811,-0.78206 -0.65097,-1.9414 -0.65097,-1.9414"
       id="path89" />
    <path
       style="display:inline;fill:#2a122d;fill-opacity:0;stroke:#000000;stroke-width:0.264583;stroke-opacity:1"
       d="m 110.20071,147.59913 c 0,0 -0.31739,-2.09436 -0.32423,-3.14092 -0.007,-1.04655 0.35872,-2.1143 0.73266,-2.87864 0.37395,-0.76435 0.75245,-1.75756 1.45315,-1.9354 0.7007,-0.17784 1.16035,-0.13414 1.38559,0.11904 0.22524,0.25319 0.51141,0.94372 0.49315,1.57525 -0.0182,0.63154 -0.31683,0.83217 -0.33646,1.28879 -0.0196,0.45662 -0.019,0.90842 0.16329,0.94803 0.1823,0.0396 0.89427,-0.99465 0.99219,-1.1836 0.0979,-0.18894 1.03088,-1.3616 1.68199,-1.90438 0.65112,-0.54277 1.94081,-1.58262 2.76628,-1.96734 0.82545,-0.38472 2.24467,-1.15583 3.23861,-0.96506 0.99396,0.19077 1.19639,0.56108 1.26087,1.10969 0.0645,0.54861 -0.57256,1.36861 -1.21037,1.76841 -0.63783,0.3998 -1.24862,0.62628 -1.83493,1.20359 -0.58632,0.5773 -1.10054,1.13957 -1.4341,1.77614 -0.33359,0.63657 -0.74806,0.85769 -0.49239,1.18666 0.25567,0.32898 1.07791,0.045 1.70297,-0.58317 0.62507,-0.62813 1.83986,-1.3571 2.28121,-1.58679 0.44135,-0.2297 3.48231,-1.77512 4.25651,-1.02803 0.77419,0.74711 0.24667,1.68055 -0.39029,2.27733 -0.63696,0.59678 -1.46145,1.35479 -2.29238,1.89756 -0.83092,0.54278 -2.22414,1.58662 -2.22414,1.58662"
       id="path90" />
    <path
       style="display:inline;fill:#2a122d;fill-opacity:0;stroke:#000000;stroke-width:0.264583;stroke-opacity:1"
       d="m 127.25456,143.58307 c 0,0 0.62585,-0.18401 0.86527,0.76965 0.23942,0.95366 -0.46082,1.87679 -1.07294,2.36356 -0.61214,0.48676 -0.96512,1.20372 -3.37354,2.68811"
       id="path91" />
    <path
       style="display:inline;fill:#2a122d;fill-opacity:0;stroke:#000000;stroke-width:0.264583;stroke-opacity:1"
       d="m 119.71166,156.10003 c 0,0 1.6197,-1.44262 2.14239,-1.98852 0.52268,-0.54589 0.89712,-0.87242 1.61062,-0.93069 0.71353,-0.0583 1.49524,0.0985 2.12476,-0.30938 0.62953,-0.40793 1.33345,-0.67245 1.87402,-1.38098 0.54057,-0.70852 1.64227,-1.99995 1.27582,-2.80979 -0.36645,-0.80984 -1.17091,-0.60222 -1.87465,-0.29434 -0.70371,0.30789 -1.03836,0.76826 -1.67166,0.89318 -0.63331,0.12492 -0.49385,-0.0104 -0.49385,-0.0104"
       id="path92" />
    <path
       style="display:inline;fill:#2a122d;fill-opacity:0;stroke:#000000;stroke-width:0.264583;stroke-opacity:1"
       d="m 90.180536,174.5745 c 0,0 0.06114,1.88471 1.419497,2.9234 1.358358,1.0387 2.180992,1.85198 3.793763,2.06813 0,0 0.270827,2.36014 2.209913,4.01991 1.939089,1.65977 2.472321,2.87135 5.835401,4.31514 3.36308,1.44378 6.31051,1.53405 8.01792,1.45074 1.7074,-0.0833 4.20532,-0.25529 5.51542,-0.80998 1.31009,-0.55469 1.79224,-0.79526 1.54136,-1.47439 -0.25087,-0.67914 -1.4188,-1.85427 -2.29371,-3.30327 -0.87492,-1.44899 -2.55426,-4.29522 -2.86135,-5.90924 -0.30709,-1.61402 -0.10979,-4.62421 2.3203,-8.02755 2.43008,-3.40334 4.77739,-5.73129 5.38207,-6.31296 0.6047,-0.58166 3.01926,-3.26487 4.43542,-4.34463"
       id="path93" />
    <path
       style="display:inline;fill:#2a122d;fill-opacity:0;stroke:#000000;stroke-width:0.264583;stroke-opacity:1"
       d="m 119.05473,186.6961 c 0,0 16.813,-3.76969 20.99921,-5.93567"
       id="path94" />
    <path
       style="display:inline;fill:#2a122d;fill-opacity:0;stroke:#000000;stroke-width:0.264583;stroke-opacity:1"
       d="m 139.1578,178.57056 c 0,0 0.61444,1.75604 3.25919,2.60158"
       id="path95" />
    <path
       style="display:inline;fill:#2a122d;fill-opacity:0;stroke:#000000;stroke-width:0.264583;stroke-opacity:1"
       d="m 140.23743,171.99693 c 0,0 -0.19995,3.60784 1.46971,6.69343 1.66965,3.08558 3.65712,4.92497 6.13296,6.60219 2.47586,1.67721 8.5571,4.31104 9.96251,4.87631 1.40542,0.56527 2.13471,2.17338 2.49479,2.9659"
       id="path96" />
    <path
       style="display:inline;fill:#2a122d;fill-opacity:0;stroke:#000000;stroke-width:0.264583;stroke-opacity:1"
       d="m 161.02415,190.52379 c 0,0 -0.6256,2.86017 -0.0106,4.53139 0.61494,1.67122 1.61671,2.20507 2.13201,2.37546 0.51528,0.1704 1.41534,0.75495 1.9054,0.32262 0.49009,-0.43233 0.35552,-1.11026 0.46101,-2.48061 0.10546,-1.37035 -0.32835,-4.56582 0.60018,-7.67613 0,0 0.10128,-0.73465 1.96879,-1.34945 1.86754,-0.6148 4.16068,-0.96607 4.63029,-1.14286 0.46963,-0.17679 1.32434,-0.49903 1.31498,-1.00784 -0.009,-0.50882 0.24394,-0.74766 -0.68413,-1.23984 -0.92806,-0.49218 -3.27102,-1.06059 -3.96039,-1.79784 -0.68938,-0.73725 -0.0915,-1.51919 -0.89207,-2.44036 -0.80058,-0.92118 -1.70887,-0.64637 -2.05777,-0.77985 -0.34888,-0.13348 -3.50748,-5.23505 -4.34766,-6.38149 -0.84019,-1.14643 -5.885,-7.80728 -6.02187,-8.12455 -0.13687,-0.31727 -0.96472,-1.4813 -2.35468,-2.45937 -1.38996,-0.97808 -2.50632,-1.60508 -3.60183,-1.73501 -1.09548,-0.12993 -7.2549,-0.0243 -10.01006,0.0965 -2.75516,0.12079 -10.59344,1.09345 -13.02644,2.34752"
       id="path97" />
    <path
       style="display:inline;fill:#2a122d;fill-opacity:0;stroke:#000000;stroke-width:0.264583;stroke-opacity:1"
       d="m 115.16359,179.82281 c 0,0 8.45835,-1.53329 11.90963,-2.27523 3.45128,-0.74194 5.68674,-1.19869 6.72809,-1.60051 1.04134,-0.40182 2.07489,-0.74863 2.35921,-1.10281 0,0 0.26347,0.41999 0.70964,0.34027 0,0 -1.11742,0.90406 -0.21649,1.57598 0.90096,0.67191 1.6377,-0.72033 1.86603,-1.08358 0.22831,-0.36325 0.49752,-0.93999 0.44871,-1.35972"
       id="path98" />
    <path
       style="display:inline;fill:#2a122d;fill-opacity:0;stroke:#000000;stroke-width:0.264583;stroke-opacity:1"
       d="m 166.02899,197.14329 c 0,0 5.00803,3.72999 5.89084,4.69929 0.88281,0.96931 2.65258,2.2798 3.34168,3.05564 0.68909,0.77585 1.35155,1.87154 2.44613,2.66725 1.09456,0.79572 7.63577,2.20994 8.81745,2.02564 1.18166,-0.1843 5.1145,-2.77199 5.55493,-4.1961 0.4404,-1.42411 0.0827,-4.69252 -0.44315,-6.16458 -0.52581,-1.47206 -1.84595,-2.96901 -2.57207,-3.55349 -0.7261,-0.58448 -4.61711,-2.65399 -6.04687,-3.25246 -1.42975,-0.59847 -1.48235,-1.38965 -2.36815,-2.3052 -0.88577,-0.91555 -3.25567,-2.47696 -3.97129,-2.99037 -0.71562,-0.51342 -2.53936,-2.15327 -2.53936,-2.15327"
       id="path99" />
    <path
       style="display:inline;fill:#2a122d;fill-opacity:0;stroke:#000000;stroke-width:0.264583;stroke-opacity:1"
       d="m 187.97033,194.3628 c 0,0 0.77882,0.27408 1.16099,-0.43359 0.38216,-0.70766 0.59631,-0.95736 0.46,-1.89975 -0.13631,-0.94238 -1.26526,-1.36116 -2.06975,-1.77841 -0.80447,-0.41726 -1.7901,-0.62216 -2.43404,-1.12971 -0.64394,-0.50755 -1.90704,-2.03474 -2.41998,-2.9344 -0.51295,-0.89967 -2.34241,-2.67664 -2.88748,-3.13576 -0.54504,-0.45912 -2.32124,-1.83826 -2.73873,-2.2273 -0.41746,-0.38905 -1.183,-1.05024 -1.183,-1.05024"
       id="path100" />
    <path
       style="display:inline;fill:#2a122d;fill-opacity:0;stroke:#000000;stroke-width:0.264583;stroke-opacity:1"
       d="m 170.98204,181.34936 c 0,0 0.003,-0.44916 0.16663,-0.70533 0.16444,-0.25617 2.03544,-0.79545 2.51,-0.91956 0.47456,-0.12411 1.33233,-0.41944 1.7168,-0.91547 0.38447,-0.49602 0.21024,-0.85386 0.0712,-1.45892 -0.13896,-0.60507 -1.33418,-1.0649 -1.73783,-1.22746 -0.40362,-0.16255 -1.045,-0.5852 -1.14247,-1.08947 -0.0975,-0.50428 1.24856,-1.28175 1.22234,-1.77394 -0.0262,-0.4922 -0.23857,-1.41184 -1.18607,-2.08206 0,0 -0.3375,-0.52664 -0.52213,-1.14598 -0.1846,-0.61934 -4.55493,-15.58449 -5.55559,-18.68583 -1.00065,-3.10134 -2.27742,-5.64939 -3.23413,-7.13552 -0.95671,-1.48614 -1.42748,-1.6689 -3.35661,-2.33739 -1.92913,-0.66849 -3.68295,-0.571 -5.68658,-0.16053 -2.00364,0.41046 -10.36119,2.95542 -15.10131,6.21798"
       id="path101" />
    <path
       style="display:inline;fill:#2a122d;fill-opacity:0;stroke:#000000;stroke-width:0.264583;stroke-opacity:1"
       d="m 152.27817,147.43149 c 0,0 -1.73697,2.0042 -1.61825,5.99609 0.11872,3.99189 0.32869,5.23079 0.32869,5.23079"
       id="path102" />
    <path
       style="display:inline;fill:#2a122d;fill-opacity:0;stroke:#000000;stroke-width:0.264583;stroke-opacity:1"
       d="m 142.62207,174.54135 c 0,0 2.05467,2.82666 3.77674,3.95279 1.72206,1.12613 4.7602,2.51793 6.09864,2.96246 1.33845,0.44453 5.09059,2.16608 5.81539,2.42853 0.7248,0.26246 2.46329,1.0724 2.3786,2.41671"
       id="path103" />
    <path
       style="display:inline;fill:#2a122d;fill-opacity:0;stroke:#000000;stroke-width:0.264583;stroke-opacity:1"
       d="m 87.168101,172.77544 c 0,0 -2.132933,1.96835 -2.007412,5.43853 0.08636,2.38749 1.786943,4.71888 3.822935,6.43339 2.035993,1.71451 6.48757,4.04177 7.97089,4.69631 1.483321,0.65455 8.128356,4.55325 11.851046,7.8255 3.72268,3.27225 5.7189,5.48805 7.40337,9.95176 1.68446,4.46372 1.5708,11.62383 -0.26703,15.76389 -1.83784,4.14007 -6.99361,10.47912 -11.46166,12.77499 -4.46806,2.29587 -9.802888,2.14585 -9.802888,2.14585 0,0 4.999712,-2.12868 7.722838,-5.8417 2.72312,-3.71302 3.62296,-10.21435 2.00451,-15.0919 -1.61845,-4.87755 -3.75896,-8.39786 -6.04451,-11.04588 -2.285545,-2.64802 -4.565602,-3.60439 -6.697347,-5.06379 -2.131746,-1.45938 -8.426905,-6.15687 -12.382723,-11.13768 -3.955817,-4.98081 -5.727707,-9.28238 -6.509506,-14.54902 -0.781799,-5.26663 -0.07062,-7.38739 -0.07062,-7.38739"
       id="path104"
       sodipodi:nodetypes="cszzsssscsszzssc" />
    <path
       style="display:inline;fill:#2a122d;fill-opacity:0;stroke:#000000;stroke-width:0.264583;stroke-opacity:1"
       d="m 77.023473,109.6499 c 0,0 4.911569,3.21526 6.207969,4.85327 1.2964,1.63802 2.723036,3.53257 3.127698,7.54203 0.404659,4.00946 0.44904,6.02666 -0.569777,6.59157"
       id="path107" />
    <path
       style="display:inline;fill:#2a122d;fill-opacity:0;stroke:#000000;stroke-width:0.264583;stroke-opacity:1"
       d="m 77.759594,117.35916 c 0,0 5.813899,7.07793 7.245517,11.63289 1.431618,4.55495 2.306021,12.00212 1.169681,17.84653 -1.136338,5.84441 -2.784309,8.12299 -4.271815,9.94243 -1.487503,1.81943 -4.440068,3.8955 -7.065171,6.42483 -2.625103,2.52932 -5.115012,5.95196 -6.457056,12.61291 -1.342043,6.66095 0.204722,13.38267 2.309048,15.92168 2.104327,2.539 5.052224,3.21757 7.110124,6.73943 2.057903,3.52186 1.297551,9.6769 -2.284706,11.6063 0,0 0.988642,-2.5455 0.497266,-5.29668 -0.491379,-2.75117 -3.626593,-4.82555 -5.458772,-5.56297 -1.832176,-0.73742 -5.443678,-1.60192 -9.154134,-5.38097 -3.710458,-3.77906 -6.717326,-9.01595 -6.993543,-17.52244 -0.276217,-8.50648 1.824749,-12.36709 4.560948,-16.96719 2.736199,-4.60011 5.606061,-6.69509 8.044831,-7.82824 2.438773,-1.13316 7.313218,-4.96119 8.361659,-7.48441 1.04844,-2.52321 1.646079,-4.6961 1.893022,-6.83206 0.246944,-2.13595 0.01921,-5.0255 -0.23373,-6.70816 -0.252931,-1.68266 -0.915929,-4.63161 -1.344062,-5.76279 -0.428133,-1.13119 -1.447763,-3.14271 -1.881664,-3.97017 -0.433903,-0.82745 -0.873149,-1.90481 -1.460783,-2.73988 -0.587637,-0.83506 -3.033488,-3.26952 -3.033488,-3.26952"
       id="path108"
       sodipodi:nodetypes="cssssssscssssszzsssssc" />
    <path
       style="display:inline;fill:#2a122d;fill-opacity:0;stroke:#000000;stroke-width:0.264583;stroke-opacity:1"
       d="m 52.345702,156.06359 c 0,0 -1.529234,6.04796 2.92545,9.00101"
       id="path109" />
    <path
       style="display:inline;fill:#2a122d;fill-opacity:0;stroke:#000000;stroke-width:0.264583;stroke-opacity:1"
       d="m 24.078817,159.43706 c 0,0 1.794849,1.95733 6.533253,2.08614 4.738404,0.12882 8.303757,0.84325 10.226056,3.72477 1.922298,2.88153 1.362318,5.5678 0.359606,7.37962 -1.00271,1.81183 -4.824212,2.85147 -4.815314,6.98098 0.0089,4.12951 2.991726,6.62958 6.330254,6.77528 0,0 -1.308497,-1.52909 -1.31209,-4.38655 -0.0036,-2.85745 3.950494,-4.3164 5.452184,-5.88018 1.501691,-1.56378 3.329903,-5.37035 1.680774,-10.64185 -1.649129,-5.27149 -4.43057,-5.42133 -5.62565,-5.48208 -1.195081,-0.0608 -2.385417,-0.1514 -3.590206,-1.32222"
       id="path111" />
    <path
       style="display:inline;fill:#2a122d;fill-opacity:0;stroke:#000000;stroke-width:0.264583;stroke-opacity:1"
       d="m 14.221916,148.29443 c 0,0 -2.510922,-3.21809 -2.366227,-8.36106 0.144695,-5.14296 5.090364,-10.57314 9.446609,-13.85868 4.356243,-3.28554 7.755041,-3.59644 11.537815,-3.24918 3.782774,0.34726 7.168168,1.62781 10.405684,3.83404 3.237516,2.20623 3.824669,3.25281 7.070971,3.41181 3.246305,0.15901 4.551378,-0.69477 5.562322,-1.39493 1.010944,-0.70016 2.036961,-2.96739 2.036961,-2.96739"
       id="path112" />
    <path
       style="display:inline;fill:#2a122d;fill-opacity:0;stroke:#000000;stroke-width:0.264583;stroke-opacity:1"
       d="m 35.018454,141.99711 c 0,0 0.03417,-2.82431 2.632647,-3.98731 2.598472,-1.163 3.662365,-0.84373 4.671922,-0.52413 1.009555,0.31959 2.382329,2.2779 2.984505,2.71662 0.602176,0.43873 1.839286,1.27334 2.545535,1.44155"
       id="path113" />
    <path
       style="display:inline;fill:#2a122d;fill-opacity:0;stroke:#000000;stroke-width:0.264583;stroke-opacity:1"
       d="m 69.119729,174.54703 c 0,0 0.838906,1.52519 3.185361,0.82747"
       id="path114" />
    <path
       style="display:inline;fill:#2a122d;fill-opacity:0;stroke:#000000;stroke-width:0.264583;stroke-opacity:1"
       d="m 103.98745,182.11688 c 0,0 -0.98721,-4.66428 0.99355,-7.49373"
       id="path115" />
    <path
       style="display:inline;fill:#2a122d;fill-opacity:0;stroke:#000000;stroke-width:0.264583;stroke-opacity:1"
       d="m 95.436999,164.88732 c 0,0 -1.234239,-1.93486 -0.397406,-3.95872 0.836832,-2.02385 2.977009,-1.71158 2.977009,-1.71158"
       id="path116" />
    <path
       style="display:inline;fill:#2a122d;fill-opacity:0;stroke:#000000;stroke-width:0.264583;stroke-opacity:1"
       d="m 172.46455,201.49473 c 0,0 6.19429,2.6066 6.97984,3.12216 0,0 1.30501,-1.55558 3.16093,-3.30221 1.85589,-1.74663 3.01947,-2.67795 3.21251,-3.49524 0.19304,-0.81729 0.42111,-0.68433 0.34169,-1.09706 -0.0795,-0.41274 -0.95637,-1.60259 -1.50003,-2.02204 -0.54369,-0.41946 -1.17023,-1.50719 -1.17023,-1.50719"
       id="path117" />
    <path
       style="display:inline;fill:#2a122d;fill-opacity:0;stroke:#000000;stroke-width:0.264583;stroke-opacity:1"
       d="m 175.58687,199.56076 c 0,0 -0.0473,-0.81097 0.36142,-1.67526 0.40873,-0.86429 2.30397,-3.76716 3.46549,-4.16465 0,0 0.80687,-0.25786 1.60001,1.49151 0.79317,1.74937 -3.22595,5.1729 -4.09344,5.20636 -0.86749,0.0335 -1.33348,-0.85796 -1.33348,-0.85796 z"
       id="path118" />
    <path
       style="display:inline;fill:#2a122d;fill-opacity:0;stroke:#000000;stroke-width:0.264583;stroke-opacity:1"
       d="m 171.26271,195.88452 c 0,0 0.0692,-1.27693 1.73048,-3.27293 1.66129,-1.99599 1.9218,-2.62643 2.36675,-2.57456 0.44498,0.0519 1.89082,1.13243 1.92127,1.49749 0.0305,0.36507 -3.09131,5.34334 -4.616,5.69685 -1.52466,0.35351 -1.4025,-1.34685 -1.4025,-1.34685 z"
       id="path119" />
    <path
       style="display:inline;fill:#2a122d;fill-opacity:0;stroke:#000000;stroke-width:0.264583;stroke-opacity:1"
       d="m 181.01461,189.65074 c 0,0 0.90279,-1.39022 2.29781,-1.73531"
       id="path120" />
    <path
       style="display:inline;fill:#2a122d;fill-opacity:0;stroke:#000000;stroke-width:0.264583;stroke-opacity:1"
       d="m 180.72873,184.81132 c 0,0 -1.64409,1.74893 -2.03441,1.75413 -0.39031,0.005 -1.80178,-0.90217 -1.96834,-1.26918 -0.16658,-0.36701 1.50352,-2.35125 2.03441,-2.64895"
       id="path121" />
    <path
       style="display:inline;fill:#2a122d;fill-opacity:0;stroke:#000000;stroke-width:0.264583;stroke-opacity:1"
       d="m 176.70487,181.13911 c -0.57923,0.13367 -0.83537,0.71051 -1.03267,0.95579 -0.1973,0.24528 -0.80208,0.9267 -0.95552,0.97874 -0.15343,0.052 -0.42621,0.0749 -0.42621,0.0749"
       id="path122" />
  </g>
</svg>
